<?xml version="1.0" encoding="UTF-8" standalone="no"?>
<!DOCTYPE svg PUBLIC "-//W3C//DTD SVG 1.1//EN"
 "http://www.w3.org/Graphics/SVG/1.1/DTD/svg11.dtd">
<!-- Generated by graphviz version 13.0.1 (20250615.1724)
 -->
<!-- Title: GameUtils.h Pages: 1 -->
<svg width="405pt" height="252pt"
 viewBox="0.00 0.00 405.00 252.00" xmlns="http://www.w3.org/2000/svg" xmlns:xlink="http://www.w3.org/1999/xlink">
<g id="graph0" class="graph" transform="scale(1 1) rotate(0) translate(4 248)">
<title>GameUtils.h</title>
<!-- Node1 -->
<g id="Node000001" class="node">
<title>Node1</title>
<g id="a_Node000001"><a xlink:title=" ">
<polygon fill="#999999" stroke="#666666" points="288.62,-244 217.88,-244 217.88,-224 288.62,-224 288.62,-244"/>
<text xml:space="preserve" text-anchor="middle" x="253.25" y="-230.5" font-family="Helvetica,sans-Serif" font-size="10.00">GameUtils.h</text>
</a>
</g>
</g>
<!-- Node2 -->
<g id="Node000002" class="node">
<title>Node2</title>
<g id="a_Node000002"><a xlink:href="_game_board_8cpp.html" target="_top" xlink:title=" ">
<polygon fill="white" stroke="#666666" points="86.5,-132 0,-132 0,-112 86.5,-112 86.5,-132"/>
<text xml:space="preserve" text-anchor="middle" x="43.25" y="-118.5" font-family="Helvetica,sans-Serif" font-size="10.00">GameBoard.cpp</text>
</a>
</g>
</g>
<!-- Node1&#45;&gt;Node2 -->
<g id="edge1_Node000001_Node000002" class="edge">
<title>Node1&#45;&gt;Node2</title>
<g id="a_edge1_Node000001_Node000002"><a xlink:title=" ">
<path fill="none" stroke="#63b8ff" d="M212.67,-219.9C189.92,-211.91 161.36,-200.78 137.25,-188 105.7,-171.27 72.04,-145.93 54.84,-132.36"/>
<polygon fill="#63b8ff" stroke="#63b8ff" points="211.3,-223.13 221.9,-223.07 213.58,-216.51 211.3,-223.13"/>
</a>
</g>
</g>
<!-- Node3 -->
<g id="Node000003" class="node">
<title>Node3</title>
<g id="a_Node000003"><a xlink:href="_game_board_8h.html" target="_top" xlink:title=" ">
<polygon fill="white" stroke="#666666" points="222.25,-188 146.25,-188 146.25,-168 222.25,-168 222.25,-188"/>
<text xml:space="preserve" text-anchor="middle" x="184.25" y="-174.5" font-family="Helvetica,sans-Serif" font-size="10.00">GameBoard.h</text>
</a>
</g>
</g>
<!-- Node1&#45;&gt;Node3 -->
<g id="edge2_Node000001_Node000003" class="edge">
<title>Node1&#45;&gt;Node3</title>
<g id="a_edge2_Node000001_Node000003"><a xlink:title=" ">
<path fill="none" stroke="#63b8ff" d="M232.4,-216.68C220.52,-207.39 206.08,-196.09 196.13,-188.3"/>
<polygon fill="#63b8ff" stroke="#63b8ff" points="230.01,-219.25 240.04,-222.66 234.32,-213.74 230.01,-219.25"/>
</a>
</g>
</g>
<!-- Node4 -->
<g id="Node000004" class="node">
<title>Node4</title>
<g id="a_Node000004"><a xlink:href="_game_session_8h.html" target="_top" xlink:title=" ">
<polygon fill="white" stroke="#666666" points="276.12,-76 190.38,-76 190.38,-56 276.12,-56 276.12,-76"/>
<text xml:space="preserve" text-anchor="middle" x="233.25" y="-62.5" font-family="Helvetica,sans-Serif" font-size="10.00">GameSession.h</text>
</a>
</g>
</g>
<!-- Node1&#45;&gt;Node4 -->
<g id="edge12_Node000001_Node000004" class="edge">
<title>Node1&#45;&gt;Node4</title>
<g id="a_edge12_Node000001_Node000004"><a xlink:title=" ">
<path fill="none" stroke="#63b8ff" d="M270.58,-215.09C291.71,-190.98 322.38,-147.05 303.25,-112 293.97,-95.01 275.23,-83.48 259.47,-76.34"/>
<polygon fill="#63b8ff" stroke="#63b8ff" points="268,-212.72 263.83,-222.46 273.16,-217.45 268,-212.72"/>
</a>
</g>
</g>
<!-- Node5 -->
<g id="Node000005" class="node">
<title>Node5</title>
<g id="a_Node000005"><a xlink:href="_game_session_8cpp.html" target="_top" xlink:title=" ">
<polygon fill="white" stroke="#666666" points="397.38,-20 301.12,-20 301.12,0 397.38,0 397.38,-20"/>
<text xml:space="preserve" text-anchor="middle" x="349.25" y="-6.5" font-family="Helvetica,sans-Serif" font-size="10.00">GameSession.cpp</text>
</a>
</g>
</g>
<!-- Node1&#45;&gt;Node5 -->
<g id="edge11_Node000001_Node000005" class="edge">
<title>Node1&#45;&gt;Node5</title>
<g id="a_edge11_Node000001_Node000005"><a xlink:title=" ">
<path fill="none" stroke="#63b8ff" d="M280.46,-217.3C291.27,-209.76 302.87,-199.78 310.25,-188 345.5,-131.74 349.14,-47.98 349.33,-20.27"/>
<polygon fill="#63b8ff" stroke="#63b8ff" points="278.64,-214.32 272.17,-222.71 282.46,-220.18 278.64,-214.32"/>
</a>
</g>
</g>
<!-- Node7 -->
<g id="Node000007" class="node">
<title>Node7</title>
<g id="a_Node000007"><a xlink:href="_game_utils_8cpp.html" target="_top" xlink:title=" ">
<polygon fill="white" stroke="#666666" points="293.88,-132 212.62,-132 212.62,-112 293.88,-112 293.88,-132"/>
<text xml:space="preserve" text-anchor="middle" x="253.25" y="-118.5" font-family="Helvetica,sans-Serif" font-size="10.00">GameUtils.cpp</text>
</a>
</g>
</g>
<!-- Node1&#45;&gt;Node7 -->
<g id="edge13_Node000001_Node000007" class="edge">
<title>Node1&#45;&gt;Node7</title>
<g id="a_edge13_Node000001_Node000007"><a xlink:title=" ">
<path fill="none" stroke="#63b8ff" d="M253.25,-212.31C253.25,-188.36 253.25,-149.95 253.25,-132.35"/>
<polygon fill="#63b8ff" stroke="#63b8ff" points="249.75,-212.11 253.25,-222.11 256.75,-212.11 249.75,-212.11"/>
</a>
</g>
</g>
<!-- Node3&#45;&gt;Node2 -->
<g id="edge3_Node000003_Node000002" class="edge">
<title>Node3&#45;&gt;Node2</title>
<g id="a_edge3_Node000003_Node000002"><a xlink:title=" ">
<path fill="none" stroke="#63b8ff" d="M149.08,-163.53C123.85,-153.87 90.47,-141.08 68,-132.48"/>
<polygon fill="#63b8ff" stroke="#63b8ff" points="147.69,-166.74 158.28,-167.05 150.19,-160.21 147.69,-166.74"/>
</a>
</g>
</g>
<!-- Node3&#45;&gt;Node4 -->
<g id="edge4_Node000003_Node000004" class="edge">
<title>Node3&#45;&gt;Node4</title>
<g id="a_edge4_Node000003_Node000004"><a xlink:title=" ">
<path fill="none" stroke="#63b8ff" d="M188.48,-156.77C191.64,-143.65 196.55,-126.37 203.25,-112 209.36,-98.89 218.97,-85.27 225.67,-76.5"/>
<polygon fill="#63b8ff" stroke="#63b8ff" points="185.1,-155.86 186.33,-166.38 191.93,-157.39 185.1,-155.86"/>
</a>
</g>
</g>
<!-- Node3&#45;&gt;Node7 -->
<g id="edge7_Node000003_Node000007" class="edge">
<title>Node3&#45;&gt;Node7</title>
<g id="a_edge7_Node000003_Node000007"><a xlink:title=" ">
<path fill="none" stroke="#63b8ff" d="M205.1,-160.68C216.98,-151.39 231.42,-140.09 241.37,-132.3"/>
<polygon fill="#63b8ff" stroke="#63b8ff" points="203.18,-157.74 197.46,-166.66 207.49,-163.25 203.18,-157.74"/>
</a>
</g>
</g>
<!-- Node8 -->
<g id="Node000008" class="node">
<title>Node8</title>
<g id="a_Node000008"><a xlink:href="_player_8h.html" target="_top" xlink:title=" ">
<polygon fill="white" stroke="#666666" points="156.25,-132 104.25,-132 104.25,-112 156.25,-112 156.25,-132"/>
<text xml:space="preserve" text-anchor="middle" x="130.25" y="-118.5" font-family="Helvetica,sans-Serif" font-size="10.00">Player.h</text>
</a>
</g>
</g>
<!-- Node3&#45;&gt;Node8 -->
<g id="edge8_Node000003_Node000008" class="edge">
<title>Node3&#45;&gt;Node8</title>
<g id="a_edge8_Node000003_Node000008"><a xlink:title=" ">
<path fill="none" stroke="#63b8ff" d="M166.82,-159.57C157.75,-150.5 147.03,-139.78 139.55,-132.3"/>
<polygon fill="#63b8ff" stroke="#63b8ff" points="164.23,-161.93 173.77,-166.52 169.18,-156.98 164.23,-161.93"/>
</a>
</g>
</g>
<!-- Node4&#45;&gt;Node5 -->
<g id="edge5_Node000004_Node000005" class="edge">
<title>Node4&#45;&gt;Node5</title>
<g id="a_edge5_Node000004_Node000005"><a xlink:title=" ">
<path fill="none" stroke="#63b8ff" d="M263.87,-50.75C284.41,-41.18 310.9,-28.85 328.89,-20.48"/>
<polygon fill="#63b8ff" stroke="#63b8ff" points="262.42,-47.56 254.83,-54.96 265.37,-53.91 262.42,-47.56"/>
</a>
</g>
</g>
<!-- Node6 -->
<g id="Node000006" class="node">
<title>Node6</title>
<g id="a_Node000006"><a xlink:href="main_8cpp.html" target="_top" xlink:title=" ">
<polygon fill="white" stroke="#666666" points="261.12,-20 205.38,-20 205.38,0 261.12,0 261.12,-20"/>
<text xml:space="preserve" text-anchor="middle" x="233.25" y="-6.5" font-family="Helvetica,sans-Serif" font-size="10.00">main.cpp</text>
</a>
</g>
</g>
<!-- Node4&#45;&gt;Node6 -->
<g id="edge6_Node000004_Node000006" class="edge">
<title>Node4&#45;&gt;Node6</title>
<g id="a_edge6_Node000004_Node000006"><a xlink:title=" ">
<path fill="none" stroke="#63b8ff" d="M233.25,-44.13C233.25,-35.9 233.25,-26.85 233.25,-20.3"/>
<polygon fill="#63b8ff" stroke="#63b8ff" points="229.75,-44.08 233.25,-54.08 236.75,-44.08 229.75,-44.08"/>
</a>
</g>
</g>
<!-- Node8&#45;&gt;Node4 -->
<g id="edge9_Node000008_Node000004" class="edge">
<title>Node8&#45;&gt;Node4</title>
<g id="a_edge9_Node000008_Node000004"><a xlink:title=" ">
<path fill="none" stroke="#63b8ff" d="M158.2,-106.35C176.33,-96.84 199.42,-84.74 215.17,-76.48"/>
<polygon fill="#63b8ff" stroke="#63b8ff" points="156.76,-103.15 149.53,-110.89 160.01,-109.35 156.76,-103.15"/>
</a>
</g>
</g>
<!-- Node9 -->
<g id="Node000009" class="node">
<title>Node9</title>
<g id="a_Node000009"><a xlink:href="_player_8cpp.html" target="_top" xlink:title=" ">
<polygon fill="white" stroke="#666666" points="161.5,-76 99,-76 99,-56 161.5,-56 161.5,-76"/>
<text xml:space="preserve" text-anchor="middle" x="130.25" y="-62.5" font-family="Helvetica,sans-Serif" font-size="10.00">Player.cpp</text>
</a>
</g>
</g>
<!-- Node8&#45;&gt;Node9 -->
<g id="edge10_Node000008_Node000009" class="edge">
<title>Node8&#45;&gt;Node9</title>
<g id="a_edge10_Node000008_Node000009"><a xlink:title=" ">
<path fill="none" stroke="#63b8ff" d="M130.25,-100.13C130.25,-91.9 130.25,-82.85 130.25,-76.3"/>
<polygon fill="#63b8ff" stroke="#63b8ff" points="126.75,-100.08 130.25,-110.08 133.75,-100.08 126.75,-100.08"/>
</a>
</g>
</g>
</g>
</svg>
