<?xml version="1.0" encoding="UTF-8" standalone="no"?>
<!DOCTYPE svg PUBLIC "-//W3C//DTD SVG 1.1//EN"
 "http://www.w3.org/Graphics/SVG/1.1/DTD/svg11.dtd">
<!-- Generated by graphviz version 13.0.1 (20250615.1724)
 -->
<!-- Title: GameSession.h Pages: 1 -->
<svg width="833pt" height="252pt"
 viewBox="0.00 0.00 833.00 252.00" xmlns="http://www.w3.org/2000/svg" xmlns:xlink="http://www.w3.org/1999/xlink">
<g id="graph0" class="graph" transform="scale(1 1) rotate(0) translate(4 248)">
<title>GameSession.h</title>
<!-- Node1 -->
<g id="Node000001" class="node">
<title>Node1</title>
<g id="a_Node000001"><a xlink:title=" ">
<polygon fill="#999999" stroke="#666666" points="479.88,-244 394.12,-244 394.12,-224 479.88,-224 479.88,-244"/>
<text xml:space="preserve" text-anchor="middle" x="437" y="-230.5" font-family="Helvetica,sans-Serif" font-size="10.00">GameSession.h</text>
</a>
</g>
</g>
<!-- Node2 -->
<g id="Node000002" class="node">
<title>Node2</title>
<g id="a_Node000002"><a xlink:title=" ">
<polygon fill="#e0e0e0" stroke="#999999" points="251.75,-20 204.25,-20 204.25,0 251.75,0 251.75,-20"/>
<text xml:space="preserve" text-anchor="middle" x="228" y="-6.5" font-family="Helvetica,sans-Serif" font-size="10.00">raylib.h</text>
</a>
</g>
</g>
<!-- Node1&#45;&gt;Node2 -->
<g id="edge1_Node000001_Node000002" class="edge">
<title>Node1&#45;&gt;Node2</title>
<g id="a_edge1_Node000001_Node000002"><a xlink:title=" ">
<path fill="none" stroke="#63b8ff" d="M414,-223.64C369.23,-204.02 271.33,-153.82 232,-76 225.12,-62.39 224.38,-45.08 225.22,-31.74"/>
<polygon fill="#63b8ff" stroke="#63b8ff" points="228.69,-32.23 226.21,-21.93 221.72,-31.53 228.69,-32.23"/>
</a>
</g>
</g>
<!-- Node3 -->
<g id="Node000003" class="node">
<title>Node3</title>
<g id="a_Node000003"><a xlink:href="_game_board_8h.html" target="_top" xlink:title=" ">
<polygon fill="white" stroke="#666666" points="384,-132 308,-132 308,-112 384,-112 384,-132"/>
<text xml:space="preserve" text-anchor="middle" x="346" y="-118.5" font-family="Helvetica,sans-Serif" font-size="10.00">GameBoard.h</text>
</a>
</g>
</g>
<!-- Node1&#45;&gt;Node3 -->
<g id="edge2_Node000001_Node000003" class="edge">
<title>Node1&#45;&gt;Node3</title>
<g id="a_edge2_Node000001_Node000003"><a xlink:title=" ">
<path fill="none" stroke="#63b8ff" d="M429.24,-223.62C414.13,-205.36 380.52,-164.73 360.95,-141.07"/>
<polygon fill="#63b8ff" stroke="#63b8ff" points="363.77,-139 354.7,-133.52 358.38,-143.46 363.77,-139"/>
</a>
</g>
</g>
<!-- Node6 -->
<g id="Node000006" class="node">
<title>Node6</title>
<g id="a_Node000006"><a xlink:title=" ">
<polygon fill="#e0e0e0" stroke="#999999" points="641.5,-20 598.5,-20 598.5,0 641.5,0 641.5,-20"/>
<text xml:space="preserve" text-anchor="middle" x="620" y="-6.5" font-family="Helvetica,sans-Serif" font-size="10.00">vector</text>
</a>
</g>
</g>
<!-- Node1&#45;&gt;Node6 -->
<g id="edge27_Node000001_Node000006" class="edge">
<title>Node1&#45;&gt;Node6</title>
<g id="a_edge27_Node000001_Node000006"><a xlink:title=" ">
<path fill="none" stroke="#63b8ff" d="M480.27,-231.12C542.34,-225.81 654.8,-205.92 706,-132 717.5,-115.4 706.7,-75.06 693,-56 682.79,-41.8 666.58,-31.15 652.02,-23.79"/>
<polygon fill="#63b8ff" stroke="#63b8ff" points="653.73,-20.73 643.19,-19.65 650.76,-27.07 653.73,-20.73"/>
</a>
</g>
</g>
<!-- Node9 -->
<g id="Node000009" class="node">
<title>Node9</title>
<g id="a_Node000009"><a xlink:href="_game_utils_8h.html" target="_top" xlink:title=" ">
<polygon fill="white" stroke="#666666" points="162.38,-76 91.62,-76 91.62,-56 162.38,-56 162.38,-76"/>
<text xml:space="preserve" text-anchor="middle" x="127" y="-62.5" font-family="Helvetica,sans-Serif" font-size="10.00">GameUtils.h</text>
</a>
</g>
</g>
<!-- Node1&#45;&gt;Node9 -->
<g id="edge25_Node000001_Node000009" class="edge">
<title>Node1&#45;&gt;Node9</title>
<g id="a_edge25_Node000001_Node000009"><a xlink:title=" ">
<path fill="none" stroke="#63b8ff" d="M393.69,-230.57C328.38,-226.08 208.8,-214.44 176,-188 144.92,-162.95 133.41,-115.1 129.26,-87.68"/>
<polygon fill="#63b8ff" stroke="#63b8ff" points="132.74,-87.32 127.98,-77.86 125.8,-88.23 132.74,-87.32"/>
</a>
</g>
</g>
<!-- Node14 -->
<g id="Node000014" class="node">
<title>Node14</title>
<g id="a_Node000014"><a xlink:href="_player_8h.html" target="_top" xlink:title=" ">
<polygon fill="white" stroke="#666666" points="527,-188 475,-188 475,-168 527,-168 527,-188"/>
<text xml:space="preserve" text-anchor="middle" x="501" y="-174.5" font-family="Helvetica,sans-Serif" font-size="10.00">Player.h</text>
</a>
</g>
</g>
<!-- Node1&#45;&gt;Node14 -->
<g id="edge17_Node000001_Node000014" class="edge">
<title>Node1&#45;&gt;Node14</title>
<g id="a_edge17_Node000001_Node000014"><a xlink:title=" ">
<path fill="none" stroke="#63b8ff" d="M448.15,-223.59C457.33,-215.85 470.55,-204.69 481.48,-195.47"/>
<polygon fill="#63b8ff" stroke="#63b8ff" points="483.44,-198.4 488.82,-189.27 478.92,-193.05 483.44,-198.4"/>
</a>
</g>
</g>
<!-- Node19 -->
<g id="Node000019" class="node">
<title>Node19</title>
<g id="a_Node000019"><a xlink:title=" ">
<polygon fill="#e0e0e0" stroke="#999999" points="824.62,-188 773.38,-188 773.38,-168 824.62,-168 824.62,-188"/>
<text xml:space="preserve" text-anchor="middle" x="799" y="-174.5" font-family="Helvetica,sans-Serif" font-size="10.00">memory</text>
</a>
</g>
</g>
<!-- Node1&#45;&gt;Node19 -->
<g id="edge26_Node000001_Node000019" class="edge">
<title>Node1&#45;&gt;Node19</title>
<g id="a_edge26_Node000001_Node000019"><a xlink:title=" ">
<path fill="none" stroke="#63b8ff" d="M480.15,-228.12C542.1,-220.85 659.73,-206.07 759,-188 760.01,-187.82 761.04,-187.62 762.07,-187.43"/>
<polygon fill="#63b8ff" stroke="#63b8ff" points="762.67,-190.87 771.76,-185.43 761.26,-184.02 762.67,-190.87"/>
</a>
</g>
</g>
<!-- Node3&#45;&gt;Node2 -->
<g id="edge3_Node000003_Node000002" class="edge">
<title>Node3&#45;&gt;Node2</title>
<g id="a_edge3_Node000003_Node000002"><a xlink:title=" ">
<path fill="none" stroke="#63b8ff" d="M307.88,-112.04C287.19,-105.33 262.71,-94.12 247,-76 236.27,-63.62 231.59,-45.46 229.56,-31.48"/>
<polygon fill="#63b8ff" stroke="#63b8ff" points="233.04,-31.17 228.49,-21.61 226.08,-31.92 233.04,-31.17"/>
</a>
</g>
</g>
<!-- Node4 -->
<g id="Node000004" class="node">
<title>Node4</title>
<g id="a_Node000004"><a xlink:href="_cell_8h.html" target="_top" xlink:title=" ">
<polygon fill="white" stroke="#666666" points="433.75,-76 392.25,-76 392.25,-56 433.75,-56 433.75,-76"/>
<text xml:space="preserve" text-anchor="middle" x="413" y="-62.5" font-family="Helvetica,sans-Serif" font-size="10.00">Cell.h</text>
</a>
</g>
</g>
<!-- Node3&#45;&gt;Node4 -->
<g id="edge4_Node000003_Node000004" class="edge">
<title>Node3&#45;&gt;Node4</title>
<g id="a_edge4_Node000003_Node000004"><a xlink:title=" ">
<path fill="none" stroke="#63b8ff" d="M357.67,-111.59C367.28,-103.85 381.13,-92.69 392.57,-83.47"/>
<polygon fill="#63b8ff" stroke="#63b8ff" points="394.7,-86.25 400.28,-77.25 390.3,-80.8 394.7,-86.25"/>
</a>
</g>
</g>
<!-- Node5 -->
<g id="Node000005" class="node">
<title>Node5</title>
<g id="a_Node000005"><a xlink:href="_ship_8h.html" target="_top" xlink:title=" ">
<polygon fill="white" stroke="#666666" points="299.88,-76 256.12,-76 256.12,-56 299.88,-56 299.88,-76"/>
<text xml:space="preserve" text-anchor="middle" x="278" y="-62.5" font-family="Helvetica,sans-Serif" font-size="10.00">Ship.h</text>
</a>
</g>
</g>
<!-- Node3&#45;&gt;Node5 -->
<g id="edge5_Node000003_Node000005" class="edge">
<title>Node3&#45;&gt;Node5</title>
<g id="a_edge5_Node000003_Node000005"><a xlink:title=" ">
<path fill="none" stroke="#63b8ff" d="M334.16,-111.59C324.31,-103.77 310.07,-92.46 298.39,-83.19"/>
<polygon fill="#63b8ff" stroke="#63b8ff" points="300.9,-80.72 290.89,-77.24 296.55,-86.2 300.9,-80.72"/>
</a>
</g>
</g>
<!-- Node3&#45;&gt;Node6 -->
<g id="edge8_Node000003_Node000006" class="edge">
<title>Node3&#45;&gt;Node6</title>
<g id="a_edge8_Node000003_Node000006"><a xlink:title=" ">
<path fill="none" stroke="#63b8ff" d="M384.32,-114.15C419.29,-107.12 471.93,-94.58 515,-76 545.79,-62.72 578.15,-41.4 598.67,-26.83"/>
<polygon fill="#63b8ff" stroke="#63b8ff" points="600.45,-29.86 606.51,-21.17 596.35,-24.19 600.45,-29.86"/>
</a>
</g>
</g>
<!-- Node7 -->
<g id="Node000007" class="node">
<title>Node7</title>
<g id="a_Node000007"><a xlink:title=" ">
<polygon fill="#e0e0e0" stroke="#999999" points="505.75,-76 452.25,-76 452.25,-56 505.75,-56 505.75,-76"/>
<text xml:space="preserve" text-anchor="middle" x="479" y="-62.5" font-family="Helvetica,sans-Serif" font-size="10.00">iostream</text>
</a>
</g>
</g>
<!-- Node3&#45;&gt;Node7 -->
<g id="edge9_Node000003_Node000007" class="edge">
<title>Node3&#45;&gt;Node7</title>
<g id="a_edge9_Node000003_Node000007"><a xlink:title=" ">
<path fill="none" stroke="#63b8ff" d="M369.17,-111.59C390.21,-103.05 421.5,-90.35 445.3,-80.68"/>
<polygon fill="#63b8ff" stroke="#63b8ff" points="446.3,-84.05 454.25,-77.05 443.67,-77.57 446.3,-84.05"/>
</a>
</g>
</g>
<!-- Node8 -->
<g id="Node000008" class="node">
<title>Node8</title>
<g id="a_Node000008"><a xlink:title=" ">
<polygon fill="#e0e0e0" stroke="#999999" points="373.88,-76 318.12,-76 318.12,-56 373.88,-56 373.88,-76"/>
<text xml:space="preserve" text-anchor="middle" x="346" y="-62.5" font-family="Helvetica,sans-Serif" font-size="10.00">algorithm</text>
</a>
</g>
</g>
<!-- Node3&#45;&gt;Node8 -->
<g id="edge10_Node000003_Node000008" class="edge">
<title>Node3&#45;&gt;Node8</title>
<g id="a_edge10_Node000003_Node000008"><a xlink:title=" ">
<path fill="none" stroke="#63b8ff" d="M346,-111.59C346,-105.01 346,-95.96 346,-87.73"/>
<polygon fill="#63b8ff" stroke="#63b8ff" points="349.5,-87.81 346,-77.81 342.5,-87.81 349.5,-87.81"/>
</a>
</g>
</g>
<!-- Node3&#45;&gt;Node9 -->
<g id="edge11_Node000003_Node000009" class="edge">
<title>Node3&#45;&gt;Node9</title>
<g id="a_edge11_Node000003_Node000009"><a xlink:title=" ">
<path fill="none" stroke="#63b8ff" d="M307.6,-111.53C270.34,-102.34 213.73,-88.39 173.84,-78.55"/>
<polygon fill="#63b8ff" stroke="#63b8ff" points="174.83,-75.19 164.28,-76.19 173.15,-81.98 174.83,-75.19"/>
</a>
</g>
</g>
<!-- Node5&#45;&gt;Node2 -->
<g id="edge6_Node000005_Node000002" class="edge">
<title>Node5&#45;&gt;Node2</title>
<g id="a_edge6_Node000005_Node000002"><a xlink:title=" ">
<path fill="none" stroke="#63b8ff" d="M269.29,-55.59C262.41,-48.16 252.61,-37.58 244.28,-28.58"/>
<polygon fill="#63b8ff" stroke="#63b8ff" points="247,-26.37 237.64,-21.41 241.86,-31.12 247,-26.37"/>
</a>
</g>
</g>
<!-- Node5&#45;&gt;Node6 -->
<g id="edge7_Node000005_Node000006" class="edge">
<title>Node5&#45;&gt;Node6</title>
<g id="a_edge7_Node000005_Node000006"><a xlink:title=" ">
<path fill="none" stroke="#63b8ff" d="M300.26,-58.14C303.18,-57.35 306.15,-56.62 309,-56 409.31,-34.29 530.13,-20.19 587.15,-14.24"/>
<polygon fill="#63b8ff" stroke="#63b8ff" points="587.23,-17.75 596.82,-13.24 586.51,-10.78 587.23,-17.75"/>
</a>
</g>
</g>
<!-- Node9&#45;&gt;Node2 -->
<g id="edge12_Node000009_Node000002" class="edge">
<title>Node9&#45;&gt;Node2</title>
<g id="a_edge12_Node000009_Node000002"><a xlink:title=" ">
<path fill="none" stroke="#63b8ff" d="M144.59,-55.59C159.92,-47.4 182.42,-35.37 200.19,-25.87"/>
<polygon fill="#63b8ff" stroke="#63b8ff" points="201.77,-28.99 208.94,-21.19 198.47,-22.82 201.77,-28.99"/>
</a>
</g>
</g>
<!-- Node10 -->
<g id="Node000010" class="node">
<title>Node10</title>
<g id="a_Node000010"><a xlink:title=" ">
<polygon fill="#e0e0e0" stroke="#999999" points="488,-20 448,-20 448,0 488,0 488,-20"/>
<text xml:space="preserve" text-anchor="middle" x="468" y="-6.5" font-family="Helvetica,sans-Serif" font-size="10.00">string</text>
</a>
</g>
</g>
<!-- Node9&#45;&gt;Node10 -->
<g id="edge13_Node000009_Node000010" class="edge">
<title>Node9&#45;&gt;Node10</title>
<g id="a_edge13_Node000009_Node000010"><a xlink:title=" ">
<path fill="none" stroke="#63b8ff" d="M162.85,-59.32C229.84,-48.71 372.96,-26.05 436.5,-15.99"/>
<polygon fill="#63b8ff" stroke="#63b8ff" points="436.92,-19.47 446.25,-14.44 435.83,-12.55 436.92,-19.47"/>
</a>
</g>
</g>
<!-- Node11 -->
<g id="Node000011" class="node">
<title>Node11</title>
<g id="a_Node000011"><a xlink:title=" ">
<polygon fill="#e0e0e0" stroke="#999999" points="119.5,-20 58.5,-20 58.5,0 119.5,0 119.5,-20"/>
<text xml:space="preserve" text-anchor="middle" x="89" y="-6.5" font-family="Helvetica,sans-Serif" font-size="10.00">filesystem</text>
</a>
</g>
</g>
<!-- Node9&#45;&gt;Node11 -->
<g id="edge14_Node000009_Node000011" class="edge">
<title>Node9&#45;&gt;Node11</title>
<g id="a_edge14_Node000009_Node000011"><a xlink:title=" ">
<path fill="none" stroke="#63b8ff" d="M120.38,-55.59C115.31,-48.39 108.16,-38.23 101.97,-29.43"/>
<polygon fill="#63b8ff" stroke="#63b8ff" points="105.03,-27.7 96.41,-21.54 99.31,-31.73 105.03,-27.7"/>
</a>
</g>
</g>
<!-- Node12 -->
<g id="Node000012" class="node">
<title>Node12</title>
<g id="a_Node000012"><a xlink:title=" ">
<polygon fill="#e0e0e0" stroke="#999999" points="186.5,-20 137.5,-20 137.5,0 186.5,0 186.5,-20"/>
<text xml:space="preserve" text-anchor="middle" x="162" y="-6.5" font-family="Helvetica,sans-Serif" font-size="10.00">fstream</text>
</a>
</g>
</g>
<!-- Node9&#45;&gt;Node12 -->
<g id="edge15_Node000009_Node000012" class="edge">
<title>Node9&#45;&gt;Node12</title>
<g id="a_edge15_Node000009_Node000012"><a xlink:title=" ">
<path fill="none" stroke="#63b8ff" d="M133.1,-55.59C137.71,-48.47 144.21,-38.45 149.87,-29.72"/>
<polygon fill="#63b8ff" stroke="#63b8ff" points="152.65,-31.86 155.15,-21.57 146.77,-28.06 152.65,-31.86"/>
</a>
</g>
</g>
<!-- Node13 -->
<g id="Node000013" class="node">
<title>Node13</title>
<g id="a_Node000013"><a xlink:title=" ">
<polygon fill="#e0e0e0" stroke="#999999" points="40,-20 0,-20 0,0 40,0 40,-20"/>
<text xml:space="preserve" text-anchor="middle" x="20" y="-6.5" font-family="Helvetica,sans-Serif" font-size="10.00">regex</text>
</a>
</g>
</g>
<!-- Node9&#45;&gt;Node13 -->
<g id="edge16_Node000009_Node000013" class="edge">
<title>Node9&#45;&gt;Node13</title>
<g id="a_edge16_Node000009_Node000013"><a xlink:title=" ">
<path fill="none" stroke="#63b8ff" d="M108.36,-55.59C91.97,-47.32 67.84,-35.14 48.94,-25.6"/>
<polygon fill="#63b8ff" stroke="#63b8ff" points="50.64,-22.54 40.13,-21.16 47.49,-28.79 50.64,-22.54"/>
</a>
</g>
</g>
<!-- Node14&#45;&gt;Node3 -->
<g id="edge18_Node000014_Node000003" class="edge">
<title>Node14&#45;&gt;Node3</title>
<g id="a_edge18_Node000014_Node000003"><a xlink:title=" ">
<path fill="none" stroke="#63b8ff" d="M474.71,-167.84C449.77,-159.15 412.04,-146.01 383.87,-136.19"/>
<polygon fill="#63b8ff" stroke="#63b8ff" points="385.23,-132.96 374.63,-132.98 382.93,-139.57 385.23,-132.96"/>
</a>
</g>
</g>
<!-- Node14&#45;&gt;Node6 -->
<g id="edge20_Node000014_Node000006" class="edge">
<title>Node14&#45;&gt;Node6</title>
<g id="a_edge20_Node000014_Node000006"><a xlink:title=" ">
<path fill="none" stroke="#63b8ff" d="M527.23,-174.61C573.88,-169.77 668.26,-157.05 688,-132 714.91,-97.84 670.09,-51.71 641.29,-27.46"/>
<polygon fill="#63b8ff" stroke="#63b8ff" points="643.76,-24.96 633.79,-21.36 639.34,-30.39 643.76,-24.96"/>
</a>
</g>
</g>
<!-- Node14&#45;&gt;Node10 -->
<g id="edge19_Node000014_Node000010" class="edge">
<title>Node14&#45;&gt;Node10</title>
<g id="a_edge19_Node000014_Node000010"><a xlink:title=" ">
<path fill="none" stroke="#63b8ff" d="M474.78,-167.66C459.02,-160.52 440.28,-148.99 431,-132 402.36,-79.54 504.3,-92.23 515,-76 526.32,-58.83 508.95,-39.85 492.21,-26.85"/>
<polygon fill="#63b8ff" stroke="#63b8ff" points="494.54,-24.22 484.39,-21.18 490.44,-29.88 494.54,-24.22"/>
</a>
</g>
</g>
<!-- Node15 -->
<g id="Node000015" class="node">
<title>Node15</title>
<g id="a_Node000015"><a xlink:title=" ">
<polygon fill="#e0e0e0" stroke="#999999" points="556.5,-132 513.5,-132 513.5,-112 556.5,-112 556.5,-132"/>
<text xml:space="preserve" text-anchor="middle" x="535" y="-118.5" font-family="Helvetica,sans-Serif" font-size="10.00">thread</text>
</a>
</g>
</g>
<!-- Node14&#45;&gt;Node15 -->
<g id="edge21_Node000014_Node000015" class="edge">
<title>Node14&#45;&gt;Node15</title>
<g id="a_edge21_Node000014_Node000015"><a xlink:title=" ">
<path fill="none" stroke="#63b8ff" d="M506.92,-167.59C511.36,-160.55 517.58,-150.67 523.04,-142"/>
<polygon fill="#63b8ff" stroke="#63b8ff" points="525.97,-143.91 528.34,-133.58 520.05,-140.18 525.97,-143.91"/>
</a>
</g>
</g>
<!-- Node16 -->
<g id="Node000016" class="node">
<title>Node16</title>
<g id="a_Node000016"><a xlink:title=" ">
<polygon fill="#e0e0e0" stroke="#999999" points="615.38,-132 574.62,-132 574.62,-112 615.38,-112 615.38,-132"/>
<text xml:space="preserve" text-anchor="middle" x="595" y="-118.5" font-family="Helvetica,sans-Serif" font-size="10.00">future</text>
</a>
</g>
</g>
<!-- Node14&#45;&gt;Node16 -->
<g id="edge22_Node000014_Node000016" class="edge">
<title>Node14&#45;&gt;Node16</title>
<g id="a_edge22_Node000014_Node000016"><a xlink:title=" ">
<path fill="none" stroke="#63b8ff" d="M517.37,-167.59C531.57,-159.44 552.38,-147.48 568.88,-138"/>
<polygon fill="#63b8ff" stroke="#63b8ff" points="570.26,-141.25 577.19,-133.23 566.77,-135.18 570.26,-141.25"/>
</a>
</g>
</g>
<!-- Node17 -->
<g id="Node000017" class="node">
<title>Node17</title>
<g id="a_Node000017"><a xlink:title=" ">
<polygon fill="#e0e0e0" stroke="#999999" points="678.62,-132 633.38,-132 633.38,-112 678.62,-112 678.62,-132"/>
<text xml:space="preserve" text-anchor="middle" x="656" y="-118.5" font-family="Helvetica,sans-Serif" font-size="10.00">chrono</text>
</a>
</g>
</g>
<!-- Node14&#45;&gt;Node17 -->
<g id="edge23_Node000014_Node000017" class="edge">
<title>Node14&#45;&gt;Node17</title>
<g id="a_edge23_Node000014_Node000017"><a xlink:title=" ">
<path fill="none" stroke="#63b8ff" d="M527.29,-167.84C553.52,-158.7 593.92,-144.63 622.45,-134.69"/>
<polygon fill="#63b8ff" stroke="#63b8ff" points="623.4,-138.06 631.69,-131.47 621.09,-131.45 623.4,-138.06"/>
</a>
</g>
</g>
<!-- Node18 -->
<g id="Node000018" class="node">
<title>Node18</title>
<g id="a_Node000018"><a xlink:title=" ">
<polygon fill="#e0e0e0" stroke="#999999" points="495.88,-132 440.12,-132 440.12,-112 495.88,-112 495.88,-132"/>
<text xml:space="preserve" text-anchor="middle" x="468" y="-118.5" font-family="Helvetica,sans-Serif" font-size="10.00">concepts</text>
</a>
</g>
</g>
<!-- Node14&#45;&gt;Node18 -->
<g id="edge24_Node000014_Node000018" class="edge">
<title>Node14&#45;&gt;Node18</title>
<g id="a_edge24_Node000014_Node000018"><a xlink:title=" ">
<path fill="none" stroke="#63b8ff" d="M495.25,-167.59C490.95,-160.55 484.91,-150.67 479.61,-142"/>
<polygon fill="#63b8ff" stroke="#63b8ff" points="482.67,-140.3 474.47,-133.59 476.7,-143.95 482.67,-140.3"/>
</a>
</g>
</g>
</g>
</svg>
