<?xml version="1.0" encoding="UTF-8" standalone="no"?>
<!DOCTYPE svg PUBLIC "-//W3C//DTD SVG 1.1//EN"
 "http://www.w3.org/Graphics/SVG/1.1/DTD/svg11.dtd">
<!-- Generated by graphviz version 13.0.1 (20250615.1724)
 -->
<!-- Title: GameSession.cpp Pages: 1 -->
<svg width="921pt" height="308pt"
 viewBox="0.00 0.00 921.00 308.00" xmlns="http://www.w3.org/2000/svg" xmlns:xlink="http://www.w3.org/1999/xlink">
<g id="graph0" class="graph" transform="scale(1 1) rotate(0) translate(4 304)">
<title>GameSession.cpp</title>
<!-- Node1 -->
<g id="Node000001" class="node">
<title>Node1</title>
<g id="a_Node000001"><a xlink:title=" ">
<polygon fill="#999999" stroke="#666666" points="611.88,-300 515.62,-300 515.62,-280 611.88,-280 611.88,-300"/>
<text xml:space="preserve" text-anchor="middle" x="563.75" y="-286.5" font-family="Helvetica,sans-Serif" font-size="10.00">GameSession.cpp</text>
</a>
</g>
</g>
<!-- Node2 -->
<g id="Node000002" class="node">
<title>Node2</title>
<g id="a_Node000002"><a xlink:href="_game_session_8h.html" target="_top" xlink:title=" ">
<polygon fill="white" stroke="#666666" points="333.62,-244 247.88,-244 247.88,-224 333.62,-224 333.62,-244"/>
<text xml:space="preserve" text-anchor="middle" x="290.75" y="-230.5" font-family="Helvetica,sans-Serif" font-size="10.00">GameSession.h</text>
</a>
</g>
</g>
<!-- Node1&#45;&gt;Node2 -->
<g id="edge1_Node000001_Node000002" class="edge">
<title>Node1&#45;&gt;Node2</title>
<g id="a_edge1_Node000001_Node000002"><a xlink:title=" ">
<path fill="none" stroke="#63b8ff" d="M515.88,-279.53C468.22,-270.1 395.14,-255.65 345.26,-245.78"/>
<polygon fill="#63b8ff" stroke="#63b8ff" points="346.03,-242.37 335.54,-243.86 344.67,-249.23 346.03,-242.37"/>
</a>
</g>
</g>
<!-- Node8 -->
<g id="Node000008" class="node">
<title>Node8</title>
<g id="a_Node000008"><a xlink:title=" ">
<polygon fill="#e0e0e0" stroke="#999999" points="53.5,-76 0,-76 0,-56 53.5,-56 53.5,-76"/>
<text xml:space="preserve" text-anchor="middle" x="26.75" y="-62.5" font-family="Helvetica,sans-Serif" font-size="10.00">iostream</text>
</a>
</g>
</g>
<!-- Node1&#45;&gt;Node8 -->
<g id="edge29_Node000001_Node000008" class="edge">
<title>Node1&#45;&gt;Node8</title>
<g id="a_edge29_Node000001_Node000008"><a xlink:title=" ">
<path fill="none" stroke="#63b8ff" d="M515.25,-287.1C428.5,-283.05 250.69,-271.57 195.75,-244 121.79,-206.88 62.54,-123.79 38.43,-86.16"/>
<polygon fill="#63b8ff" stroke="#63b8ff" points="41.42,-84.34 33.15,-77.72 35.49,-88.05 41.42,-84.34"/>
</a>
</g>
</g>
<!-- Node9 -->
<g id="Node000009" class="node">
<title>Node9</title>
<g id="a_Node000009"><a xlink:title=" ">
<polygon fill="#e0e0e0" stroke="#999999" points="451.62,-76 395.88,-76 395.88,-56 451.62,-56 451.62,-76"/>
<text xml:space="preserve" text-anchor="middle" x="423.75" y="-62.5" font-family="Helvetica,sans-Serif" font-size="10.00">algorithm</text>
</a>
</g>
</g>
<!-- Node1&#45;&gt;Node9 -->
<g id="edge33_Node000001_Node000009" class="edge">
<title>Node1&#45;&gt;Node9</title>
<g id="a_edge33_Node000001_Node000009"><a xlink:title=" ">
<path fill="none" stroke="#63b8ff" d="M557.91,-279.74C536.83,-246.32 464.37,-131.42 435.63,-85.84"/>
<polygon fill="#63b8ff" stroke="#63b8ff" points="438.71,-84.17 430.42,-77.58 432.79,-87.9 438.71,-84.17"/>
</a>
</g>
</g>
<!-- Node10 -->
<g id="Node000010" class="node">
<title>Node10</title>
<g id="a_Node000010"><a xlink:href="_game_utils_8h.html" target="_top" xlink:title=" ">
<polygon fill="white" stroke="#666666" points="142.12,-76 71.38,-76 71.38,-56 142.12,-56 142.12,-76"/>
<text xml:space="preserve" text-anchor="middle" x="106.75" y="-62.5" font-family="Helvetica,sans-Serif" font-size="10.00">GameUtils.h</text>
</a>
</g>
</g>
<!-- Node1&#45;&gt;Node10 -->
<g id="edge35_Node000001_Node000010" class="edge">
<title>Node1&#45;&gt;Node10</title>
<g id="a_edge35_Node000001_Node000010"><a xlink:title=" ">
<path fill="none" stroke="#63b8ff" d="M515.37,-285.47C437.33,-279.24 287.48,-264.96 238.75,-244 174.66,-216.43 160.55,-194.1 128.75,-132 121.42,-117.7 115.71,-100.42 111.94,-87.27"/>
<polygon fill="#63b8ff" stroke="#63b8ff" points="115.33,-86.37 109.34,-77.63 108.57,-88.2 115.33,-86.37"/>
</a>
</g>
</g>
<!-- Node11 -->
<g id="Node000011" class="node">
<title>Node11</title>
<g id="a_Node000011"><a xlink:title=" ">
<polygon fill="#e0e0e0" stroke="#999999" points="698.75,-20 658.75,-20 658.75,0 698.75,0 698.75,-20"/>
<text xml:space="preserve" text-anchor="middle" x="678.75" y="-6.5" font-family="Helvetica,sans-Serif" font-size="10.00">string</text>
</a>
</g>
</g>
<!-- Node1&#45;&gt;Node11 -->
<g id="edge30_Node000001_Node000011" class="edge">
<title>Node1&#45;&gt;Node11</title>
<g id="a_edge30_Node000001_Node000011"><a xlink:title=" ">
<path fill="none" stroke="#63b8ff" d="M612.17,-280.17C691.82,-264.24 841.75,-227.79 841.75,-179 841.75,-179 841.75,-179 841.75,-121 841.75,-58.21 757.62,-28.87 710.24,-17.32"/>
<polygon fill="#63b8ff" stroke="#63b8ff" points="711.07,-13.92 700.54,-15.09 709.51,-20.74 711.07,-13.92"/>
</a>
</g>
</g>
<!-- Node16 -->
<g id="Node000016" class="node">
<title>Node16</title>
<g id="a_Node000016"><a xlink:title=" ">
<polygon fill="#e0e0e0" stroke="#999999" points="750.25,-132 707.25,-132 707.25,-112 750.25,-112 750.25,-132"/>
<text xml:space="preserve" text-anchor="middle" x="728.75" y="-118.5" font-family="Helvetica,sans-Serif" font-size="10.00">thread</text>
</a>
</g>
</g>
<!-- Node1&#45;&gt;Node16 -->
<g id="edge32_Node000001_Node000016" class="edge">
<title>Node1&#45;&gt;Node16</title>
<g id="a_edge32_Node000001_Node000016"><a xlink:title=" ">
<path fill="none" stroke="#63b8ff" d="M573.09,-279.6C599.87,-252.66 677.15,-174.92 711.7,-140.15"/>
<polygon fill="#63b8ff" stroke="#63b8ff" points="713.87,-142.93 718.44,-133.37 708.91,-138 713.87,-142.93"/>
</a>
</g>
</g>
<!-- Node18 -->
<g id="Node000018" class="node">
<title>Node18</title>
<g id="a_Node000018"><a xlink:title=" ">
<polygon fill="#e0e0e0" stroke="#999999" points="813.38,-132 768.12,-132 768.12,-112 813.38,-112 813.38,-132"/>
<text xml:space="preserve" text-anchor="middle" x="790.75" y="-118.5" font-family="Helvetica,sans-Serif" font-size="10.00">chrono</text>
</a>
</g>
</g>
<!-- Node1&#45;&gt;Node18 -->
<g id="edge31_Node000001_Node000018" class="edge">
<title>Node1&#45;&gt;Node18</title>
<g id="a_edge31_Node000001_Node000018"><a xlink:title=" ">
<path fill="none" stroke="#63b8ff" d="M578.29,-279.57C591.97,-270.63 612.95,-256.69 630.75,-244 681.67,-207.69 739.88,-162.79 770.09,-139.21"/>
<polygon fill="#63b8ff" stroke="#63b8ff" points="771.96,-142.19 777.69,-133.27 767.65,-136.68 771.96,-142.19"/>
</a>
</g>
</g>
<!-- Node21 -->
<g id="Node000021" class="node">
<title>Node21</title>
<g id="a_Node000021"><a xlink:title=" ">
<polygon fill="#e0e0e0" stroke="#999999" points="913.25,-244 870.25,-244 870.25,-224 913.25,-224 913.25,-244"/>
<text xml:space="preserve" text-anchor="middle" x="891.75" y="-230.5" font-family="Helvetica,sans-Serif" font-size="10.00">cmath</text>
</a>
</g>
</g>
<!-- Node1&#45;&gt;Node21 -->
<g id="edge34_Node000001_Node000021" class="edge">
<title>Node1&#45;&gt;Node21</title>
<g id="a_edge34_Node000001_Node000021"><a xlink:title=" ">
<path fill="none" stroke="#63b8ff" d="M612.3,-282.91C670.44,-275.3 770.65,-261.16 855.75,-244 856.92,-243.76 858.11,-243.52 859.3,-243.26"/>
<polygon fill="#63b8ff" stroke="#63b8ff" points="859.7,-246.76 868.65,-241.09 858.11,-239.94 859.7,-246.76"/>
</a>
</g>
</g>
<!-- Node3 -->
<g id="Node000003" class="node">
<title>Node3</title>
<g id="a_Node000003"><a xlink:title=" ">
<polygon fill="#e0e0e0" stroke="#999999" points="280.5,-20 233,-20 233,0 280.5,0 280.5,-20"/>
<text xml:space="preserve" text-anchor="middle" x="256.75" y="-6.5" font-family="Helvetica,sans-Serif" font-size="10.00">raylib.h</text>
</a>
</g>
</g>
<!-- Node2&#45;&gt;Node3 -->
<g id="edge2_Node000002_Node000003" class="edge">
<title>Node2&#45;&gt;Node3</title>
<g id="a_edge2_Node000002_Node000003"><a xlink:title=" ">
<path fill="none" stroke="#63b8ff" d="M289.33,-223.74C284.28,-190.74 267.06,-78.31 259.91,-31.61"/>
<polygon fill="#63b8ff" stroke="#63b8ff" points="263.38,-31.15 258.4,-21.79 256.46,-32.21 263.38,-31.15"/>
</a>
</g>
</g>
<!-- Node4 -->
<g id="Node000004" class="node">
<title>Node4</title>
<g id="a_Node000004"><a xlink:href="_game_board_8h.html" target="_top" xlink:title=" ">
<polygon fill="white" stroke="#666666" points="256.75,-132 180.75,-132 180.75,-112 256.75,-112 256.75,-132"/>
<text xml:space="preserve" text-anchor="middle" x="218.75" y="-118.5" font-family="Helvetica,sans-Serif" font-size="10.00">GameBoard.h</text>
</a>
</g>
</g>
<!-- Node2&#45;&gt;Node4 -->
<g id="edge3_Node000002_Node000004" class="edge">
<title>Node2&#45;&gt;Node4</title>
<g id="a_edge3_Node000002_Node000004"><a xlink:title=" ">
<path fill="none" stroke="#63b8ff" d="M251.76,-223.54C233.21,-216.88 212.72,-205.85 201.75,-188 193.17,-174.04 199.12,-155.84 206.24,-142.24"/>
<polygon fill="#63b8ff" stroke="#63b8ff" points="209.15,-144.2 211.18,-133.81 203.11,-140.67 209.15,-144.2"/>
</a>
</g>
</g>
<!-- Node7 -->
<g id="Node000007" class="node">
<title>Node7</title>
<g id="a_Node000007"><a xlink:title=" ">
<polygon fill="#e0e0e0" stroke="#999999" points="445.25,-20 402.25,-20 402.25,0 445.25,0 445.25,-20"/>
<text xml:space="preserve" text-anchor="middle" x="423.75" y="-6.5" font-family="Helvetica,sans-Serif" font-size="10.00">vector</text>
</a>
</g>
</g>
<!-- Node2&#45;&gt;Node7 -->
<g id="edge28_Node000002_Node000007" class="edge">
<title>Node2&#45;&gt;Node7</title>
<g id="a_edge28_Node000002_Node000007"><a xlink:title=" ">
<path fill="none" stroke="#63b8ff" d="M308.34,-223.54C345.03,-202.67 428.94,-148.69 460.75,-76 468.11,-59.18 456.06,-41.12 443.79,-28.31"/>
<polygon fill="#63b8ff" stroke="#63b8ff" points="446.23,-25.8 436.59,-21.41 441.39,-30.86 446.23,-25.8"/>
</a>
</g>
</g>
<!-- Node2&#45;&gt;Node10 -->
<g id="edge26_Node000002_Node000010" class="edge">
<title>Node2&#45;&gt;Node10</title>
<g id="a_edge26_Node000002_Node000010"><a xlink:title=" ">
<path fill="none" stroke="#63b8ff" d="M260.51,-223.54C240.14,-216.13 213.49,-204.32 193.75,-188 158.66,-158.99 130.71,-112.69 116.66,-86.58"/>
<polygon fill="#63b8ff" stroke="#63b8ff" points="119.79,-85.02 112.05,-77.78 113.58,-88.26 119.79,-85.02"/>
</a>
</g>
</g>
<!-- Node15 -->
<g id="Node000015" class="node">
<title>Node15</title>
<g id="a_Node000015"><a xlink:href="_player_8h.html" target="_top" xlink:title=" ">
<polygon fill="white" stroke="#666666" points="610.75,-188 558.75,-188 558.75,-168 610.75,-168 610.75,-188"/>
<text xml:space="preserve" text-anchor="middle" x="584.75" y="-174.5" font-family="Helvetica,sans-Serif" font-size="10.00">Player.h</text>
</a>
</g>
</g>
<!-- Node2&#45;&gt;Node15 -->
<g id="edge18_Node000002_Node000015" class="edge">
<title>Node2&#45;&gt;Node15</title>
<g id="a_edge18_Node000002_Node000015"><a xlink:title=" ">
<path fill="none" stroke="#63b8ff" d="M333.81,-225.09C391.47,-214.5 492.79,-195.89 547.39,-185.86"/>
<polygon fill="#63b8ff" stroke="#63b8ff" points="547.92,-189.32 557.12,-184.07 546.66,-182.44 547.92,-189.32"/>
</a>
</g>
</g>
<!-- Node20 -->
<g id="Node000020" class="node">
<title>Node20</title>
<g id="a_Node000020"><a xlink:title=" ">
<polygon fill="#e0e0e0" stroke="#999999" points="262.38,-188 211.12,-188 211.12,-168 262.38,-168 262.38,-188"/>
<text xml:space="preserve" text-anchor="middle" x="236.75" y="-174.5" font-family="Helvetica,sans-Serif" font-size="10.00">memory</text>
</a>
</g>
</g>
<!-- Node2&#45;&gt;Node20 -->
<g id="edge27_Node000002_Node000020" class="edge">
<title>Node2&#45;&gt;Node20</title>
<g id="a_edge27_Node000002_Node000020"><a xlink:title=" ">
<path fill="none" stroke="#63b8ff" d="M281.34,-223.59C273.83,-216.08 263.1,-205.35 254.05,-196.3"/>
<polygon fill="#63b8ff" stroke="#63b8ff" points="256.66,-193.96 247.12,-189.37 251.71,-198.91 256.66,-193.96"/>
</a>
</g>
</g>
<!-- Node4&#45;&gt;Node3 -->
<g id="edge4_Node000004_Node000003" class="edge">
<title>Node4&#45;&gt;Node3</title>
<g id="a_edge4_Node000004_Node000003"><a xlink:title=" ">
<path fill="none" stroke="#63b8ff" d="M208.76,-111.57C196.46,-98.77 178.4,-75.27 188.75,-56 196.05,-42.42 209.44,-32.25 222.42,-25.05"/>
<polygon fill="#63b8ff" stroke="#63b8ff" points="223.92,-28.21 231.27,-20.58 220.77,-21.96 223.92,-28.21"/>
</a>
</g>
</g>
<!-- Node5 -->
<g id="Node000005" class="node">
<title>Node5</title>
<g id="a_Node000005"><a xlink:href="_cell_8h.html" target="_top" xlink:title=" ">
<polygon fill="white" stroke="#666666" points="239.5,-76 198,-76 198,-56 239.5,-56 239.5,-76"/>
<text xml:space="preserve" text-anchor="middle" x="218.75" y="-62.5" font-family="Helvetica,sans-Serif" font-size="10.00">Cell.h</text>
</a>
</g>
</g>
<!-- Node4&#45;&gt;Node5 -->
<g id="edge5_Node000004_Node000005" class="edge">
<title>Node4&#45;&gt;Node5</title>
<g id="a_edge5_Node000004_Node000005"><a xlink:title=" ">
<path fill="none" stroke="#63b8ff" d="M218.75,-111.59C218.75,-105.01 218.75,-95.96 218.75,-87.73"/>
<polygon fill="#63b8ff" stroke="#63b8ff" points="222.25,-87.81 218.75,-77.81 215.25,-87.81 222.25,-87.81"/>
</a>
</g>
</g>
<!-- Node6 -->
<g id="Node000006" class="node">
<title>Node6</title>
<g id="a_Node000006"><a xlink:href="_ship_8h.html" target="_top" xlink:title=" ">
<polygon fill="white" stroke="#666666" points="339.62,-76 295.88,-76 295.88,-56 339.62,-56 339.62,-76"/>
<text xml:space="preserve" text-anchor="middle" x="317.75" y="-62.5" font-family="Helvetica,sans-Serif" font-size="10.00">Ship.h</text>
</a>
</g>
</g>
<!-- Node4&#45;&gt;Node6 -->
<g id="edge6_Node000004_Node000006" class="edge">
<title>Node4&#45;&gt;Node6</title>
<g id="a_edge6_Node000004_Node000006"><a xlink:title=" ">
<path fill="none" stroke="#63b8ff" d="M235.99,-111.59C251.09,-103.36 273.28,-91.26 290.73,-81.74"/>
<polygon fill="#63b8ff" stroke="#63b8ff" points="291.94,-85.07 299.04,-77.2 288.59,-78.92 291.94,-85.07"/>
</a>
</g>
</g>
<!-- Node4&#45;&gt;Node7 -->
<g id="edge9_Node000004_Node000007" class="edge">
<title>Node4&#45;&gt;Node7</title>
<g id="a_edge9_Node000004_Node000007"><a xlink:title=" ">
<path fill="none" stroke="#63b8ff" d="M257.09,-111.88C283.89,-104.53 319.9,-92.66 348.75,-76 371.24,-63.01 393.24,-42.79 407.54,-28.35"/>
<polygon fill="#63b8ff" stroke="#63b8ff" points="409.9,-30.94 414.33,-21.31 404.87,-26.08 409.9,-30.94"/>
</a>
</g>
</g>
<!-- Node4&#45;&gt;Node8 -->
<g id="edge10_Node000004_Node000008" class="edge">
<title>Node4&#45;&gt;Node8</title>
<g id="a_edge10_Node000004_Node000008"><a xlink:title=" ">
<path fill="none" stroke="#63b8ff" d="M185.31,-111.59C151.67,-102.13 99.87,-87.57 64.71,-77.68"/>
<polygon fill="#63b8ff" stroke="#63b8ff" points="65.95,-74.39 55.38,-75.05 64.06,-81.13 65.95,-74.39"/>
</a>
</g>
</g>
<!-- Node4&#45;&gt;Node9 -->
<g id="edge11_Node000004_Node000009" class="edge">
<title>Node4&#45;&gt;Node9</title>
<g id="a_edge11_Node000004_Node000009"><a xlink:title=" ">
<path fill="none" stroke="#63b8ff" d="M254.46,-111.59C290.84,-102.01 347.12,-87.19 384.68,-77.29"/>
<polygon fill="#63b8ff" stroke="#63b8ff" points="385.45,-80.71 394.23,-74.78 383.66,-73.94 385.45,-80.71"/>
</a>
</g>
</g>
<!-- Node4&#45;&gt;Node10 -->
<g id="edge12_Node000004_Node000010" class="edge">
<title>Node4&#45;&gt;Node10</title>
<g id="a_edge12_Node000004_Node000010"><a xlink:title=" ">
<path fill="none" stroke="#63b8ff" d="M199.24,-111.59C182,-103.28 156.59,-91.03 136.76,-81.47"/>
<polygon fill="#63b8ff" stroke="#63b8ff" points="138.3,-78.33 127.77,-77.14 135.26,-84.63 138.3,-78.33"/>
</a>
</g>
</g>
<!-- Node6&#45;&gt;Node3 -->
<g id="edge7_Node000006_Node000003" class="edge">
<title>Node6&#45;&gt;Node3</title>
<g id="a_edge7_Node000006_Node000003"><a xlink:title=" ">
<path fill="none" stroke="#63b8ff" d="M307.12,-55.59C298.47,-47.93 286.02,-36.91 275.67,-27.75"/>
<polygon fill="#63b8ff" stroke="#63b8ff" points="278.19,-25.31 268.39,-21.3 273.55,-30.55 278.19,-25.31"/>
</a>
</g>
</g>
<!-- Node6&#45;&gt;Node7 -->
<g id="edge8_Node000006_Node000007" class="edge">
<title>Node6&#45;&gt;Node7</title>
<g id="a_edge8_Node000006_Node000007"><a xlink:title=" ">
<path fill="none" stroke="#63b8ff" d="M336.21,-55.59C352.45,-47.32 376.36,-35.14 395.08,-25.6"/>
<polygon fill="#63b8ff" stroke="#63b8ff" points="396.47,-28.82 403.79,-21.17 393.29,-22.59 396.47,-28.82"/>
</a>
</g>
</g>
<!-- Node10&#45;&gt;Node3 -->
<g id="edge13_Node000010_Node000003" class="edge">
<title>Node10&#45;&gt;Node3</title>
<g id="a_edge13_Node000010_Node000003"><a xlink:title=" ">
<path fill="none" stroke="#63b8ff" d="M132.88,-55.59C157.67,-46.67 195.07,-33.21 222.29,-23.41"/>
<polygon fill="#63b8ff" stroke="#63b8ff" points="223.25,-26.78 231.48,-20.1 220.88,-20.19 223.25,-26.78"/>
</a>
</g>
</g>
<!-- Node10&#45;&gt;Node11 -->
<g id="edge14_Node000010_Node000011" class="edge">
<title>Node10&#45;&gt;Node11</title>
<g id="a_edge14_Node000010_Node000011"><a xlink:title=" ">
<path fill="none" stroke="#63b8ff" d="M142.25,-60.96C156.68,-59.36 173.5,-57.54 188.75,-56 361.81,-38.56 569.54,-20.39 647.33,-13.69"/>
<polygon fill="#63b8ff" stroke="#63b8ff" points="647.5,-17.19 657.16,-12.85 646.9,-10.22 647.5,-17.19"/>
</a>
</g>
</g>
<!-- Node12 -->
<g id="Node000012" class="node">
<title>Node12</title>
<g id="a_Node000012"><a xlink:title=" ">
<polygon fill="#e0e0e0" stroke="#999999" points="137.25,-20 76.25,-20 76.25,0 137.25,0 137.25,-20"/>
<text xml:space="preserve" text-anchor="middle" x="106.75" y="-6.5" font-family="Helvetica,sans-Serif" font-size="10.00">filesystem</text>
</a>
</g>
</g>
<!-- Node10&#45;&gt;Node12 -->
<g id="edge15_Node000010_Node000012" class="edge">
<title>Node10&#45;&gt;Node12</title>
<g id="a_edge15_Node000010_Node000012"><a xlink:title=" ">
<path fill="none" stroke="#63b8ff" d="M106.75,-55.59C106.75,-49.01 106.75,-39.96 106.75,-31.73"/>
<polygon fill="#63b8ff" stroke="#63b8ff" points="110.25,-31.81 106.75,-21.81 103.25,-31.81 110.25,-31.81"/>
</a>
</g>
</g>
<!-- Node13 -->
<g id="Node000013" class="node">
<title>Node13</title>
<g id="a_Node000013"><a xlink:title=" ">
<polygon fill="#e0e0e0" stroke="#999999" points="204.25,-20 155.25,-20 155.25,0 204.25,0 204.25,-20"/>
<text xml:space="preserve" text-anchor="middle" x="179.75" y="-6.5" font-family="Helvetica,sans-Serif" font-size="10.00">fstream</text>
</a>
</g>
</g>
<!-- Node10&#45;&gt;Node13 -->
<g id="edge16_Node000010_Node000013" class="edge">
<title>Node10&#45;&gt;Node13</title>
<g id="a_edge16_Node000010_Node000013"><a xlink:title=" ">
<path fill="none" stroke="#63b8ff" d="M119.47,-55.59C130.14,-47.7 145.63,-36.24 158.23,-26.92"/>
<polygon fill="#63b8ff" stroke="#63b8ff" points="160.01,-29.96 165.96,-21.2 155.84,-24.33 160.01,-29.96"/>
</a>
</g>
</g>
<!-- Node14 -->
<g id="Node000014" class="node">
<title>Node14</title>
<g id="a_Node000014"><a xlink:title=" ">
<polygon fill="#e0e0e0" stroke="#999999" points="57.75,-20 17.75,-20 17.75,0 57.75,0 57.75,-20"/>
<text xml:space="preserve" text-anchor="middle" x="37.75" y="-6.5" font-family="Helvetica,sans-Serif" font-size="10.00">regex</text>
</a>
</g>
</g>
<!-- Node10&#45;&gt;Node14 -->
<g id="edge17_Node000010_Node000014" class="edge">
<title>Node10&#45;&gt;Node14</title>
<g id="a_edge17_Node000010_Node000014"><a xlink:title=" ">
<path fill="none" stroke="#63b8ff" d="M94.73,-55.59C84.74,-47.77 70.29,-36.46 58.44,-27.19"/>
<polygon fill="#63b8ff" stroke="#63b8ff" points="60.86,-24.64 50.82,-21.23 56.54,-30.15 60.86,-24.64"/>
</a>
</g>
</g>
<!-- Node15&#45;&gt;Node4 -->
<g id="edge19_Node000015_Node000004" class="edge">
<title>Node15&#45;&gt;Node4</title>
<g id="a_edge19_Node000015_Node000004"><a xlink:title=" ">
<path fill="none" stroke="#63b8ff" d="M558.43,-173.12C497.66,-164.15 346.78,-141.89 268.16,-130.29"/>
<polygon fill="#63b8ff" stroke="#63b8ff" points="269,-126.88 258.6,-128.88 267.98,-133.8 269,-126.88"/>
</a>
</g>
</g>
<!-- Node15&#45;&gt;Node7 -->
<g id="edge21_Node000015_Node000007" class="edge">
<title>Node15&#45;&gt;Node7</title>
<g id="a_edge21_Node000015_Node000007"><a xlink:title=" ">
<path fill="none" stroke="#63b8ff" d="M569,-167.59C556.47,-159.46 539.21,-146.72 527.75,-132 505.02,-102.8 517.87,-84.06 493.75,-56 483.02,-43.52 467.97,-33.23 454.58,-25.66"/>
<polygon fill="#63b8ff" stroke="#63b8ff" points="456.56,-22.75 446.09,-21.12 453.26,-28.92 456.56,-22.75"/>
</a>
</g>
</g>
<!-- Node15&#45;&gt;Node11 -->
<g id="edge20_Node000015_Node000011" class="edge">
<title>Node15&#45;&gt;Node11</title>
<g id="a_edge20_Node000015_Node000011"><a xlink:title=" ">
<path fill="none" stroke="#63b8ff" d="M611.13,-167.89C627.76,-160.75 648.21,-149.12 659.75,-132 680.19,-101.68 681.74,-57.5 680.56,-31.76"/>
<polygon fill="#63b8ff" stroke="#63b8ff" points="684.06,-31.7 679.9,-21.96 677.08,-32.17 684.06,-31.7"/>
</a>
</g>
</g>
<!-- Node15&#45;&gt;Node16 -->
<g id="edge22_Node000015_Node000016" class="edge">
<title>Node15&#45;&gt;Node16</title>
<g id="a_edge22_Node000015_Node000016"><a xlink:title=" ">
<path fill="none" stroke="#63b8ff" d="M609.83,-167.59C633.81,-158.6 670.07,-145.01 696.25,-135.19"/>
<polygon fill="#63b8ff" stroke="#63b8ff" points="697.23,-138.56 705.36,-131.77 694.77,-132 697.23,-138.56"/>
</a>
</g>
</g>
<!-- Node17 -->
<g id="Node000017" class="node">
<title>Node17</title>
<g id="a_Node000017"><a xlink:title=" ">
<polygon fill="#e0e0e0" stroke="#999999" points="651.12,-132 610.38,-132 610.38,-112 651.12,-112 651.12,-132"/>
<text xml:space="preserve" text-anchor="middle" x="630.75" y="-118.5" font-family="Helvetica,sans-Serif" font-size="10.00">future</text>
</a>
</g>
</g>
<!-- Node15&#45;&gt;Node17 -->
<g id="edge23_Node000015_Node000017" class="edge">
<title>Node15&#45;&gt;Node17</title>
<g id="a_edge23_Node000015_Node000017"><a xlink:title=" ">
<path fill="none" stroke="#63b8ff" d="M592.76,-167.59C599.03,-160.24 607.92,-149.8 615.53,-140.87"/>
<polygon fill="#63b8ff" stroke="#63b8ff" points="618.03,-143.33 621.85,-133.45 612.7,-138.79 618.03,-143.33"/>
</a>
</g>
</g>
<!-- Node15&#45;&gt;Node18 -->
<g id="edge24_Node000015_Node000018" class="edge">
<title>Node15&#45;&gt;Node18</title>
<g id="a_edge24_Node000015_Node000018"><a xlink:title=" ">
<path fill="none" stroke="#63b8ff" d="M611.2,-170.47C643.45,-162.45 699.88,-148.23 756.75,-132.77"/>
<polygon fill="#63b8ff" stroke="#63b8ff" points="757.56,-136.17 766.29,-130.16 755.72,-129.42 757.56,-136.17"/>
</a>
</g>
</g>
<!-- Node19 -->
<g id="Node000019" class="node">
<title>Node19</title>
<g id="a_Node000019"><a xlink:title=" ">
<polygon fill="#e0e0e0" stroke="#999999" points="592.62,-132 536.88,-132 536.88,-112 592.62,-112 592.62,-132"/>
<text xml:space="preserve" text-anchor="middle" x="564.75" y="-118.5" font-family="Helvetica,sans-Serif" font-size="10.00">concepts</text>
</a>
</g>
</g>
<!-- Node15&#45;&gt;Node19 -->
<g id="edge25_Node000015_Node000019" class="edge">
<title>Node15&#45;&gt;Node19</title>
<g id="a_edge25_Node000015_Node000019"><a xlink:title=" ">
<path fill="none" stroke="#63b8ff" d="M581.27,-167.59C578.74,-160.78 575.24,-151.32 572.11,-142.86"/>
<polygon fill="#63b8ff" stroke="#63b8ff" points="575.47,-141.88 568.72,-133.72 568.91,-144.31 575.47,-141.88"/>
</a>
</g>
</g>
</g>
</svg>
