<?xml version="1.0" encoding="UTF-8" standalone="no"?>
<!DOCTYPE svg PUBLIC "-//W3C//DTD SVG 1.1//EN"
 "http://www.w3.org/Graphics/SVG/1.1/DTD/svg11.dtd">
<!-- Generated by graphviz version 13.0.1 (20250615.1724)
 -->
<!-- Title: GameBoard.h Pages: 1 -->
<svg width="436pt" height="140pt"
 viewBox="0.00 0.00 436.00 140.00" xmlns="http://www.w3.org/2000/svg" xmlns:xlink="http://www.w3.org/1999/xlink">
<g id="graph0" class="graph" transform="scale(1 1) rotate(0) translate(4 136)">
<title>GameBoard.h</title>
<!-- Node1 -->
<g id="Node000001" class="node">
<title>Node1</title>
<g id="a_Node000001"><a xlink:title=" ">
<polygon fill="#999999" stroke="#666666" points="224.75,-132 148.75,-132 148.75,-112 224.75,-112 224.75,-132"/>
<text xml:space="preserve" text-anchor="middle" x="186.75" y="-118.5" font-family="Helvetica,sans-Serif" font-size="10.00">GameBoard.h</text>
</a>
</g>
</g>
<!-- Node2 -->
<g id="Node000002" class="node">
<title>Node2</title>
<g id="a_Node000002"><a xlink:title=" ">
<polygon fill="#e0e0e0" stroke="#999999" points="47.5,-20 0,-20 0,0 47.5,0 47.5,-20"/>
<text xml:space="preserve" text-anchor="middle" x="23.75" y="-6.5" font-family="Helvetica,sans-Serif" font-size="10.00">raylib.h</text>
</a>
</g>
</g>
<!-- Node1&#45;&gt;Node2 -->
<g id="edge1_Node000001_Node000002" class="edge">
<title>Node1&#45;&gt;Node2</title>
<g id="a_edge1_Node000001_Node000002"><a xlink:title=" ">
<path fill="none" stroke="#63b8ff" d="M148.25,-118.78C115.88,-114.88 70.55,-104.32 42.75,-76 31.16,-64.19 26.57,-45.71 24.79,-31.48"/>
<polygon fill="#63b8ff" stroke="#63b8ff" points="28.3,-31.5 23.97,-21.83 21.33,-32.09 28.3,-31.5"/>
</a>
</g>
</g>
<!-- Node3 -->
<g id="Node000003" class="node">
<title>Node3</title>
<g id="a_Node000003"><a xlink:href="_cell_8h.html" target="_top" xlink:title=" ">
<polygon fill="white" stroke="#666666" points="281.5,-76 240,-76 240,-56 281.5,-56 281.5,-76"/>
<text xml:space="preserve" text-anchor="middle" x="260.75" y="-62.5" font-family="Helvetica,sans-Serif" font-size="10.00">Cell.h</text>
</a>
</g>
</g>
<!-- Node1&#45;&gt;Node3 -->
<g id="edge2_Node000001_Node000003" class="edge">
<title>Node1&#45;&gt;Node3</title>
<g id="a_edge2_Node000001_Node000003"><a xlink:title=" ">
<path fill="none" stroke="#63b8ff" d="M199.64,-111.59C210.46,-103.7 226.16,-92.24 238.94,-82.92"/>
<polygon fill="#63b8ff" stroke="#63b8ff" points="240.77,-85.91 246.79,-77.19 236.64,-80.26 240.77,-85.91"/>
</a>
</g>
</g>
<!-- Node4 -->
<g id="Node000004" class="node">
<title>Node4</title>
<g id="a_Node000004"><a xlink:href="_ship_8h.html" target="_top" xlink:title=" ">
<polygon fill="white" stroke="#666666" points="95.62,-76 51.88,-76 51.88,-56 95.62,-56 95.62,-76"/>
<text xml:space="preserve" text-anchor="middle" x="73.75" y="-62.5" font-family="Helvetica,sans-Serif" font-size="10.00">Ship.h</text>
</a>
</g>
</g>
<!-- Node1&#45;&gt;Node4 -->
<g id="edge3_Node000001_Node000004" class="edge">
<title>Node1&#45;&gt;Node4</title>
<g id="a_edge3_Node000001_Node000004"><a xlink:title=" ">
<path fill="none" stroke="#63b8ff" d="M167.07,-111.59C149.59,-103.24 123.8,-90.92 103.75,-81.34"/>
<polygon fill="#63b8ff" stroke="#63b8ff" points="105.48,-78.29 94.95,-77.13 102.47,-84.6 105.48,-78.29"/>
</a>
</g>
</g>
<!-- Node5 -->
<g id="Node000005" class="node">
<title>Node5</title>
<g id="a_Node000005"><a xlink:title=" ">
<polygon fill="#e0e0e0" stroke="#999999" points="108.25,-20 65.25,-20 65.25,0 108.25,0 108.25,-20"/>
<text xml:space="preserve" text-anchor="middle" x="86.75" y="-6.5" font-family="Helvetica,sans-Serif" font-size="10.00">vector</text>
</a>
</g>
</g>
<!-- Node1&#45;&gt;Node5 -->
<g id="edge6_Node000001_Node000005" class="edge">
<title>Node1&#45;&gt;Node5</title>
<g id="a_edge6_Node000001_Node000005"><a xlink:title=" ">
<path fill="none" stroke="#63b8ff" d="M177.13,-111.51C168.09,-102.52 154.28,-88.56 142.75,-76 128.48,-60.46 112.86,-42.22 101.75,-29.02"/>
<polygon fill="#63b8ff" stroke="#63b8ff" points="104.62,-27 95.52,-21.58 99.25,-31.49 104.62,-27"/>
</a>
</g>
</g>
<!-- Node6 -->
<g id="Node000006" class="node">
<title>Node6</title>
<g id="a_Node000006"><a xlink:title=" ">
<polygon fill="#e0e0e0" stroke="#999999" points="353.5,-76 300,-76 300,-56 353.5,-56 353.5,-76"/>
<text xml:space="preserve" text-anchor="middle" x="326.75" y="-62.5" font-family="Helvetica,sans-Serif" font-size="10.00">iostream</text>
</a>
</g>
</g>
<!-- Node1&#45;&gt;Node6 -->
<g id="edge7_Node000001_Node000006" class="edge">
<title>Node1&#45;&gt;Node6</title>
<g id="a_edge7_Node000001_Node000006"><a xlink:title=" ">
<path fill="none" stroke="#63b8ff" d="M211.14,-111.59C233.38,-103.01 266.52,-90.23 291.62,-80.55"/>
<polygon fill="#63b8ff" stroke="#63b8ff" points="292.69,-83.89 300.76,-77.02 290.17,-77.36 292.69,-83.89"/>
</a>
</g>
</g>
<!-- Node7 -->
<g id="Node000007" class="node">
<title>Node7</title>
<g id="a_Node000007"><a xlink:title=" ">
<polygon fill="#e0e0e0" stroke="#999999" points="427.62,-76 371.88,-76 371.88,-56 427.62,-56 427.62,-76"/>
<text xml:space="preserve" text-anchor="middle" x="399.75" y="-62.5" font-family="Helvetica,sans-Serif" font-size="10.00">algorithm</text>
</a>
</g>
</g>
<!-- Node1&#45;&gt;Node7 -->
<g id="edge8_Node000001_Node000007" class="edge">
<title>Node1&#45;&gt;Node7</title>
<g id="a_edge8_Node000001_Node000007"><a xlink:title=" ">
<path fill="none" stroke="#63b8ff" d="M223.85,-111.59C262.15,-101.89 321.64,-86.8 360.65,-76.91"/>
<polygon fill="#63b8ff" stroke="#63b8ff" points="361.27,-80.37 370.1,-74.52 359.55,-73.58 361.27,-80.37"/>
</a>
</g>
</g>
<!-- Node8 -->
<g id="Node000008" class="node">
<title>Node8</title>
<g id="a_Node000008"><a xlink:href="_game_utils_8h.html" target="_top" xlink:title=" ">
<polygon fill="white" stroke="#666666" points="222.12,-76 151.38,-76 151.38,-56 222.12,-56 222.12,-76"/>
<text xml:space="preserve" text-anchor="middle" x="186.75" y="-62.5" font-family="Helvetica,sans-Serif" font-size="10.00">GameUtils.h</text>
</a>
</g>
</g>
<!-- Node1&#45;&gt;Node8 -->
<g id="edge9_Node000001_Node000008" class="edge">
<title>Node1&#45;&gt;Node8</title>
<g id="a_edge9_Node000001_Node000008"><a xlink:title=" ">
<path fill="none" stroke="#63b8ff" d="M186.75,-111.59C186.75,-105.01 186.75,-95.96 186.75,-87.73"/>
<polygon fill="#63b8ff" stroke="#63b8ff" points="190.25,-87.81 186.75,-77.81 183.25,-87.81 190.25,-87.81"/>
</a>
</g>
</g>
<!-- Node4&#45;&gt;Node2 -->
<g id="edge4_Node000004_Node000002" class="edge">
<title>Node4&#45;&gt;Node2</title>
<g id="a_edge4_Node000004_Node000002"><a xlink:title=" ">
<path fill="none" stroke="#63b8ff" d="M65.04,-55.59C58.16,-48.16 48.36,-37.58 40.03,-28.58"/>
<polygon fill="#63b8ff" stroke="#63b8ff" points="42.75,-26.37 33.39,-21.41 37.61,-31.12 42.75,-26.37"/>
</a>
</g>
</g>
<!-- Node4&#45;&gt;Node5 -->
<g id="edge5_Node000004_Node000005" class="edge">
<title>Node4&#45;&gt;Node5</title>
<g id="a_edge5_Node000004_Node000005"><a xlink:title=" ">
<path fill="none" stroke="#63b8ff" d="M76.01,-55.59C77.62,-48.93 79.83,-39.75 81.83,-31.44"/>
<polygon fill="#63b8ff" stroke="#63b8ff" points="85.22,-32.31 84.16,-21.77 78.41,-30.67 85.22,-32.31"/>
</a>
</g>
</g>
<!-- Node8&#45;&gt;Node2 -->
<g id="edge10_Node000008_Node000002" class="edge">
<title>Node8&#45;&gt;Node2</title>
<g id="a_edge10_Node000008_Node000002"><a xlink:title=" ">
<path fill="none" stroke="#63b8ff" d="M158.36,-55.59C130.62,-46.4 88.33,-32.4 58.58,-22.54"/>
<polygon fill="#63b8ff" stroke="#63b8ff" points="59.87,-19.28 49.28,-19.46 57.67,-25.92 59.87,-19.28"/>
</a>
</g>
</g>
<!-- Node9 -->
<g id="Node000009" class="node">
<title>Node9</title>
<g id="a_Node000009"><a xlink:title=" ">
<polygon fill="#e0e0e0" stroke="#999999" points="291.75,-20 251.75,-20 251.75,0 291.75,0 291.75,-20"/>
<text xml:space="preserve" text-anchor="middle" x="271.75" y="-6.5" font-family="Helvetica,sans-Serif" font-size="10.00">string</text>
</a>
</g>
</g>
<!-- Node8&#45;&gt;Node9 -->
<g id="edge11_Node000008_Node000009" class="edge">
<title>Node8&#45;&gt;Node9</title>
<g id="a_edge11_Node000008_Node000009"><a xlink:title=" ">
<path fill="none" stroke="#63b8ff" d="M201.56,-55.59C214.15,-47.59 232.5,-35.93 247.28,-26.54"/>
<polygon fill="#63b8ff" stroke="#63b8ff" points="248.99,-29.61 255.55,-21.29 245.23,-23.7 248.99,-29.61"/>
</a>
</g>
</g>
<!-- Node10 -->
<g id="Node000010" class="node">
<title>Node10</title>
<g id="a_Node000010"><a xlink:title=" ">
<polygon fill="#e0e0e0" stroke="#999999" points="371.25,-20 310.25,-20 310.25,0 371.25,0 371.25,-20"/>
<text xml:space="preserve" text-anchor="middle" x="340.75" y="-6.5" font-family="Helvetica,sans-Serif" font-size="10.00">filesystem</text>
</a>
</g>
</g>
<!-- Node8&#45;&gt;Node10 -->
<g id="edge12_Node000008_Node000010" class="edge">
<title>Node8&#45;&gt;Node10</title>
<g id="a_edge12_Node000008_Node000010"><a xlink:title=" ">
<path fill="none" stroke="#63b8ff" d="M213.57,-55.59C238.38,-46.9 275.48,-33.89 303.22,-24.16"/>
<polygon fill="#63b8ff" stroke="#63b8ff" points="304.01,-27.59 312.29,-20.98 301.69,-20.99 304.01,-27.59"/>
</a>
</g>
</g>
<!-- Node11 -->
<g id="Node000011" class="node">
<title>Node11</title>
<g id="a_Node000011"><a xlink:title=" ">
<polygon fill="#e0e0e0" stroke="#999999" points="175.25,-20 126.25,-20 126.25,0 175.25,0 175.25,-20"/>
<text xml:space="preserve" text-anchor="middle" x="150.75" y="-6.5" font-family="Helvetica,sans-Serif" font-size="10.00">fstream</text>
</a>
</g>
</g>
<!-- Node8&#45;&gt;Node11 -->
<g id="edge13_Node000008_Node000011" class="edge">
<title>Node8&#45;&gt;Node11</title>
<g id="a_edge13_Node000008_Node000011"><a xlink:title=" ">
<path fill="none" stroke="#63b8ff" d="M180.48,-55.59C175.73,-48.47 169.05,-38.45 163.23,-29.72"/>
<polygon fill="#63b8ff" stroke="#63b8ff" points="166.25,-27.94 157.79,-21.56 160.42,-31.82 166.25,-27.94"/>
</a>
</g>
</g>
<!-- Node12 -->
<g id="Node000012" class="node">
<title>Node12</title>
<g id="a_Node000012"><a xlink:title=" ">
<polygon fill="#e0e0e0" stroke="#999999" points="233.75,-20 193.75,-20 193.75,0 233.75,0 233.75,-20"/>
<text xml:space="preserve" text-anchor="middle" x="213.75" y="-6.5" font-family="Helvetica,sans-Serif" font-size="10.00">regex</text>
</a>
</g>
</g>
<!-- Node8&#45;&gt;Node12 -->
<g id="edge14_Node000008_Node000012" class="edge">
<title>Node8&#45;&gt;Node12</title>
<g id="a_edge14_Node000008_Node000012"><a xlink:title=" ">
<path fill="none" stroke="#63b8ff" d="M191.45,-55.59C194.9,-48.7 199.7,-39.1 203.96,-30.57"/>
<polygon fill="#63b8ff" stroke="#63b8ff" points="207.08,-32.16 208.42,-21.65 200.82,-29.03 207.08,-32.16"/>
</a>
</g>
</g>
</g>
</svg>
