<?xml version="1.0" encoding="UTF-8" standalone="no"?>
<!DOCTYPE svg PUBLIC "-//W3C//DTD SVG 1.1//EN"
 "http://www.w3.org/Graphics/SVG/1.1/DTD/svg11.dtd">
<!-- Generated by graphviz version 13.0.1 (20250615.1724)
 -->
<!-- Title: GameBoard.h Pages: 1 -->
<svg width="308pt" height="196pt"
 viewBox="0.00 0.00 308.00 196.00" xmlns="http://www.w3.org/2000/svg" xmlns:xlink="http://www.w3.org/1999/xlink">
<g id="graph0" class="graph" transform="scale(1 1) rotate(0) translate(4 192)">
<title>GameBoard.h</title>
<!-- Node1 -->
<g id="Node000001" class="node">
<title>Node1</title>
<g id="a_Node000001"><a xlink:title=" ">
<polygon fill="#999999" stroke="#666666" points="186.25,-188 110.25,-188 110.25,-168 186.25,-168 186.25,-188"/>
<text xml:space="preserve" text-anchor="middle" x="148.25" y="-174.5" font-family="Helvetica,sans-Serif" font-size="10.00">GameBoard.h</text>
</a>
</g>
</g>
<!-- Node2 -->
<g id="Node000002" class="node">
<title>Node2</title>
<g id="a_Node000002"><a xlink:href="_game_board_8cpp.html" target="_top" xlink:title=" ">
<polygon fill="white" stroke="#666666" points="86.5,-132 0,-132 0,-112 86.5,-112 86.5,-132"/>
<text xml:space="preserve" text-anchor="middle" x="43.25" y="-118.5" font-family="Helvetica,sans-Serif" font-size="10.00">GameBoard.cpp</text>
</a>
</g>
</g>
<!-- Node1&#45;&gt;Node2 -->
<g id="edge1_Node000001_Node000002" class="edge">
<title>Node1&#45;&gt;Node2</title>
<g id="a_edge1_Node000001_Node000002"><a xlink:title=" ">
<path fill="none" stroke="#63b8ff" d="M119.76,-162.35C101.28,-152.84 77.74,-140.74 61.68,-132.48"/>
<polygon fill="#63b8ff" stroke="#63b8ff" points="118.12,-165.44 128.61,-166.9 121.32,-159.22 118.12,-165.44"/>
</a>
</g>
</g>
<!-- Node3 -->
<g id="Node000003" class="node">
<title>Node3</title>
<g id="a_Node000003"><a xlink:href="_game_session_8h.html" target="_top" xlink:title=" ">
<polygon fill="white" stroke="#666666" points="188.12,-76 102.38,-76 102.38,-56 188.12,-56 188.12,-76"/>
<text xml:space="preserve" text-anchor="middle" x="145.25" y="-62.5" font-family="Helvetica,sans-Serif" font-size="10.00">GameSession.h</text>
</a>
</g>
</g>
<!-- Node1&#45;&gt;Node3 -->
<g id="edge2_Node000001_Node000003" class="edge">
<title>Node1&#45;&gt;Node3</title>
<g id="a_edge2_Node000001_Node000003"><a xlink:title=" ">
<path fill="none" stroke="#63b8ff" d="M139.99,-156.82C137.27,-149.18 134.6,-140.32 133.25,-132 130.01,-112.06 136.9,-88.82 141.52,-76.24"/>
<polygon fill="#63b8ff" stroke="#63b8ff" points="136.72,-158.08 143.57,-166.16 143.25,-155.57 136.72,-158.08"/>
</a>
</g>
</g>
<!-- Node6 -->
<g id="Node000006" class="node">
<title>Node6</title>
<g id="a_Node000006"><a xlink:href="_game_utils_8cpp.html" target="_top" xlink:title=" ">
<polygon fill="white" stroke="#666666" points="223.88,-132 142.62,-132 142.62,-112 223.88,-112 223.88,-132"/>
<text xml:space="preserve" text-anchor="middle" x="183.25" y="-118.5" font-family="Helvetica,sans-Serif" font-size="10.00">GameUtils.cpp</text>
</a>
</g>
</g>
<!-- Node1&#45;&gt;Node6 -->
<g id="edge5_Node000001_Node000006" class="edge">
<title>Node1&#45;&gt;Node6</title>
<g id="a_edge5_Node000001_Node000006"><a xlink:title=" ">
<path fill="none" stroke="#63b8ff" d="M160.47,-158.15C166.14,-149.4 172.63,-139.39 177.22,-132.3"/>
<polygon fill="#63b8ff" stroke="#63b8ff" points="157.67,-156.03 155.17,-166.32 163.55,-159.84 157.67,-156.03"/>
</a>
</g>
</g>
<!-- Node7 -->
<g id="Node000007" class="node">
<title>Node7</title>
<g id="a_Node000007"><a xlink:href="_player_8h.html" target="_top" xlink:title=" ">
<polygon fill="white" stroke="#666666" points="294.25,-132 242.25,-132 242.25,-112 294.25,-112 294.25,-132"/>
<text xml:space="preserve" text-anchor="middle" x="268.25" y="-118.5" font-family="Helvetica,sans-Serif" font-size="10.00">Player.h</text>
</a>
</g>
</g>
<!-- Node1&#45;&gt;Node7 -->
<g id="edge6_Node000001_Node000007" class="edge">
<title>Node1&#45;&gt;Node7</title>
<g id="a_edge6_Node000001_Node000007"><a xlink:title=" ">
<path fill="none" stroke="#63b8ff" d="M179.63,-162.88C200.92,-153.3 228.49,-140.89 247.18,-132.48"/>
<polygon fill="#63b8ff" stroke="#63b8ff" points="178.22,-159.68 170.53,-166.97 181.09,-166.06 178.22,-159.68"/>
</a>
</g>
</g>
<!-- Node4 -->
<g id="Node000004" class="node">
<title>Node4</title>
<g id="a_Node000004"><a xlink:href="_game_session_8cpp.html" target="_top" xlink:title=" ">
<polygon fill="white" stroke="#666666" points="146.38,-20 50.12,-20 50.12,0 146.38,0 146.38,-20"/>
<text xml:space="preserve" text-anchor="middle" x="98.25" y="-6.5" font-family="Helvetica,sans-Serif" font-size="10.00">GameSession.cpp</text>
</a>
</g>
</g>
<!-- Node3&#45;&gt;Node4 -->
<g id="edge3_Node000003_Node000004" class="edge">
<title>Node3&#45;&gt;Node4</title>
<g id="a_edge3_Node000003_Node000004"><a xlink:title=" ">
<path fill="none" stroke="#63b8ff" d="M129.59,-47C121.8,-38.06 112.72,-27.62 106.34,-20.3"/>
<polygon fill="#63b8ff" stroke="#63b8ff" points="126.86,-49.21 136.07,-54.45 132.14,-44.61 126.86,-49.21"/>
</a>
</g>
</g>
<!-- Node5 -->
<g id="Node000005" class="node">
<title>Node5</title>
<g id="a_Node000005"><a xlink:href="main_8cpp.html" target="_top" xlink:title=" ">
<polygon fill="white" stroke="#666666" points="220.12,-20 164.38,-20 164.38,0 220.12,0 220.12,-20"/>
<text xml:space="preserve" text-anchor="middle" x="192.25" y="-6.5" font-family="Helvetica,sans-Serif" font-size="10.00">main.cpp</text>
</a>
</g>
</g>
<!-- Node3&#45;&gt;Node5 -->
<g id="edge4_Node000003_Node000005" class="edge">
<title>Node3&#45;&gt;Node5</title>
<g id="a_edge4_Node000003_Node000005"><a xlink:title=" ">
<path fill="none" stroke="#63b8ff" d="M160.91,-47C168.7,-38.06 177.78,-27.62 184.16,-20.3"/>
<polygon fill="#63b8ff" stroke="#63b8ff" points="158.36,-44.61 154.43,-54.45 163.64,-49.21 158.36,-44.61"/>
</a>
</g>
</g>
<!-- Node7&#45;&gt;Node3 -->
<g id="edge7_Node000007_Node000003" class="edge">
<title>Node7&#45;&gt;Node3</title>
<g id="a_edge7_Node000007_Node000003"><a xlink:title=" ">
<path fill="none" stroke="#63b8ff" d="M236.38,-107.01C214.52,-97.41 186.09,-84.93 166.84,-76.48"/>
<polygon fill="#63b8ff" stroke="#63b8ff" points="234.88,-110.17 245.44,-110.99 237.69,-103.76 234.88,-110.17"/>
</a>
</g>
</g>
<!-- Node8 -->
<g id="Node000008" class="node">
<title>Node8</title>
<g id="a_Node000008"><a xlink:href="_player_8cpp.html" target="_top" xlink:title=" ">
<polygon fill="white" stroke="#666666" points="299.5,-76 237,-76 237,-56 299.5,-56 299.5,-76"/>
<text xml:space="preserve" text-anchor="middle" x="268.25" y="-62.5" font-family="Helvetica,sans-Serif" font-size="10.00">Player.cpp</text>
</a>
</g>
</g>
<!-- Node7&#45;&gt;Node8 -->
<g id="edge8_Node000007_Node000008" class="edge">
<title>Node7&#45;&gt;Node8</title>
<g id="a_edge8_Node000007_Node000008"><a xlink:title=" ">
<path fill="none" stroke="#63b8ff" d="M268.25,-100.13C268.25,-91.9 268.25,-82.85 268.25,-76.3"/>
<polygon fill="#63b8ff" stroke="#63b8ff" points="264.75,-100.08 268.25,-110.08 271.75,-100.08 264.75,-100.08"/>
</a>
</g>
</g>
</g>
</svg>
