<?xml version="1.0" encoding="UTF-8" standalone="no"?>
<!DOCTYPE svg PUBLIC "-//W3C//DTD SVG 1.1//EN"
 "http://www.w3.org/Graphics/SVG/1.1/DTD/svg11.dtd">
<!-- Generated by graphviz version 13.0.1 (20250615.1724)
 -->
<!-- Title: GameUtils.cpp Pages: 1 -->
<svg width="534pt" height="196pt"
 viewBox="0.00 0.00 534.00 196.00" xmlns="http://www.w3.org/2000/svg" xmlns:xlink="http://www.w3.org/1999/xlink">
<g id="graph0" class="graph" transform="scale(1 1) rotate(0) translate(4 192)">
<title>GameUtils.cpp</title>
<!-- Node1 -->
<g id="Node000001" class="node">
<title>Node1</title>
<g id="a_Node000001"><a xlink:title=" ">
<polygon fill="#999999" stroke="#666666" points="266.62,-188 185.38,-188 185.38,-168 266.62,-168 266.62,-188"/>
<text xml:space="preserve" text-anchor="middle" x="226" y="-174.5" font-family="Helvetica,sans-Serif" font-size="10.00">GameUtils.cpp</text>
</a>
</g>
</g>
<!-- Node2 -->
<g id="Node000002" class="node">
<title>Node2</title>
<g id="a_Node000002"><a xlink:href="_game_utils_8h.html" target="_top" xlink:title=" ">
<polygon fill="white" stroke="#666666" points="182.38,-76 111.62,-76 111.62,-56 182.38,-56 182.38,-76"/>
<text xml:space="preserve" text-anchor="middle" x="147" y="-62.5" font-family="Helvetica,sans-Serif" font-size="10.00">GameUtils.h</text>
</a>
</g>
</g>
<!-- Node1&#45;&gt;Node2 -->
<g id="edge1_Node000001_Node000002" class="edge">
<title>Node1&#45;&gt;Node2</title>
<g id="a_edge1_Node000001_Node000002"><a xlink:title=" ">
<path fill="none" stroke="#63b8ff" d="M219.26,-167.62C206.26,-149.52 177.49,-109.45 160.43,-85.7"/>
<polygon fill="#63b8ff" stroke="#63b8ff" points="163.28,-83.66 154.6,-77.58 157.59,-87.75 163.28,-83.66"/>
</a>
</g>
</g>
<!-- Node4 -->
<g id="Node000004" class="node">
<title>Node4</title>
<g id="a_Node000004"><a xlink:title=" ">
<polygon fill="#e0e0e0" stroke="#999999" points="40,-20 0,-20 0,0 40,0 40,-20"/>
<text xml:space="preserve" text-anchor="middle" x="20" y="-6.5" font-family="Helvetica,sans-Serif" font-size="10.00">string</text>
</a>
</g>
</g>
<!-- Node1&#45;&gt;Node4 -->
<g id="edge19_Node000001_Node000004" class="edge">
<title>Node1&#45;&gt;Node4</title>
<g id="a_edge19_Node000001_Node000004"><a xlink:title=" ">
<path fill="none" stroke="#63b8ff" d="M199.81,-167.57C180.09,-159.77 152.97,-147.46 132,-132 90.91,-101.71 52.72,-54.91 33.33,-29.29"/>
<polygon fill="#63b8ff" stroke="#63b8ff" points="36.32,-27.45 27.54,-21.51 30.7,-31.63 36.32,-27.45"/>
</a>
</g>
</g>
<!-- Node7 -->
<g id="Node000007" class="node">
<title>Node7</title>
<g id="a_Node000007"><a xlink:title=" ">
<polygon fill="#e0e0e0" stroke="#999999" points="98,-20 58,-20 58,0 98,0 98,-20"/>
<text xml:space="preserve" text-anchor="middle" x="78" y="-6.5" font-family="Helvetica,sans-Serif" font-size="10.00">regex</text>
</a>
</g>
</g>
<!-- Node1&#45;&gt;Node7 -->
<g id="edge20_Node000001_Node000007" class="edge">
<title>Node1&#45;&gt;Node7</title>
<g id="a_edge20_Node000001_Node000007"><a xlink:title=" ">
<path fill="none" stroke="#63b8ff" d="M209.77,-167.57C183.83,-151.74 132.92,-117.45 103,-76 93.25,-62.49 86.75,-44.69 82.83,-31.13"/>
<polygon fill="#63b8ff" stroke="#63b8ff" points="86.25,-30.36 80.32,-21.58 79.48,-32.14 86.25,-30.36"/>
</a>
</g>
</g>
<!-- Node8 -->
<g id="Node000008" class="node">
<title>Node8</title>
<g id="a_Node000008"><a xlink:href="_game_board_8h.html" target="_top" xlink:title=" ">
<polygon fill="white" stroke="#666666" points="319,-132 243,-132 243,-112 319,-112 319,-132"/>
<text xml:space="preserve" text-anchor="middle" x="281" y="-118.5" font-family="Helvetica,sans-Serif" font-size="10.00">GameBoard.h</text>
</a>
</g>
</g>
<!-- Node1&#45;&gt;Node8 -->
<g id="edge7_Node000001_Node000008" class="edge">
<title>Node1&#45;&gt;Node8</title>
<g id="a_edge7_Node000001_Node000008"><a xlink:title=" ">
<path fill="none" stroke="#63b8ff" d="M235.58,-167.59C243.23,-160.08 254.16,-149.35 263.38,-140.3"/>
<polygon fill="#63b8ff" stroke="#63b8ff" points="265.77,-142.86 270.45,-133.36 260.86,-137.87 265.77,-142.86"/>
</a>
</g>
</g>
<!-- Node12 -->
<g id="Node000012" class="node">
<title>Node12</title>
<g id="a_Node000012"><a xlink:title=" ">
<polygon fill="#e0e0e0" stroke="#999999" points="451.75,-76 398.25,-76 398.25,-56 451.75,-56 451.75,-76"/>
<text xml:space="preserve" text-anchor="middle" x="425" y="-62.5" font-family="Helvetica,sans-Serif" font-size="10.00">iostream</text>
</a>
</g>
</g>
<!-- Node1&#45;&gt;Node12 -->
<g id="edge17_Node000001_Node000012" class="edge">
<title>Node1&#45;&gt;Node12</title>
<g id="a_edge17_Node000001_Node000012"><a xlink:title=" ">
<path fill="none" stroke="#63b8ff" d="M250.48,-167.61C271.51,-159.21 302.39,-146.09 328,-132 355.07,-117.11 384.3,-96.9 403.51,-83"/>
<polygon fill="#63b8ff" stroke="#63b8ff" points="405.36,-85.98 411.36,-77.25 401.22,-80.33 405.36,-85.98"/>
</a>
</g>
</g>
<!-- Node13 -->
<g id="Node000013" class="node">
<title>Node13</title>
<g id="a_Node000013"><a xlink:title=" ">
<polygon fill="#e0e0e0" stroke="#999999" points="525.88,-76 470.12,-76 470.12,-56 525.88,-56 525.88,-76"/>
<text xml:space="preserve" text-anchor="middle" x="498" y="-62.5" font-family="Helvetica,sans-Serif" font-size="10.00">algorithm</text>
</a>
</g>
</g>
<!-- Node1&#45;&gt;Node13 -->
<g id="edge18_Node000001_Node000013" class="edge">
<title>Node1&#45;&gt;Node13</title>
<g id="a_edge18_Node000001_Node000013"><a xlink:title=" ">
<path fill="none" stroke="#63b8ff" d="M256.74,-167.54C283.71,-159 323.85,-145.71 358,-132 397.08,-116.32 440.93,-95.4 468.98,-81.58"/>
<polygon fill="#63b8ff" stroke="#63b8ff" points="470.5,-84.73 477.9,-77.15 467.39,-78.46 470.5,-84.73"/>
</a>
</g>
</g>
<!-- Node3 -->
<g id="Node000003" class="node">
<title>Node3</title>
<g id="a_Node000003"><a xlink:title=" ">
<polygon fill="#e0e0e0" stroke="#999999" points="309.75,-20 262.25,-20 262.25,0 309.75,0 309.75,-20"/>
<text xml:space="preserve" text-anchor="middle" x="286" y="-6.5" font-family="Helvetica,sans-Serif" font-size="10.00">raylib.h</text>
</a>
</g>
</g>
<!-- Node2&#45;&gt;Node3 -->
<g id="edge2_Node000002_Node000003" class="edge">
<title>Node2&#45;&gt;Node3</title>
<g id="a_edge2_Node000002_Node000003"><a xlink:title=" ">
<path fill="none" stroke="#63b8ff" d="M171.21,-55.59C193.44,-46.96 226.6,-34.08 251.58,-24.37"/>
<polygon fill="#63b8ff" stroke="#63b8ff" points="252.6,-27.73 260.65,-20.85 250.07,-21.21 252.6,-27.73"/>
</a>
</g>
</g>
<!-- Node2&#45;&gt;Node4 -->
<g id="edge3_Node000002_Node000004" class="edge">
<title>Node2&#45;&gt;Node4</title>
<g id="a_edge3_Node000002_Node000004"><a xlink:title=" ">
<path fill="none" stroke="#63b8ff" d="M124.88,-55.59C104.36,-46.87 73.63,-33.8 50.73,-24.06"/>
<polygon fill="#63b8ff" stroke="#63b8ff" points="52.16,-20.87 41.59,-20.18 49.42,-27.31 52.16,-20.87"/>
</a>
</g>
</g>
<!-- Node5 -->
<g id="Node000005" class="node">
<title>Node5</title>
<g id="a_Node000005"><a xlink:title=" ">
<polygon fill="#e0e0e0" stroke="#999999" points="177.5,-20 116.5,-20 116.5,0 177.5,0 177.5,-20"/>
<text xml:space="preserve" text-anchor="middle" x="147" y="-6.5" font-family="Helvetica,sans-Serif" font-size="10.00">filesystem</text>
</a>
</g>
</g>
<!-- Node2&#45;&gt;Node5 -->
<g id="edge4_Node000002_Node000005" class="edge">
<title>Node2&#45;&gt;Node5</title>
<g id="a_edge4_Node000002_Node000005"><a xlink:title=" ">
<path fill="none" stroke="#63b8ff" d="M147,-55.59C147,-49.01 147,-39.96 147,-31.73"/>
<polygon fill="#63b8ff" stroke="#63b8ff" points="150.5,-31.81 147,-21.81 143.5,-31.81 150.5,-31.81"/>
</a>
</g>
</g>
<!-- Node6 -->
<g id="Node000006" class="node">
<title>Node6</title>
<g id="a_Node000006"><a xlink:title=" ">
<polygon fill="#e0e0e0" stroke="#999999" points="244.5,-20 195.5,-20 195.5,0 244.5,0 244.5,-20"/>
<text xml:space="preserve" text-anchor="middle" x="220" y="-6.5" font-family="Helvetica,sans-Serif" font-size="10.00">fstream</text>
</a>
</g>
</g>
<!-- Node2&#45;&gt;Node6 -->
<g id="edge5_Node000002_Node000006" class="edge">
<title>Node2&#45;&gt;Node6</title>
<g id="a_edge5_Node000002_Node000006"><a xlink:title=" ">
<path fill="none" stroke="#63b8ff" d="M159.72,-55.59C170.39,-47.7 185.88,-36.24 198.48,-26.92"/>
<polygon fill="#63b8ff" stroke="#63b8ff" points="200.26,-29.96 206.21,-21.2 196.09,-24.33 200.26,-29.96"/>
</a>
</g>
</g>
<!-- Node2&#45;&gt;Node7 -->
<g id="edge6_Node000002_Node000007" class="edge">
<title>Node2&#45;&gt;Node7</title>
<g id="a_edge6_Node000002_Node000007"><a xlink:title=" ">
<path fill="none" stroke="#63b8ff" d="M134.98,-55.59C124.99,-47.77 110.54,-36.46 98.69,-27.19"/>
<polygon fill="#63b8ff" stroke="#63b8ff" points="101.11,-24.64 91.07,-21.23 96.79,-30.15 101.11,-24.64"/>
</a>
</g>
</g>
<!-- Node8&#45;&gt;Node2 -->
<g id="edge16_Node000008_Node000002" class="edge">
<title>Node8&#45;&gt;Node2</title>
<g id="a_edge16_Node000008_Node000002"><a xlink:title=" ">
<path fill="none" stroke="#63b8ff" d="M257.66,-111.59C236.46,-103.05 204.93,-90.35 180.95,-80.68"/>
<polygon fill="#63b8ff" stroke="#63b8ff" points="182.51,-77.54 171.93,-77.05 179.89,-84.03 182.51,-77.54"/>
</a>
</g>
</g>
<!-- Node8&#45;&gt;Node3 -->
<g id="edge8_Node000008_Node000003" class="edge">
<title>Node8&#45;&gt;Node3</title>
<g id="a_edge8_Node000008_Node000003"><a xlink:title=" ">
<path fill="none" stroke="#63b8ff" d="M264.04,-111.62C245.05,-99.77 218.22,-78.24 229,-56 234.94,-43.75 246,-33.83 256.81,-26.45"/>
<polygon fill="#63b8ff" stroke="#63b8ff" points="258.6,-29.46 265.24,-21.2 254.9,-23.52 258.6,-29.46"/>
</a>
</g>
</g>
<!-- Node9 -->
<g id="Node000009" class="node">
<title>Node9</title>
<g id="a_Node000009"><a xlink:href="_cell_8h.html" target="_top" xlink:title=" ">
<polygon fill="white" stroke="#666666" points="341.75,-76 300.25,-76 300.25,-56 341.75,-56 341.75,-76"/>
<text xml:space="preserve" text-anchor="middle" x="321" y="-62.5" font-family="Helvetica,sans-Serif" font-size="10.00">Cell.h</text>
</a>
</g>
</g>
<!-- Node8&#45;&gt;Node9 -->
<g id="edge9_Node000008_Node000009" class="edge">
<title>Node8&#45;&gt;Node9</title>
<g id="a_edge9_Node000008_Node000009"><a xlink:title=" ">
<path fill="none" stroke="#63b8ff" d="M287.97,-111.59C293.3,-104.39 300.83,-94.23 307.35,-85.43"/>
<polygon fill="#63b8ff" stroke="#63b8ff" points="310.07,-87.63 313.21,-77.51 304.45,-83.47 310.07,-87.63"/>
</a>
</g>
</g>
<!-- Node10 -->
<g id="Node000010" class="node">
<title>Node10</title>
<g id="a_Node000010"><a xlink:href="_ship_8h.html" target="_top" xlink:title=" ">
<polygon fill="white" stroke="#666666" points="281.88,-76 238.12,-76 238.12,-56 281.88,-56 281.88,-76"/>
<text xml:space="preserve" text-anchor="middle" x="260" y="-62.5" font-family="Helvetica,sans-Serif" font-size="10.00">Ship.h</text>
</a>
</g>
</g>
<!-- Node8&#45;&gt;Node10 -->
<g id="edge10_Node000008_Node000010" class="edge">
<title>Node8&#45;&gt;Node10</title>
<g id="a_edge10_Node000008_Node000010"><a xlink:title=" ">
<path fill="none" stroke="#63b8ff" d="M277.34,-111.59C274.69,-104.78 271.01,-95.32 267.72,-86.86"/>
<polygon fill="#63b8ff" stroke="#63b8ff" points="271.05,-85.76 264.16,-77.71 264.53,-88.3 271.05,-85.76"/>
</a>
</g>
</g>
<!-- Node11 -->
<g id="Node000011" class="node">
<title>Node11</title>
<g id="a_Node000011"><a xlink:title=" ">
<polygon fill="#e0e0e0" stroke="#999999" points="381.5,-20 338.5,-20 338.5,0 381.5,0 381.5,-20"/>
<text xml:space="preserve" text-anchor="middle" x="360" y="-6.5" font-family="Helvetica,sans-Serif" font-size="10.00">vector</text>
</a>
</g>
</g>
<!-- Node8&#45;&gt;Node11 -->
<g id="edge13_Node000008_Node000011" class="edge">
<title>Node8&#45;&gt;Node11</title>
<g id="a_edge13_Node000008_Node000011"><a xlink:title=" ">
<path fill="none" stroke="#63b8ff" d="M305.75,-111.52C321.33,-104.22 340.42,-92.56 351,-76 359.45,-62.77 361.41,-44.95 361.42,-31.31"/>
<polygon fill="#63b8ff" stroke="#63b8ff" points="364.93,-31.59 361.07,-21.73 357.94,-31.85 364.93,-31.59"/>
</a>
</g>
</g>
<!-- Node8&#45;&gt;Node12 -->
<g id="edge14_Node000008_Node000012" class="edge">
<title>Node8&#45;&gt;Node12</title>
<g id="a_edge14_Node000008_Node000012"><a xlink:title=" ">
<path fill="none" stroke="#63b8ff" d="M306.08,-111.59C329.07,-102.97 363.35,-90.12 389.21,-80.42"/>
<polygon fill="#63b8ff" stroke="#63b8ff" points="390.17,-83.8 398.3,-77.01 387.71,-77.25 390.17,-83.8"/>
</a>
</g>
</g>
<!-- Node8&#45;&gt;Node13 -->
<g id="edge15_Node000008_Node000013" class="edge">
<title>Node8&#45;&gt;Node13</title>
<g id="a_edge15_Node000008_Node000013"><a xlink:title=" ">
<path fill="none" stroke="#63b8ff" d="M318.8,-111.59C358.03,-101.83 419.11,-86.63 458.84,-76.74"/>
<polygon fill="#63b8ff" stroke="#63b8ff" points="459.62,-80.16 468.47,-74.35 457.93,-73.37 459.62,-80.16"/>
</a>
</g>
</g>
<!-- Node10&#45;&gt;Node3 -->
<g id="edge11_Node000010_Node000003" class="edge">
<title>Node10&#45;&gt;Node3</title>
<g id="a_edge11_Node000010_Node000003"><a xlink:title=" ">
<path fill="none" stroke="#63b8ff" d="M264.53,-55.59C267.85,-48.7 272.47,-39.1 276.58,-30.57"/>
<polygon fill="#63b8ff" stroke="#63b8ff" points="279.68,-32.19 280.87,-21.66 273.37,-29.15 279.68,-32.19"/>
</a>
</g>
</g>
<!-- Node10&#45;&gt;Node11 -->
<g id="edge12_Node000010_Node000011" class="edge">
<title>Node10&#45;&gt;Node11</title>
<g id="a_edge12_Node000010_Node000011"><a xlink:title=" ">
<path fill="none" stroke="#63b8ff" d="M277.42,-55.59C292.67,-47.36 315.08,-35.26 332.71,-25.74"/>
<polygon fill="#63b8ff" stroke="#63b8ff" points="333.98,-29.03 341.11,-21.2 330.65,-22.87 333.98,-29.03"/>
</a>
</g>
</g>
</g>
</svg>
