<?xml version="1.0" encoding="UTF-8" standalone="no"?>
<!DOCTYPE svg PUBLIC "-//W3C//DTD SVG 1.1//EN"
 "http://www.w3.org/Graphics/SVG/1.1/DTD/svg11.dtd">
<!-- Generated by graphviz version 13.0.1 (20250615.1724)
 -->
<!-- Title: GameBoard.cpp Pages: 1 -->
<svg width="544pt" height="196pt"
 viewBox="0.00 0.00 544.00 196.00" xmlns="http://www.w3.org/2000/svg" xmlns:xlink="http://www.w3.org/1999/xlink">
<g id="graph0" class="graph" transform="scale(1 1) rotate(0) translate(4 192)">
<title>GameBoard.cpp</title>
<!-- Node1 -->
<g id="Node000001" class="node">
<title>Node1</title>
<g id="a_Node000001"><a xlink:title=" ">
<polygon fill="#999999" stroke="#666666" points="377,-188 290.5,-188 290.5,-168 377,-168 377,-188"/>
<text xml:space="preserve" text-anchor="middle" x="333.75" y="-174.5" font-family="Helvetica,sans-Serif" font-size="10.00">GameBoard.cpp</text>
</a>
</g>
</g>
<!-- Node2 -->
<g id="Node000002" class="node">
<title>Node2</title>
<g id="a_Node000002"><a xlink:href="_game_board_8h.html" target="_top" xlink:title=" ">
<polygon fill="white" stroke="#666666" points="260.75,-132 184.75,-132 184.75,-112 260.75,-112 260.75,-132"/>
<text xml:space="preserve" text-anchor="middle" x="222.75" y="-118.5" font-family="Helvetica,sans-Serif" font-size="10.00">GameBoard.h</text>
</a>
</g>
</g>
<!-- Node1&#45;&gt;Node2 -->
<g id="edge1_Node000001_Node000002" class="edge">
<title>Node1&#45;&gt;Node2</title>
<g id="a_edge1_Node000001_Node000002"><a xlink:title=" ">
<path fill="none" stroke="#63b8ff" d="M314.42,-167.59C297.33,-159.28 272.15,-147.03 252.5,-137.47"/>
<polygon fill="#63b8ff" stroke="#63b8ff" points="254.12,-134.37 243.6,-133.14 251.06,-140.66 254.12,-134.37"/>
</a>
</g>
</g>
<!-- Node9 -->
<g id="Node000009" class="node">
<title>Node9</title>
<g id="a_Node000009"><a xlink:href="_game_utils_8h.html" target="_top" xlink:title=" ">
<polygon fill="white" stroke="#666666" points="414.12,-76 343.38,-76 343.38,-56 414.12,-56 414.12,-76"/>
<text xml:space="preserve" text-anchor="middle" x="378.75" y="-62.5" font-family="Helvetica,sans-Serif" font-size="10.00">GameUtils.h</text>
</a>
</g>
</g>
<!-- Node1&#45;&gt;Node9 -->
<g id="edge17_Node000001_Node000009" class="edge">
<title>Node1&#45;&gt;Node9</title>
<g id="a_edge17_Node000001_Node000009"><a xlink:title=" ">
<path fill="none" stroke="#63b8ff" d="M335.67,-167.93C338.55,-155.15 344.52,-131.24 352.75,-112 356.56,-103.1 361.74,-93.76 366.47,-85.91"/>
<polygon fill="#63b8ff" stroke="#63b8ff" points="369.34,-87.93 371.68,-77.59 363.41,-84.21 369.34,-87.93"/>
</a>
</g>
</g>
<!-- Node14 -->
<g id="Node000014" class="node">
<title>Node14</title>
<g id="a_Node000014"><a xlink:title=" ">
<polygon fill="#e0e0e0" stroke="#999999" points="407.38,-132 362.12,-132 362.12,-112 407.38,-112 407.38,-132"/>
<text xml:space="preserve" text-anchor="middle" x="384.75" y="-118.5" font-family="Helvetica,sans-Serif" font-size="10.00">ranges</text>
</a>
</g>
</g>
<!-- Node1&#45;&gt;Node14 -->
<g id="edge16_Node000001_Node000014" class="edge">
<title>Node1&#45;&gt;Node14</title>
<g id="a_edge16_Node000001_Node000014"><a xlink:title=" ">
<path fill="none" stroke="#63b8ff" d="M342.63,-167.59C349.65,-160.16 359.65,-149.58 368.14,-140.58"/>
<polygon fill="#63b8ff" stroke="#63b8ff" points="370.61,-143.07 374.93,-133.4 365.52,-138.27 370.61,-143.07"/>
</a>
</g>
</g>
<!-- Node3 -->
<g id="Node000003" class="node">
<title>Node3</title>
<g id="a_Node000003"><a xlink:title=" ">
<polygon fill="#e0e0e0" stroke="#999999" points="273.5,-20 226,-20 226,0 273.5,0 273.5,-20"/>
<text xml:space="preserve" text-anchor="middle" x="249.75" y="-6.5" font-family="Helvetica,sans-Serif" font-size="10.00">raylib.h</text>
</a>
</g>
</g>
<!-- Node2&#45;&gt;Node3 -->
<g id="edge2_Node000002_Node000003" class="edge">
<title>Node2&#45;&gt;Node3</title>
<g id="a_edge2_Node000002_Node000003"><a xlink:title=" ">
<path fill="none" stroke="#63b8ff" d="M251.54,-111.57C267.94,-104.55 287.1,-93.17 296.75,-76 306.62,-58.45 290.34,-39.98 274.3,-27.24"/>
<polygon fill="#63b8ff" stroke="#63b8ff" points="276.44,-24.46 266.31,-21.34 272.28,-30.09 276.44,-24.46"/>
</a>
</g>
</g>
<!-- Node4 -->
<g id="Node000004" class="node">
<title>Node4</title>
<g id="a_Node000004"><a xlink:href="_cell_8h.html" target="_top" xlink:title=" ">
<polygon fill="white" stroke="#666666" points="41.5,-76 0,-76 0,-56 41.5,-56 41.5,-76"/>
<text xml:space="preserve" text-anchor="middle" x="20.75" y="-62.5" font-family="Helvetica,sans-Serif" font-size="10.00">Cell.h</text>
</a>
</g>
</g>
<!-- Node2&#45;&gt;Node4 -->
<g id="edge3_Node000002_Node000004" class="edge">
<title>Node2&#45;&gt;Node4</title>
<g id="a_edge3_Node000002_Node000004"><a xlink:title=" ">
<path fill="none" stroke="#63b8ff" d="M187.56,-111.59C149.62,-101.45 89.73,-85.44 52.98,-75.62"/>
<polygon fill="#63b8ff" stroke="#63b8ff" points="53.94,-72.25 43.38,-73.05 52.13,-79.01 53.94,-72.25"/>
</a>
</g>
</g>
<!-- Node5 -->
<g id="Node000005" class="node">
<title>Node5</title>
<g id="a_Node000005"><a xlink:href="_ship_8h.html" target="_top" xlink:title=" ">
<polygon fill="white" stroke="#666666" points="141.62,-76 97.88,-76 97.88,-56 141.62,-56 141.62,-76"/>
<text xml:space="preserve" text-anchor="middle" x="119.75" y="-62.5" font-family="Helvetica,sans-Serif" font-size="10.00">Ship.h</text>
</a>
</g>
</g>
<!-- Node2&#45;&gt;Node5 -->
<g id="edge4_Node000002_Node000005" class="edge">
<title>Node2&#45;&gt;Node5</title>
<g id="a_edge4_Node000002_Node000005"><a xlink:title=" ">
<path fill="none" stroke="#63b8ff" d="M204.81,-111.59C189.1,-103.36 166.02,-91.26 147.86,-81.74"/>
<polygon fill="#63b8ff" stroke="#63b8ff" points="149.65,-78.73 139.17,-77.18 146.4,-84.93 149.65,-78.73"/>
</a>
</g>
</g>
<!-- Node6 -->
<g id="Node000006" class="node">
<title>Node6</title>
<g id="a_Node000006"><a xlink:title=" ">
<polygon fill="#e0e0e0" stroke="#999999" points="116.25,-20 73.25,-20 73.25,0 116.25,0 116.25,-20"/>
<text xml:space="preserve" text-anchor="middle" x="94.75" y="-6.5" font-family="Helvetica,sans-Serif" font-size="10.00">vector</text>
</a>
</g>
</g>
<!-- Node2&#45;&gt;Node6 -->
<g id="edge7_Node000002_Node000006" class="edge">
<title>Node2&#45;&gt;Node6</title>
<g id="a_edge7_Node000002_Node000006"><a xlink:title=" ">
<path fill="none" stroke="#63b8ff" d="M184.53,-119.68C153.12,-116.34 110.38,-106.09 88.75,-76 79.45,-63.06 82.17,-44.72 86.52,-30.82"/>
<polygon fill="#63b8ff" stroke="#63b8ff" points="89.67,-32.42 89.81,-21.83 83.09,-30.02 89.67,-32.42"/>
</a>
</g>
</g>
<!-- Node7 -->
<g id="Node000007" class="node">
<title>Node7</title>
<g id="a_Node000007"><a xlink:title=" ">
<polygon fill="#e0e0e0" stroke="#999999" points="213.5,-76 160,-76 160,-56 213.5,-56 213.5,-76"/>
<text xml:space="preserve" text-anchor="middle" x="186.75" y="-62.5" font-family="Helvetica,sans-Serif" font-size="10.00">iostream</text>
</a>
</g>
</g>
<!-- Node2&#45;&gt;Node7 -->
<g id="edge8_Node000002_Node000007" class="edge">
<title>Node2&#45;&gt;Node7</title>
<g id="a_edge8_Node000002_Node000007"><a xlink:title=" ">
<path fill="none" stroke="#63b8ff" d="M216.48,-111.59C211.73,-104.47 205.05,-94.45 199.23,-85.72"/>
<polygon fill="#63b8ff" stroke="#63b8ff" points="202.25,-83.94 193.79,-77.56 196.42,-87.82 202.25,-83.94"/>
</a>
</g>
</g>
<!-- Node8 -->
<g id="Node000008" class="node">
<title>Node8</title>
<g id="a_Node000008"><a xlink:title=" ">
<polygon fill="#e0e0e0" stroke="#999999" points="287.62,-76 231.88,-76 231.88,-56 287.62,-56 287.62,-76"/>
<text xml:space="preserve" text-anchor="middle" x="259.75" y="-62.5" font-family="Helvetica,sans-Serif" font-size="10.00">algorithm</text>
</a>
</g>
</g>
<!-- Node2&#45;&gt;Node8 -->
<g id="edge9_Node000002_Node000008" class="edge">
<title>Node2&#45;&gt;Node8</title>
<g id="a_edge9_Node000002_Node000008"><a xlink:title=" ">
<path fill="none" stroke="#63b8ff" d="M229.19,-111.59C234.08,-104.47 240.94,-94.45 246.93,-85.72"/>
<polygon fill="#63b8ff" stroke="#63b8ff" points="249.76,-87.77 252.52,-77.55 243.98,-83.82 249.76,-87.77"/>
</a>
</g>
</g>
<!-- Node2&#45;&gt;Node9 -->
<g id="edge10_Node000002_Node000009" class="edge">
<title>Node2&#45;&gt;Node9</title>
<g id="a_edge10_Node000002_Node000009"><a xlink:title=" ">
<path fill="none" stroke="#63b8ff" d="M249.92,-111.59C275.05,-102.9 312.63,-89.89 340.73,-80.16"/>
<polygon fill="#63b8ff" stroke="#63b8ff" points="341.63,-83.55 349.93,-76.97 339.34,-76.94 341.63,-83.55"/>
</a>
</g>
</g>
<!-- Node5&#45;&gt;Node3 -->
<g id="edge5_Node000005_Node000003" class="edge">
<title>Node5&#45;&gt;Node3</title>
<g id="a_edge5_Node000005_Node000003"><a xlink:title=" ">
<path fill="none" stroke="#63b8ff" d="M142.1,-55.72C162.65,-47.18 193.4,-34.41 216.78,-24.7"/>
<polygon fill="#63b8ff" stroke="#63b8ff" points="217.97,-27.99 225.86,-20.92 215.28,-21.53 217.97,-27.99"/>
</a>
</g>
</g>
<!-- Node5&#45;&gt;Node6 -->
<g id="edge6_Node000005_Node000006" class="edge">
<title>Node5&#45;&gt;Node6</title>
<g id="a_edge6_Node000005_Node000006"><a xlink:title=" ">
<path fill="none" stroke="#63b8ff" d="M115.4,-55.59C112.2,-48.7 107.76,-39.1 103.81,-30.57"/>
<polygon fill="#63b8ff" stroke="#63b8ff" points="107.07,-29.28 99.69,-21.67 100.72,-32.22 107.07,-29.28"/>
</a>
</g>
</g>
<!-- Node9&#45;&gt;Node3 -->
<g id="edge11_Node000009_Node000003" class="edge">
<title>Node9&#45;&gt;Node3</title>
<g id="a_edge11_Node000009_Node000003"><a xlink:title=" ">
<path fill="none" stroke="#63b8ff" d="M356.28,-55.59C335.96,-47.09 305.8,-34.46 282.74,-24.81"/>
<polygon fill="#63b8ff" stroke="#63b8ff" points="284.37,-21.7 273.79,-21.06 281.66,-28.15 284.37,-21.7"/>
</a>
</g>
</g>
<!-- Node10 -->
<g id="Node000010" class="node">
<title>Node10</title>
<g id="a_Node000010"><a xlink:title=" ">
<polygon fill="#e0e0e0" stroke="#999999" points="456.75,-20 416.75,-20 416.75,0 456.75,0 456.75,-20"/>
<text xml:space="preserve" text-anchor="middle" x="436.75" y="-6.5" font-family="Helvetica,sans-Serif" font-size="10.00">string</text>
</a>
</g>
</g>
<!-- Node9&#45;&gt;Node10 -->
<g id="edge12_Node000009_Node000010" class="edge">
<title>Node9&#45;&gt;Node10</title>
<g id="a_edge12_Node000009_Node000010"><a xlink:title=" ">
<path fill="none" stroke="#63b8ff" d="M388.85,-55.59C397,-48.01 408.68,-37.13 418.47,-28.02"/>
<polygon fill="#63b8ff" stroke="#63b8ff" points="420.72,-30.71 425.66,-21.33 415.95,-25.58 420.72,-30.71"/>
</a>
</g>
</g>
<!-- Node11 -->
<g id="Node000011" class="node">
<title>Node11</title>
<g id="a_Node000011"><a xlink:title=" ">
<polygon fill="#e0e0e0" stroke="#999999" points="536.25,-20 475.25,-20 475.25,0 536.25,0 536.25,-20"/>
<text xml:space="preserve" text-anchor="middle" x="505.75" y="-6.5" font-family="Helvetica,sans-Serif" font-size="10.00">filesystem</text>
</a>
</g>
</g>
<!-- Node9&#45;&gt;Node11 -->
<g id="edge13_Node000009_Node000011" class="edge">
<title>Node9&#45;&gt;Node11</title>
<g id="a_edge13_Node000009_Node000011"><a xlink:title=" ">
<path fill="none" stroke="#63b8ff" d="M400.87,-55.59C420.78,-47.13 450.3,-34.58 472.96,-24.94"/>
<polygon fill="#63b8ff" stroke="#63b8ff" points="474.23,-28.21 482.06,-21.07 471.49,-21.76 474.23,-28.21"/>
</a>
</g>
</g>
<!-- Node12 -->
<g id="Node000012" class="node">
<title>Node12</title>
<g id="a_Node000012"><a xlink:title=" ">
<polygon fill="#e0e0e0" stroke="#999999" points="340.25,-20 291.25,-20 291.25,0 340.25,0 340.25,-20"/>
<text xml:space="preserve" text-anchor="middle" x="315.75" y="-6.5" font-family="Helvetica,sans-Serif" font-size="10.00">fstream</text>
</a>
</g>
</g>
<!-- Node9&#45;&gt;Node12 -->
<g id="edge14_Node000009_Node000012" class="edge">
<title>Node9&#45;&gt;Node12</title>
<g id="a_edge14_Node000009_Node000012"><a xlink:title=" ">
<path fill="none" stroke="#63b8ff" d="M367.78,-55.59C358.83,-47.93 345.98,-36.91 335.29,-27.75"/>
<polygon fill="#63b8ff" stroke="#63b8ff" points="337.62,-25.13 327.75,-21.28 333.06,-30.45 337.62,-25.13"/>
</a>
</g>
</g>
<!-- Node13 -->
<g id="Node000013" class="node">
<title>Node13</title>
<g id="a_Node000013"><a xlink:title=" ">
<polygon fill="#e0e0e0" stroke="#999999" points="398.75,-20 358.75,-20 358.75,0 398.75,0 398.75,-20"/>
<text xml:space="preserve" text-anchor="middle" x="378.75" y="-6.5" font-family="Helvetica,sans-Serif" font-size="10.00">regex</text>
</a>
</g>
</g>
<!-- Node9&#45;&gt;Node13 -->
<g id="edge15_Node000009_Node000013" class="edge">
<title>Node9&#45;&gt;Node13</title>
<g id="a_edge15_Node000009_Node000013"><a xlink:title=" ">
<path fill="none" stroke="#63b8ff" d="M378.75,-55.59C378.75,-49.01 378.75,-39.96 378.75,-31.73"/>
<polygon fill="#63b8ff" stroke="#63b8ff" points="382.25,-31.81 378.75,-21.81 375.25,-31.81 382.25,-31.81"/>
</a>
</g>
</g>
</g>
</svg>
