<?xml version="1.0" encoding="UTF-8" standalone="no"?>
<!DOCTYPE svg PUBLIC "-//W3C//DTD SVG 1.1//EN"
 "http://www.w3.org/Graphics/SVG/1.1/DTD/svg11.dtd">
<!-- Generated by graphviz version 13.0.1 (20250615.1724)
 -->
<!-- Title: GameUtils.h Pages: 1 -->
<svg width="319pt" height="84pt"
 viewBox="0.00 0.00 319.00 84.00" xmlns="http://www.w3.org/2000/svg" xmlns:xlink="http://www.w3.org/1999/xlink">
<g id="graph0" class="graph" transform="scale(1 1) rotate(0) translate(4 80)">
<title>GameUtils.h</title>
<!-- Node1 -->
<g id="Node000001" class="node">
<title>Node1</title>
<g id="a_Node000001"><a xlink:title=" ">
<polygon fill="#999999" stroke="#666666" points="190.12,-76 119.38,-76 119.38,-56 190.12,-56 190.12,-76"/>
<text xml:space="preserve" text-anchor="middle" x="154.75" y="-62.5" font-family="Helvetica,sans-Serif" font-size="10.00">GameUtils.h</text>
</a>
</g>
</g>
<!-- Node2 -->
<g id="Node000002" class="node">
<title>Node2</title>
<g id="a_Node000002"><a xlink:title=" ">
<polygon fill="#e0e0e0" stroke="#999999" points="47.5,-20 0,-20 0,0 47.5,0 47.5,-20"/>
<text xml:space="preserve" text-anchor="middle" x="23.75" y="-6.5" font-family="Helvetica,sans-Serif" font-size="10.00">raylib.h</text>
</a>
</g>
</g>
<!-- Node1&#45;&gt;Node2 -->
<g id="edge1_Node000001_Node000002" class="edge">
<title>Node1&#45;&gt;Node2</title>
<g id="a_edge1_Node000001_Node000002"><a xlink:title=" ">
<path fill="none" stroke="#63b8ff" d="M131.93,-55.59C111.3,-47.09 80.67,-34.46 57.26,-24.81"/>
<polygon fill="#63b8ff" stroke="#63b8ff" points="58.73,-21.63 48.15,-21.06 56.06,-28.1 58.73,-21.63"/>
</a>
</g>
</g>
<!-- Node3 -->
<g id="Node000003" class="node">
<title>Node3</title>
<g id="a_Node000003"><a xlink:title=" ">
<polygon fill="#e0e0e0" stroke="#999999" points="105.75,-20 65.75,-20 65.75,0 105.75,0 105.75,-20"/>
<text xml:space="preserve" text-anchor="middle" x="85.75" y="-6.5" font-family="Helvetica,sans-Serif" font-size="10.00">string</text>
</a>
</g>
</g>
<!-- Node1&#45;&gt;Node3 -->
<g id="edge2_Node000001_Node000003" class="edge">
<title>Node1&#45;&gt;Node3</title>
<g id="a_edge2_Node000001_Node000003"><a xlink:title=" ">
<path fill="none" stroke="#63b8ff" d="M142.73,-55.59C132.74,-47.77 118.29,-36.46 106.44,-27.19"/>
<polygon fill="#63b8ff" stroke="#63b8ff" points="108.86,-24.64 98.82,-21.23 104.54,-30.15 108.86,-24.64"/>
</a>
</g>
</g>
<!-- Node4 -->
<g id="Node000004" class="node">
<title>Node4</title>
<g id="a_Node000004"><a xlink:title=" ">
<polygon fill="#e0e0e0" stroke="#999999" points="185.25,-20 124.25,-20 124.25,0 185.25,0 185.25,-20"/>
<text xml:space="preserve" text-anchor="middle" x="154.75" y="-6.5" font-family="Helvetica,sans-Serif" font-size="10.00">filesystem</text>
</a>
</g>
</g>
<!-- Node1&#45;&gt;Node4 -->
<g id="edge3_Node000001_Node000004" class="edge">
<title>Node1&#45;&gt;Node4</title>
<g id="a_edge3_Node000001_Node000004"><a xlink:title=" ">
<path fill="none" stroke="#63b8ff" d="M154.75,-55.59C154.75,-49.01 154.75,-39.96 154.75,-31.73"/>
<polygon fill="#63b8ff" stroke="#63b8ff" points="158.25,-31.81 154.75,-21.81 151.25,-31.81 158.25,-31.81"/>
</a>
</g>
</g>
<!-- Node5 -->
<g id="Node000005" class="node">
<title>Node5</title>
<g id="a_Node000005"><a xlink:title=" ">
<polygon fill="#e0e0e0" stroke="#999999" points="252.25,-20 203.25,-20 203.25,0 252.25,0 252.25,-20"/>
<text xml:space="preserve" text-anchor="middle" x="227.75" y="-6.5" font-family="Helvetica,sans-Serif" font-size="10.00">fstream</text>
</a>
</g>
</g>
<!-- Node1&#45;&gt;Node5 -->
<g id="edge4_Node000001_Node000005" class="edge">
<title>Node1&#45;&gt;Node5</title>
<g id="a_edge4_Node000001_Node000005"><a xlink:title=" ">
<path fill="none" stroke="#63b8ff" d="M167.47,-55.59C178.14,-47.7 193.63,-36.24 206.23,-26.92"/>
<polygon fill="#63b8ff" stroke="#63b8ff" points="208.01,-29.96 213.96,-21.2 203.84,-24.33 208.01,-29.96"/>
</a>
</g>
</g>
<!-- Node6 -->
<g id="Node000006" class="node">
<title>Node6</title>
<g id="a_Node000006"><a xlink:title=" ">
<polygon fill="#e0e0e0" stroke="#999999" points="310.75,-20 270.75,-20 270.75,0 310.75,0 310.75,-20"/>
<text xml:space="preserve" text-anchor="middle" x="290.75" y="-6.5" font-family="Helvetica,sans-Serif" font-size="10.00">regex</text>
</a>
</g>
</g>
<!-- Node1&#45;&gt;Node6 -->
<g id="edge5_Node000001_Node000006" class="edge">
<title>Node1&#45;&gt;Node6</title>
<g id="a_edge5_Node000001_Node000006"><a xlink:title=" ">
<path fill="none" stroke="#63b8ff" d="M178.44,-55.59C201.01,-46.63 235.12,-33.09 259.82,-23.28"/>
<polygon fill="#63b8ff" stroke="#63b8ff" points="261.03,-26.57 269.03,-19.62 258.44,-20.06 261.03,-26.57"/>
</a>
</g>
</g>
</g>
</svg>
