<?xml version="1.0" encoding="UTF-8" standalone="no"?>
<!DOCTYPE svg PUBLIC "-//W3C//DTD SVG 1.1//EN"
 "http://www.w3.org/Graphics/SVG/1.1/DTD/svg11.dtd">
<!-- Generated by graphviz version 13.0.1 (20250615.1724)
 -->
<!-- Title: Player.cpp Pages: 1 -->
<svg width="729pt" height="252pt"
 viewBox="0.00 0.00 729.00 252.00" xmlns="http://www.w3.org/2000/svg" xmlns:xlink="http://www.w3.org/1999/xlink">
<g id="graph0" class="graph" transform="scale(1 1) rotate(0) translate(4 248)">
<title>Player.cpp</title>
<!-- Node1 -->
<g id="Node000001" class="node">
<title>Node1</title>
<g id="a_Node000001"><a xlink:title=" ">
<polygon fill="#999999" stroke="#666666" points="568.75,-244 506.25,-244 506.25,-224 568.75,-224 568.75,-244"/>
<text xml:space="preserve" text-anchor="middle" x="537.5" y="-230.5" font-family="Helvetica,sans-Serif" font-size="10.00">Player.cpp</text>
</a>
</g>
</g>
<!-- Node2 -->
<g id="Node000002" class="node">
<title>Node2</title>
<g id="a_Node000002"><a xlink:href="_player_8h.html" target="_top" xlink:title=" ">
<polygon fill="white" stroke="#666666" points="529.5,-188 477.5,-188 477.5,-168 529.5,-168 529.5,-188"/>
<text xml:space="preserve" text-anchor="middle" x="503.5" y="-174.5" font-family="Helvetica,sans-Serif" font-size="10.00">Player.h</text>
</a>
</g>
</g>
<!-- Node1&#45;&gt;Node2 -->
<g id="edge1_Node000001_Node000002" class="edge">
<title>Node1&#45;&gt;Node2</title>
<g id="a_edge1_Node000001_Node000002"><a xlink:title=" ">
<path fill="none" stroke="#63b8ff" d="M531.58,-223.59C527.14,-216.55 520.92,-206.67 515.46,-198"/>
<polygon fill="#63b8ff" stroke="#63b8ff" points="518.45,-196.18 510.16,-189.58 512.53,-199.91 518.45,-196.18"/>
</a>
</g>
</g>
<!-- Node19 -->
<g id="Node000019" class="node">
<title>Node19</title>
<g id="a_Node000019"><a xlink:title=" ">
<polygon fill="#e0e0e0" stroke="#999999" points="595.62,-188 547.38,-188 547.38,-168 595.62,-168 595.62,-188"/>
<text xml:space="preserve" text-anchor="middle" x="571.5" y="-174.5" font-family="Helvetica,sans-Serif" font-size="10.00">random</text>
</a>
</g>
</g>
<!-- Node1&#45;&gt;Node19 -->
<g id="edge23_Node000001_Node000019" class="edge">
<title>Node1&#45;&gt;Node19</title>
<g id="a_edge23_Node000001_Node000019"><a xlink:title=" ">
<path fill="none" stroke="#63b8ff" d="M543.42,-223.59C547.86,-216.55 554.08,-206.67 559.54,-198"/>
<polygon fill="#63b8ff" stroke="#63b8ff" points="562.47,-199.91 564.84,-189.58 556.55,-196.18 562.47,-199.91"/>
</a>
</g>
</g>
<!-- Node3 -->
<g id="Node000003" class="node">
<title>Node3</title>
<g id="a_Node000003"><a xlink:href="_game_board_8h.html" target="_top" xlink:title=" ">
<polygon fill="white" stroke="#666666" points="285.5,-132 209.5,-132 209.5,-112 285.5,-112 285.5,-132"/>
<text xml:space="preserve" text-anchor="middle" x="247.5" y="-118.5" font-family="Helvetica,sans-Serif" font-size="10.00">GameBoard.h</text>
</a>
</g>
</g>
<!-- Node2&#45;&gt;Node3 -->
<g id="edge2_Node000002_Node000003" class="edge">
<title>Node2&#45;&gt;Node3</title>
<g id="a_edge2_Node000002_Node000003"><a xlink:title=" ">
<path fill="none" stroke="#63b8ff" d="M477.07,-171.42C434.61,-162.47 350.54,-144.73 296.77,-133.39"/>
<polygon fill="#63b8ff" stroke="#63b8ff" points="297.77,-130.03 287.26,-131.39 296.33,-136.88 297.77,-130.03"/>
</a>
</g>
</g>
<!-- Node7 -->
<g id="Node000007" class="node">
<title>Node7</title>
<g id="a_Node000007"><a xlink:title=" ">
<polygon fill="#e0e0e0" stroke="#999999" points="43,-20 0,-20 0,0 43,0 43,-20"/>
<text xml:space="preserve" text-anchor="middle" x="21.5" y="-6.5" font-family="Helvetica,sans-Serif" font-size="10.00">vector</text>
</a>
</g>
</g>
<!-- Node2&#45;&gt;Node7 -->
<g id="edge18_Node000002_Node000007" class="edge">
<title>Node2&#45;&gt;Node7</title>
<g id="a_edge18_Node000002_Node000007"><a xlink:title=" ">
<path fill="none" stroke="#63b8ff" d="M477.04,-175.8C384.67,-170.97 79.17,-149.61 23.5,-76 14.02,-63.46 14.26,-45.34 16.45,-31.41"/>
<polygon fill="#63b8ff" stroke="#63b8ff" points="19.8,-32.48 18.38,-21.98 12.95,-31.08 19.8,-32.48"/>
</a>
</g>
</g>
<!-- Node11 -->
<g id="Node000011" class="node">
<title>Node11</title>
<g id="a_Node000011"><a xlink:title=" ">
<polygon fill="#e0e0e0" stroke="#999999" points="525.5,-20 485.5,-20 485.5,0 525.5,0 525.5,-20"/>
<text xml:space="preserve" text-anchor="middle" x="505.5" y="-6.5" font-family="Helvetica,sans-Serif" font-size="10.00">string</text>
</a>
</g>
</g>
<!-- Node2&#45;&gt;Node11 -->
<g id="edge17_Node000002_Node000011" class="edge">
<title>Node2&#45;&gt;Node11</title>
<g id="a_edge17_Node000002_Node000011"><a xlink:title=" ">
<path fill="none" stroke="#63b8ff" d="M494.72,-167.52C487.44,-158.96 477.64,-145.66 473.5,-132 462.74,-96.45 480.61,-54.43 493.68,-30.43"/>
<polygon fill="#63b8ff" stroke="#63b8ff" points="496.7,-32.2 498.64,-21.79 490.63,-28.72 496.7,-32.2"/>
</a>
</g>
</g>
<!-- Node15 -->
<g id="Node000015" class="node">
<title>Node15</title>
<g id="a_Node000015"><a xlink:title=" ">
<polygon fill="#e0e0e0" stroke="#999999" points="525,-132 482,-132 482,-112 525,-112 525,-132"/>
<text xml:space="preserve" text-anchor="middle" x="503.5" y="-118.5" font-family="Helvetica,sans-Serif" font-size="10.00">thread</text>
</a>
</g>
</g>
<!-- Node2&#45;&gt;Node15 -->
<g id="edge19_Node000002_Node000015" class="edge">
<title>Node2&#45;&gt;Node15</title>
<g id="a_edge19_Node000002_Node000015"><a xlink:title=" ">
<path fill="none" stroke="#63b8ff" d="M503.5,-167.59C503.5,-161.01 503.5,-151.96 503.5,-143.73"/>
<polygon fill="#63b8ff" stroke="#63b8ff" points="507,-143.81 503.5,-133.81 500,-143.81 507,-143.81"/>
</a>
</g>
</g>
<!-- Node16 -->
<g id="Node000016" class="node">
<title>Node16</title>
<g id="a_Node000016"><a xlink:title=" ">
<polygon fill="#e0e0e0" stroke="#999999" points="583.88,-132 543.12,-132 543.12,-112 583.88,-112 583.88,-132"/>
<text xml:space="preserve" text-anchor="middle" x="563.5" y="-118.5" font-family="Helvetica,sans-Serif" font-size="10.00">future</text>
</a>
</g>
</g>
<!-- Node2&#45;&gt;Node16 -->
<g id="edge20_Node000002_Node000016" class="edge">
<title>Node2&#45;&gt;Node16</title>
<g id="a_edge20_Node000002_Node000016"><a xlink:title=" ">
<path fill="none" stroke="#63b8ff" d="M513.95,-167.59C522.47,-159.93 534.71,-148.91 544.89,-139.75"/>
<polygon fill="#63b8ff" stroke="#63b8ff" points="546.95,-142.6 552.04,-133.31 542.27,-137.4 546.95,-142.6"/>
</a>
</g>
</g>
<!-- Node17 -->
<g id="Node000017" class="node">
<title>Node17</title>
<g id="a_Node000017"><a xlink:title=" ">
<polygon fill="#e0e0e0" stroke="#999999" points="647.12,-132 601.88,-132 601.88,-112 647.12,-112 647.12,-132"/>
<text xml:space="preserve" text-anchor="middle" x="624.5" y="-118.5" font-family="Helvetica,sans-Serif" font-size="10.00">chrono</text>
</a>
</g>
</g>
<!-- Node2&#45;&gt;Node17 -->
<g id="edge21_Node000002_Node000017" class="edge">
<title>Node2&#45;&gt;Node17</title>
<g id="a_edge21_Node000002_Node000017"><a xlink:title=" ">
<path fill="none" stroke="#63b8ff" d="M524.58,-167.59C543.46,-159.17 571.42,-146.69 592.96,-137.07"/>
<polygon fill="#63b8ff" stroke="#63b8ff" points="594.17,-140.37 601.88,-133.1 591.32,-133.98 594.17,-140.37"/>
</a>
</g>
</g>
<!-- Node18 -->
<g id="Node000018" class="node">
<title>Node18</title>
<g id="a_Node000018"><a xlink:title=" ">
<polygon fill="#e0e0e0" stroke="#999999" points="721.38,-132 665.62,-132 665.62,-112 721.38,-112 721.38,-132"/>
<text xml:space="preserve" text-anchor="middle" x="693.5" y="-118.5" font-family="Helvetica,sans-Serif" font-size="10.00">concepts</text>
</a>
</g>
</g>
<!-- Node2&#45;&gt;Node18 -->
<g id="edge22_Node000002_Node000018" class="edge">
<title>Node2&#45;&gt;Node18</title>
<g id="a_edge22_Node000002_Node000018"><a xlink:title=" ">
<path fill="none" stroke="#63b8ff" d="M529.92,-169.49C562.17,-160.33 617,-144.74 654.2,-134.17"/>
<polygon fill="#63b8ff" stroke="#63b8ff" points="655.02,-137.57 663.68,-131.47 653.11,-130.84 655.02,-137.57"/>
</a>
</g>
</g>
<!-- Node4 -->
<g id="Node000004" class="node">
<title>Node4</title>
<g id="a_Node000004"><a xlink:title=" ">
<polygon fill="#e0e0e0" stroke="#999999" points="262.25,-20 214.75,-20 214.75,0 262.25,0 262.25,-20"/>
<text xml:space="preserve" text-anchor="middle" x="238.5" y="-6.5" font-family="Helvetica,sans-Serif" font-size="10.00">raylib.h</text>
</a>
</g>
</g>
<!-- Node3&#45;&gt;Node4 -->
<g id="edge3_Node000003_Node000004" class="edge">
<title>Node3&#45;&gt;Node4</title>
<g id="a_edge3_Node000003_Node000004"><a xlink:title=" ">
<path fill="none" stroke="#63b8ff" d="M268.19,-111.53C290.43,-99.93 321.03,-78.96 308.5,-56 300.78,-41.85 286.49,-31.49 272.83,-24.3"/>
<polygon fill="#63b8ff" stroke="#63b8ff" points="274.52,-21.23 263.99,-20.06 271.49,-27.54 274.52,-21.23"/>
</a>
</g>
</g>
<!-- Node5 -->
<g id="Node000005" class="node">
<title>Node5</title>
<g id="a_Node000005"><a xlink:href="_cell_8h.html" target="_top" xlink:title=" ">
<polygon fill="white" stroke="#666666" points="299.25,-76 257.75,-76 257.75,-56 299.25,-56 299.25,-76"/>
<text xml:space="preserve" text-anchor="middle" x="278.5" y="-62.5" font-family="Helvetica,sans-Serif" font-size="10.00">Cell.h</text>
</a>
</g>
</g>
<!-- Node3&#45;&gt;Node5 -->
<g id="edge4_Node000003_Node000005" class="edge">
<title>Node3&#45;&gt;Node5</title>
<g id="a_edge4_Node000003_Node000005"><a xlink:title=" ">
<path fill="none" stroke="#63b8ff" d="M252.9,-111.59C256.94,-104.55 262.62,-94.67 267.59,-86"/>
<polygon fill="#63b8ff" stroke="#63b8ff" points="270.47,-88.03 272.41,-77.61 264.39,-84.54 270.47,-88.03"/>
</a>
</g>
</g>
<!-- Node6 -->
<g id="Node000006" class="node">
<title>Node6</title>
<g id="a_Node000006"><a xlink:href="_ship_8h.html" target="_top" xlink:title=" ">
<polygon fill="white" stroke="#666666" points="239.38,-76 195.62,-76 195.62,-56 239.38,-56 239.38,-76"/>
<text xml:space="preserve" text-anchor="middle" x="217.5" y="-62.5" font-family="Helvetica,sans-Serif" font-size="10.00">Ship.h</text>
</a>
</g>
</g>
<!-- Node3&#45;&gt;Node6 -->
<g id="edge5_Node000003_Node000006" class="edge">
<title>Node3&#45;&gt;Node6</title>
<g id="a_edge5_Node000003_Node000006"><a xlink:title=" ">
<path fill="none" stroke="#63b8ff" d="M242.27,-111.59C238.4,-104.63 232.99,-94.89 228.22,-86.29"/>
<polygon fill="#63b8ff" stroke="#63b8ff" points="231.32,-84.66 223.4,-77.62 225.2,-88.06 231.32,-84.66"/>
</a>
</g>
</g>
<!-- Node3&#45;&gt;Node7 -->
<g id="edge8_Node000003_Node000007" class="edge">
<title>Node3&#45;&gt;Node7</title>
<g id="a_edge8_Node000003_Node000007"><a xlink:title=" ">
<path fill="none" stroke="#63b8ff" d="M209.12,-117.33C156.19,-111.5 64.58,-98.44 40.5,-76 28.39,-64.72 23.86,-46.19 22.22,-31.8"/>
<polygon fill="#63b8ff" stroke="#63b8ff" points="25.73,-31.73 21.53,-22.01 18.75,-32.23 25.73,-31.73"/>
</a>
</g>
</g>
<!-- Node8 -->
<g id="Node000008" class="node">
<title>Node8</title>
<g id="a_Node000008"><a xlink:title=" ">
<polygon fill="#e0e0e0" stroke="#999999" points="103.25,-76 49.75,-76 49.75,-56 103.25,-56 103.25,-76"/>
<text xml:space="preserve" text-anchor="middle" x="76.5" y="-62.5" font-family="Helvetica,sans-Serif" font-size="10.00">iostream</text>
</a>
</g>
</g>
<!-- Node3&#45;&gt;Node8 -->
<g id="edge9_Node000003_Node000008" class="edge">
<title>Node3&#45;&gt;Node8</title>
<g id="a_edge9_Node000003_Node000008"><a xlink:title=" ">
<path fill="none" stroke="#63b8ff" d="M217.71,-111.59C189.08,-102.55 145.68,-88.85 114.55,-79.02"/>
<polygon fill="#63b8ff" stroke="#63b8ff" points="115.72,-75.72 105.13,-76.04 113.62,-82.39 115.72,-75.72"/>
</a>
</g>
</g>
<!-- Node9 -->
<g id="Node000009" class="node">
<title>Node9</title>
<g id="a_Node000009"><a xlink:title=" ">
<polygon fill="#e0e0e0" stroke="#999999" points="177.38,-76 121.62,-76 121.62,-56 177.38,-56 177.38,-76"/>
<text xml:space="preserve" text-anchor="middle" x="149.5" y="-62.5" font-family="Helvetica,sans-Serif" font-size="10.00">algorithm</text>
</a>
</g>
</g>
<!-- Node3&#45;&gt;Node9 -->
<g id="edge10_Node000003_Node000009" class="edge">
<title>Node3&#45;&gt;Node9</title>
<g id="a_edge10_Node000003_Node000009"><a xlink:title=" ">
<path fill="none" stroke="#63b8ff" d="M230.43,-111.59C215.62,-103.44 193.93,-91.48 176.73,-82"/>
<polygon fill="#63b8ff" stroke="#63b8ff" points="178.48,-78.97 168.03,-77.21 175.1,-85.1 178.48,-78.97"/>
</a>
</g>
</g>
<!-- Node10 -->
<g id="Node000010" class="node">
<title>Node10</title>
<g id="a_Node000010"><a xlink:href="_game_utils_8h.html" target="_top" xlink:title=" ">
<polygon fill="white" stroke="#666666" points="425.88,-76 355.12,-76 355.12,-56 425.88,-56 425.88,-76"/>
<text xml:space="preserve" text-anchor="middle" x="390.5" y="-62.5" font-family="Helvetica,sans-Serif" font-size="10.00">GameUtils.h</text>
</a>
</g>
</g>
<!-- Node3&#45;&gt;Node10 -->
<g id="edge11_Node000003_Node000010" class="edge">
<title>Node3&#45;&gt;Node10</title>
<g id="a_edge11_Node000003_Node000010"><a xlink:title=" ">
<path fill="none" stroke="#63b8ff" d="M272.41,-111.59C295.23,-102.97 329.28,-90.12 354.96,-80.42"/>
<polygon fill="#63b8ff" stroke="#63b8ff" points="355.86,-83.82 363.98,-77.01 353.39,-77.27 355.86,-83.82"/>
</a>
</g>
</g>
<!-- Node6&#45;&gt;Node4 -->
<g id="edge6_Node000006_Node000004" class="edge">
<title>Node6&#45;&gt;Node4</title>
<g id="a_edge6_Node000006_Node000004"><a xlink:title=" ">
<path fill="none" stroke="#63b8ff" d="M221.16,-55.59C223.81,-48.78 227.49,-39.32 230.78,-30.86"/>
<polygon fill="#63b8ff" stroke="#63b8ff" points="233.97,-32.3 234.34,-21.71 227.45,-29.76 233.97,-32.3"/>
</a>
</g>
</g>
<!-- Node6&#45;&gt;Node7 -->
<g id="edge7_Node000006_Node000007" class="edge">
<title>Node6&#45;&gt;Node7</title>
<g id="a_edge7_Node000006_Node000007"><a xlink:title=" ">
<path fill="none" stroke="#63b8ff" d="M195.16,-58.47C192.25,-57.63 189.31,-56.79 186.5,-56 140.74,-43.12 87.67,-28.75 54.34,-19.79"/>
<polygon fill="#63b8ff" stroke="#63b8ff" points="55.44,-16.46 44.88,-17.25 53.63,-23.22 55.44,-16.46"/>
</a>
</g>
</g>
<!-- Node10&#45;&gt;Node4 -->
<g id="edge12_Node000010_Node000004" class="edge">
<title>Node10&#45;&gt;Node4</title>
<g id="a_edge12_Node000010_Node000004"><a xlink:title=" ">
<path fill="none" stroke="#63b8ff" d="M364.02,-55.59C338.91,-46.67 301,-33.21 273.42,-23.41"/>
<polygon fill="#63b8ff" stroke="#63b8ff" points="274.69,-20.14 264.1,-20.09 272.35,-26.74 274.69,-20.14"/>
</a>
</g>
</g>
<!-- Node10&#45;&gt;Node11 -->
<g id="edge13_Node000010_Node000011" class="edge">
<title>Node10&#45;&gt;Node11</title>
<g id="a_edge13_Node000010_Node000011"><a xlink:title=" ">
<path fill="none" stroke="#63b8ff" d="M410.53,-55.59C428.31,-47.24 454.57,-34.92 474.96,-25.34"/>
<polygon fill="#63b8ff" stroke="#63b8ff" points="476.38,-28.54 483.94,-21.12 473.4,-22.21 476.38,-28.54"/>
</a>
</g>
</g>
<!-- Node12 -->
<g id="Node000012" class="node">
<title>Node12</title>
<g id="a_Node000012"><a xlink:title=" ">
<polygon fill="#e0e0e0" stroke="#999999" points="400,-20 339,-20 339,0 400,0 400,-20"/>
<text xml:space="preserve" text-anchor="middle" x="369.5" y="-6.5" font-family="Helvetica,sans-Serif" font-size="10.00">filesystem</text>
</a>
</g>
</g>
<!-- Node10&#45;&gt;Node12 -->
<g id="edge14_Node000010_Node000012" class="edge">
<title>Node10&#45;&gt;Node12</title>
<g id="a_edge14_Node000010_Node000012"><a xlink:title=" ">
<path fill="none" stroke="#63b8ff" d="M386.84,-55.59C384.19,-48.78 380.51,-39.32 377.22,-30.86"/>
<polygon fill="#63b8ff" stroke="#63b8ff" points="380.55,-29.76 373.66,-21.71 374.03,-32.3 380.55,-29.76"/>
</a>
</g>
</g>
<!-- Node13 -->
<g id="Node000013" class="node">
<title>Node13</title>
<g id="a_Node000013"><a xlink:title=" ">
<polygon fill="#e0e0e0" stroke="#999999" points="467,-20 418,-20 418,0 467,0 467,-20"/>
<text xml:space="preserve" text-anchor="middle" x="442.5" y="-6.5" font-family="Helvetica,sans-Serif" font-size="10.00">fstream</text>
</a>
</g>
</g>
<!-- Node10&#45;&gt;Node13 -->
<g id="edge15_Node000010_Node000013" class="edge">
<title>Node10&#45;&gt;Node13</title>
<g id="a_edge15_Node000010_Node000013"><a xlink:title=" ">
<path fill="none" stroke="#63b8ff" d="M399.56,-55.59C406.72,-48.16 416.91,-37.58 425.57,-28.58"/>
<polygon fill="#63b8ff" stroke="#63b8ff" points="428.08,-31.02 432.5,-21.39 423.04,-26.16 428.08,-31.02"/>
</a>
</g>
</g>
<!-- Node14 -->
<g id="Node000014" class="node">
<title>Node14</title>
<g id="a_Node000014"><a xlink:title=" ">
<polygon fill="#e0e0e0" stroke="#999999" points="320.5,-20 280.5,-20 280.5,0 320.5,0 320.5,-20"/>
<text xml:space="preserve" text-anchor="middle" x="300.5" y="-6.5" font-family="Helvetica,sans-Serif" font-size="10.00">regex</text>
</a>
</g>
</g>
<!-- Node10&#45;&gt;Node14 -->
<g id="edge16_Node000010_Node000014" class="edge">
<title>Node10&#45;&gt;Node14</title>
<g id="a_edge16_Node000010_Node000014"><a xlink:title=" ">
<path fill="none" stroke="#63b8ff" d="M374.82,-55.59C361.36,-47.51 341.68,-35.71 325.96,-26.27"/>
<polygon fill="#63b8ff" stroke="#63b8ff" points="327.97,-23.4 317.6,-21.26 324.37,-29.4 327.97,-23.4"/>
</a>
</g>
</g>
</g>
</svg>
