<?xml version="1.0" encoding="UTF-8" standalone="no"?>
<!DOCTYPE svg PUBLIC "-//W3C//DTD SVG 1.1//EN"
 "http://www.w3.org/Graphics/SVG/1.1/DTD/svg11.dtd">
<!-- Generated by graphviz version 13.0.1 (20250615.1724)
 -->
<!-- Title: Player::Player Pages: 1 -->
<svg width="262pt" height="66pt"
 viewBox="0.00 0.00 262.00 66.00" xmlns="http://www.w3.org/2000/svg" xmlns:xlink="http://www.w3.org/1999/xlink">
<g id="graph0" class="graph" transform="scale(1 1) rotate(0) translate(4 62)">
<title>Player::Player</title>
<!-- Node1 -->
<g id="Node000001" class="node">
<title>Node1</title>
<g id="a_Node000001"><a xlink:title=" ">
<polygon fill="#999999" stroke="#666666" points="254,-39 176.5,-39 176.5,-19 254,-19 254,-39"/>
<text xml:space="preserve" text-anchor="middle" x="215.25" y="-25.5" font-family="Helvetica,sans-Serif" font-size="10.00">Player::Player</text>
</a>
</g>
</g>
<!-- Node2 -->
<g id="Node000002" class="node">
<title>Node2</title>
<g id="a_Node000002"><a xlink:href="class_a_i_player.html#a5adbc0c6afb721e7ea1ea755098bc89a" target="_top" xlink:title=" ">
<polygon fill="white" stroke="#666666" points="118.75,-58 21.75,-58 21.75,-38 118.75,-38 118.75,-58"/>
<text xml:space="preserve" text-anchor="middle" x="70.25" y="-44.5" font-family="Helvetica,sans-Serif" font-size="10.00">AIPlayer::AIPlayer</text>
</a>
</g>
</g>
<!-- Node1&#45;&gt;Node2 -->
<g id="edge1_Node000001_Node000002" class="edge">
<title>Node1&#45;&gt;Node2</title>
<g id="a_edge1_Node000001_Node000002"><a xlink:title=" ">
<path fill="none" stroke="#63b8ff" d="M165.23,-35.51C150.32,-37.49 133.95,-39.67 119.12,-41.64"/>
<polygon fill="#63b8ff" stroke="#63b8ff" points="165.35,-39.03 174.8,-34.24 164.43,-32.09 165.35,-39.03"/>
</a>
</g>
</g>
<!-- Node3 -->
<g id="Node000003" class="node">
<title>Node3</title>
<g id="a_Node000003"><a xlink:href="class_human_player.html#a205cd7659bbeca6adaaeca9cccb4786e" target="_top" xlink:title=" ">
<polygon fill="white" stroke="#666666" points="140.5,-20 0,-20 0,0 140.5,0 140.5,-20"/>
<text xml:space="preserve" text-anchor="middle" x="70.25" y="-6.5" font-family="Helvetica,sans-Serif" font-size="10.00">HumanPlayer::HumanPlayer</text>
</a>
</g>
</g>
<!-- Node1&#45;&gt;Node3 -->
<g id="edge2_Node000001_Node000003" class="edge">
<title>Node1&#45;&gt;Node3</title>
<g id="a_edge2_Node000001_Node000003"><a xlink:title=" ">
<path fill="none" stroke="#63b8ff" d="M164.89,-22.44C157.14,-21.41 149.01,-20.33 140.91,-19.26"/>
<polygon fill="#63b8ff" stroke="#63b8ff" points="164.43,-25.91 174.8,-23.76 165.35,-18.97 164.43,-25.91"/>
</a>
</g>
</g>
</g>
</svg>
