<?xml version="1.0" encoding="UTF-8" standalone="no"?>
<!DOCTYPE svg PUBLIC "-//W3C//DTD SVG 1.1//EN"
 "http://www.w3.org/Graphics/SVG/1.1/DTD/svg11.dtd">
<!-- Generated by graphviz version 13.0.1 (20250615.1724)
 -->
<!-- Title: Player::GetName Pages: 1 -->
<svg width="278pt" height="66pt"
 viewBox="0.00 0.00 278.00 66.00" xmlns="http://www.w3.org/2000/svg" xmlns:xlink="http://www.w3.org/1999/xlink">
<g id="graph0" class="graph" transform="scale(1 1) rotate(0) translate(4 62)">
<title>Player::GetName</title>
<!-- Node1 -->
<g id="Node000001" class="node">
<title>Node1</title>
<g id="a_Node000001"><a xlink:title=" ">
<polygon fill="#999999" stroke="#666666" points="269.75,-39 178,-39 178,-19 269.75,-19 269.75,-39"/>
<text xml:space="preserve" text-anchor="middle" x="223.88" y="-25.5" font-family="Helvetica,sans-Serif" font-size="10.00">Player::GetName</text>
</a>
</g>
</g>
<!-- Node2 -->
<g id="Node000002" class="node">
<title>Node2</title>
<g id="a_Node000002"><a xlink:href="class_a_i_player.html#a35c147bce988e5c362e38f195b9fb5eb" target="_top" xlink:title=" ">
<polygon fill="white" stroke="#666666" points="131.12,-58 10.88,-58 10.88,-38 131.12,-38 131.12,-58"/>
<text xml:space="preserve" text-anchor="middle" x="71" y="-44.5" font-family="Helvetica,sans-Serif" font-size="10.00">AIPlayer::InitializeShips</text>
</a>
</g>
</g>
<!-- Node1&#45;&gt;Node2 -->
<g id="edge1_Node000001_Node000002" class="edge">
<title>Node1&#45;&gt;Node2</title>
<g id="a_edge1_Node000001_Node000002"><a xlink:title=" ">
<path fill="none" stroke="#63b8ff" d="M166.44,-36.11C155.03,-37.54 143,-39.06 131.49,-40.51"/>
<polygon fill="#63b8ff" stroke="#63b8ff" points="166.62,-39.61 176.11,-34.89 165.75,-32.67 166.62,-39.61"/>
</a>
</g>
</g>
<!-- Node3 -->
<g id="Node000003" class="node">
<title>Node3</title>
<g id="a_Node000003"><a xlink:href="class_human_player.html#a6ce992de96ec5949aa1a34b275ffa129" target="_top" xlink:title=" ">
<polygon fill="white" stroke="#666666" points="142,-20 0,-20 0,0 142,0 142,-20"/>
<text xml:space="preserve" text-anchor="middle" x="71" y="-6.5" font-family="Helvetica,sans-Serif" font-size="10.00">HumanPlayer::InitializeShips</text>
</a>
</g>
</g>
<!-- Node1&#45;&gt;Node3 -->
<g id="edge2_Node000001_Node000003" class="edge">
<title>Node1&#45;&gt;Node3</title>
<g id="a_edge2_Node000001_Node000003"><a xlink:title=" ">
<path fill="none" stroke="#63b8ff" d="M166.38,-21.88C158.54,-20.9 150.41,-19.87 142.36,-18.86"/>
<polygon fill="#63b8ff" stroke="#63b8ff" points="165.75,-25.33 176.11,-23.11 166.62,-18.39 165.75,-25.33"/>
</a>
</g>
</g>
</g>
</svg>
