<?xml version="1.0" encoding="UTF-8" standalone="no"?>
<!DOCTYPE svg PUBLIC "-//W3C//DTD SVG 1.1//EN"
 "http://www.w3.org/Graphics/SVG/1.1/DTD/svg11.dtd">
<!-- Generated by graphviz version 13.0.1 (20250615.1724)
 -->
<!-- Title: AIPlayer::InitializeShips Pages: 1 -->
<svg width="460pt" height="142pt"
 viewBox="0.00 0.00 460.00 142.00" xmlns="http://www.w3.org/2000/svg" xmlns:xlink="http://www.w3.org/1999/xlink">
<g id="graph0" class="graph" transform="scale(1 1) rotate(0) translate(4 138)">
<title>AIPlayer::InitializeShips</title>
<!-- Node1 -->
<g id="Node000001" class="node">
<title>Node1</title>
<g id="a_Node000001"><a xlink:title=" ">
<polygon fill="#999999" stroke="#666666" points="120.25,-77 0,-77 0,-57 120.25,-57 120.25,-77"/>
<text xml:space="preserve" text-anchor="middle" x="60.12" y="-63.5" font-family="Helvetica,sans-Serif" font-size="10.00">AIPlayer::InitializeShips</text>
</a>
</g>
</g>
<!-- Node2 -->
<g id="Node000002" class="node">
<title>Node2</title>
<g id="a_Node000002"><a xlink:href="class_player.html#ac1f339df6ac57bb0b1a226efc39ba80e" target="_top" xlink:title=" ">
<polygon fill="white" stroke="#666666" points="252.12,-134 178.38,-134 178.38,-114 252.12,-114 252.12,-134"/>
<text xml:space="preserve" text-anchor="middle" x="215.25" y="-120.5" font-family="Helvetica,sans-Serif" font-size="10.00">Player::GetId</text>
</a>
</g>
</g>
<!-- Node1&#45;&gt;Node2 -->
<g id="edge1_Node000001_Node000002" class="edge">
<title>Node1&#45;&gt;Node2</title>
<g id="a_edge1_Node000001_Node000002"><a xlink:title=" ">
<path fill="none" stroke="#63b8ff" d="M85.99,-77.44C105.09,-85.33 132.18,-96.26 156.25,-105 160.73,-106.63 165.43,-108.27 170.13,-109.87"/>
<polygon fill="#63b8ff" stroke="#63b8ff" points="168.97,-113.17 179.56,-113.03 171.19,-106.54 168.97,-113.17"/>
</a>
</g>
</g>
<!-- Node3 -->
<g id="Node000003" class="node">
<title>Node3</title>
<g id="a_Node000003"><a xlink:href="class_player.html#affddef50f994746a860e2366e412917f" target="_top" xlink:title=" ">
<polygon fill="white" stroke="#666666" points="261.12,-96 169.38,-96 169.38,-76 261.12,-76 261.12,-96"/>
<text xml:space="preserve" text-anchor="middle" x="215.25" y="-82.5" font-family="Helvetica,sans-Serif" font-size="10.00">Player::GetName</text>
</a>
</g>
</g>
<!-- Node1&#45;&gt;Node3 -->
<g id="edge2_Node000001_Node000003" class="edge">
<title>Node1&#45;&gt;Node3</title>
<g id="a_edge2_Node000001_Node000003"><a xlink:title=" ">
<path fill="none" stroke="#63b8ff" d="M120.33,-74.35C132.57,-75.87 145.44,-77.46 157.59,-78.97"/>
<polygon fill="#63b8ff" stroke="#63b8ff" points="157.12,-82.44 167.48,-80.2 157.99,-75.49 157.12,-82.44"/>
</a>
</g>
</g>
<!-- Node4 -->
<g id="Node000004" class="node">
<title>Node4</title>
<g id="a_Node000004"><a xlink:href="class_game_board.html#a07da1609d0f7d0f45d92ffb5b1cbb344" target="_top" xlink:title=" ">
<polygon fill="white" stroke="#666666" points="274.25,-58 156.25,-58 156.25,-38 274.25,-38 274.25,-58"/>
<text xml:space="preserve" text-anchor="middle" x="215.25" y="-44.5" font-family="Helvetica,sans-Serif" font-size="10.00">GameBoard::PlaceShip</text>
</a>
</g>
</g>
<!-- Node1&#45;&gt;Node4 -->
<g id="edge3_Node000001_Node000004" class="edge">
<title>Node1&#45;&gt;Node4</title>
<g id="a_edge3_Node000001_Node000004"><a xlink:title=" ">
<path fill="none" stroke="#63b8ff" d="M120.33,-59.65C128.28,-58.67 136.49,-57.65 144.6,-56.64"/>
<polygon fill="#63b8ff" stroke="#63b8ff" points="144.97,-60.12 154.46,-55.42 144.1,-53.18 144.97,-60.12"/>
</a>
</g>
</g>
<!-- Node6 -->
<g id="Node000006" class="node">
<title>Node6</title>
<g id="a_Node000006"><a xlink:href="class_game_board.html#a903331f76329356e09fd6c76a4e87c62" target="_top" xlink:title=" ">
<polygon fill="white" stroke="#666666" points="265.25,-20 165.25,-20 165.25,0 265.25,0 265.25,-20"/>
<text xml:space="preserve" text-anchor="middle" x="215.25" y="-6.5" font-family="Helvetica,sans-Serif" font-size="10.00">GameBoard::Reset</text>
</a>
</g>
</g>
<!-- Node1&#45;&gt;Node6 -->
<g id="edge5_Node000001_Node000006" class="edge">
<title>Node1&#45;&gt;Node6</title>
<g id="a_edge5_Node000001_Node000006"><a xlink:title=" ">
<path fill="none" stroke="#63b8ff" d="M85.99,-56.56C105.09,-48.67 132.18,-37.74 156.25,-29 160.73,-27.37 165.43,-25.73 170.13,-24.13"/>
<polygon fill="#63b8ff" stroke="#63b8ff" points="171.19,-27.46 179.56,-20.97 168.97,-20.83 171.19,-27.46"/>
</a>
</g>
</g>
<!-- Node5 -->
<g id="Node000005" class="node">
<title>Node5</title>
<g id="a_Node000005"><a xlink:href="_game_utils_8cpp.html#a90bc854df7463e2c7b5937afb79e79a2" target="_top" xlink:title=" ">
<polygon fill="white" stroke="#666666" points="452.25,-58 310.25,-58 310.25,-38 452.25,-38 452.25,-58"/>
<text xml:space="preserve" text-anchor="middle" x="381.25" y="-44.5" font-family="Helvetica,sans-Serif" font-size="10.00">CheckShipPlacementValidity</text>
</a>
</g>
</g>
<!-- Node4&#45;&gt;Node5 -->
<g id="edge4_Node000004_Node000005" class="edge">
<title>Node4&#45;&gt;Node5</title>
<g id="a_edge4_Node000004_Node000005"><a xlink:title=" ">
<path fill="none" stroke="#63b8ff" d="M274.53,-48C282.29,-48 290.36,-48 298.43,-48"/>
<polygon fill="#63b8ff" stroke="#63b8ff" points="298.29,-51.5 308.29,-48 298.29,-44.5 298.29,-51.5"/>
</a>
</g>
</g>
</g>
</svg>
