<?xml version="1.0" encoding="UTF-8" standalone="no"?>
<!DOCTYPE svg PUBLIC "-//W3C//DTD SVG 1.1//EN"
 "http://www.w3.org/Graphics/SVG/1.1/DTD/svg11.dtd">
<!-- Generated by graphviz version 13.0.1 (20250615.1724)
 -->
<!-- Title: Player Pages: 1 -->
<svg width="154pt" height="84pt"
 viewBox="0.00 0.00 154.00 84.00" xmlns="http://www.w3.org/2000/svg" xmlns:xlink="http://www.w3.org/1999/xlink">
<g id="graph0" class="graph" transform="scale(1 1) rotate(0) translate(4 80)">
<title>Player</title>
<!-- Node1 -->
<g id="Node000001" class="node">
<title>Node1</title>
<g id="a_Node000001"><a xlink:title=" ">
<polygon fill="#999999" stroke="#666666" points="89.62,-76 45.88,-76 45.88,-56 89.62,-56 89.62,-76"/>
<text xml:space="preserve" text-anchor="middle" x="67.75" y="-62.5" font-family="Helvetica,sans-Serif" font-size="10.00">Player</text>
</a>
</g>
</g>
<!-- Node2 -->
<g id="Node000002" class="node">
<title>Node2</title>
<g id="a_Node000002"><a xlink:href="class_a_i_player.html" target="_top" xlink:title=" ">
<polygon fill="white" stroke="#666666" points="53.5,-20 0,-20 0,0 53.5,0 53.5,-20"/>
<text xml:space="preserve" text-anchor="middle" x="26.75" y="-6.5" font-family="Helvetica,sans-Serif" font-size="10.00">AIPlayer</text>
</a>
</g>
</g>
<!-- Node1&#45;&gt;Node2 -->
<g id="edge1_Node000001_Node000002" class="edge">
<title>Node1&#45;&gt;Node2</title>
<g id="a_edge1_Node000001_Node000002"><a xlink:title=" ">
<path fill="none" stroke="#63b8ff" d="M53.66,-46.44C46.96,-37.62 39.25,-27.47 33.81,-20.3"/>
<polygon fill="#63b8ff" stroke="#63b8ff" points="50.86,-48.54 59.69,-54.39 56.43,-44.31 50.86,-48.54"/>
</a>
</g>
</g>
<!-- Node3 -->
<g id="Node000003" class="node">
<title>Node3</title>
<g id="a_Node000003"><a xlink:href="class_human_player.html" target="_top" xlink:title=" ">
<polygon fill="white" stroke="#666666" points="146.38,-20 71.12,-20 71.12,0 146.38,0 146.38,-20"/>
<text xml:space="preserve" text-anchor="middle" x="108.75" y="-6.5" font-family="Helvetica,sans-Serif" font-size="10.00">HumanPlayer</text>
</a>
</g>
</g>
<!-- Node1&#45;&gt;Node3 -->
<g id="edge2_Node000001_Node000003" class="edge">
<title>Node1&#45;&gt;Node3</title>
<g id="a_edge2_Node000001_Node000003"><a xlink:title=" ">
<path fill="none" stroke="#63b8ff" d="M81.84,-46.44C88.54,-37.62 96.25,-27.47 101.69,-20.3"/>
<polygon fill="#63b8ff" stroke="#63b8ff" points="79.07,-44.31 75.81,-54.39 84.64,-48.54 79.07,-44.31"/>
</a>
</g>
</g>
</g>
</svg>
