<?xml version="1.0" encoding="UTF-8" standalone="no"?>
<!DOCTYPE svg PUBLIC "-//W3C//DTD SVG 1.1//EN"
 "http://www.w3.org/Graphics/SVG/1.1/DTD/svg11.dtd">
<!-- Generated by graphviz version 13.0.1 (20250615.1724)
 -->
<!-- Title: HumanPlayer Pages: 1 -->
<svg width="103pt" height="159pt"
 viewBox="0.00 0.00 103.00 159.00" xmlns="http://www.w3.org/2000/svg" xmlns:xlink="http://www.w3.org/1999/xlink">
<g id="graph0" class="graph" transform="scale(1 1) rotate(0) translate(4 155)">
<title>HumanPlayer</title>
<!-- Node1 -->
<g id="Node000001" class="node">
<title>Node1</title>
<g id="a_Node000001"><a xlink:title=" ">
<polygon fill="#999999" stroke="#666666" points="75.25,-20 0,-20 0,0 75.25,0 75.25,-20"/>
<text xml:space="preserve" text-anchor="middle" x="37.62" y="-6.5" font-family="Helvetica,sans-Serif" font-size="10.00">HumanPlayer</text>
</a>
</g>
</g>
<!-- Node2 -->
<g id="Node000002" class="node">
<title>Node2</title>
<g id="a_Node000002"><a xlink:href="class_player.html" target="_top" xlink:title=" ">
<polygon fill="white" stroke="#666666" points="59.5,-77 15.75,-77 15.75,-57 59.5,-57 59.5,-77"/>
<text xml:space="preserve" text-anchor="middle" x="37.62" y="-63.5" font-family="Helvetica,sans-Serif" font-size="10.00">Player</text>
</a>
</g>
</g>
<!-- Node2&#45;&gt;Node1 -->
<g id="edge1_Node000001_Node000002" class="edge">
<title>Node2&#45;&gt;Node1</title>
<g id="a_edge1_Node000001_Node000002"><a xlink:title=" ">
<path fill="none" stroke="#63b8ff" d="M37.62,-45.69C37.62,-36.97 37.62,-27.22 37.62,-20.28"/>
<polygon fill="#63b8ff" stroke="#63b8ff" points="34.13,-45.4 37.63,-55.4 41.13,-45.4 34.13,-45.4"/>
</a>
</g>
</g>
<!-- Node3 -->
<g id="Node000003" class="node">
<title>Node3</title>
<g id="a_Node000003"><a xlink:href="class_game_board.html" target="_top" xlink:title=" ">
<polygon fill="white" stroke="#666666" points="71.5,-151 3.75,-151 3.75,-131 71.5,-131 71.5,-151"/>
<text xml:space="preserve" text-anchor="middle" x="37.62" y="-137.5" font-family="Helvetica,sans-Serif" font-size="10.00">GameBoard</text>
</a>
</g>
</g>
<!-- Node3&#45;&gt;Node2 -->
<g id="edge2_Node000002_Node000003" class="edge">
<title>Node3&#45;&gt;Node2</title>
<g id="a_edge2_Node000002_Node000003"><a xlink:title=" ">
<path fill="none" stroke="#9a32cd" stroke-dasharray="5,2" d="M37.62,-119.18C37.62,-105.29 37.62,-87.71 37.62,-77.19"/>
<polygon fill="#9a32cd" stroke="#9a32cd" points="34.13,-119.07 37.63,-129.07 41.13,-119.07 34.13,-119.07"/>
</a>
</g>
<text xml:space="preserve" text-anchor="start" x="40.62" y="-100.5" font-family="Helvetica,sans-Serif" font-size="10.00" fill="grey">playerBoard</text>
</g>
</g>
</svg>
