<?xml version="1.0" encoding="UTF-8" standalone="no"?>
<!DOCTYPE svg PUBLIC "-//W3C//DTD SVG 1.1//EN"
 "http://www.w3.org/Graphics/SVG/1.1/DTD/svg11.dtd">
<!-- Generated by graphviz version 13.0.1 (20250615.1724)
 -->
<!-- Title: HumanPlayer::InitializeShips Pages: 1 -->
<svg width="286pt" height="66pt"
 viewBox="0.00 0.00 286.00 66.00" xmlns="http://www.w3.org/2000/svg" xmlns:xlink="http://www.w3.org/1999/xlink">
<g id="graph0" class="graph" transform="scale(1 1) rotate(0) translate(4 62)">
<title>HumanPlayer::InitializeShips</title>
<!-- Node1 -->
<g id="Node000001" class="node">
<title>Node1</title>
<g id="a_Node000001"><a xlink:title=" ">
<polygon fill="#999999" stroke="#666666" points="142,-39 0,-39 0,-19 142,-19 142,-39"/>
<text xml:space="preserve" text-anchor="middle" x="71" y="-25.5" font-family="Helvetica,sans-Serif" font-size="10.00">HumanPlayer::InitializeShips</text>
</a>
</g>
</g>
<!-- Node2 -->
<g id="Node000002" class="node">
<title>Node2</title>
<g id="a_Node000002"><a xlink:href="class_player.html#affddef50f994746a860e2366e412917f" target="_top" xlink:title=" ">
<polygon fill="white" stroke="#666666" points="273.88,-58 182.12,-58 182.12,-38 273.88,-38 273.88,-58"/>
<text xml:space="preserve" text-anchor="middle" x="228" y="-44.5" font-family="Helvetica,sans-Serif" font-size="10.00">Player::GetName</text>
</a>
</g>
</g>
<!-- Node1&#45;&gt;Node2 -->
<g id="edge1_Node000001_Node000002" class="edge">
<title>Node1&#45;&gt;Node2</title>
<g id="a_edge1_Node000001_Node000002"><a xlink:title=" ">
<path fill="none" stroke="#63b8ff" d="M142.24,-37.61C151.71,-38.77 161.31,-39.95 170.49,-41.07"/>
<polygon fill="#63b8ff" stroke="#63b8ff" points="170,-44.54 180.35,-42.28 170.85,-37.59 170,-44.54"/>
</a>
</g>
</g>
<!-- Node3 -->
<g id="Node000003" class="node">
<title>Node3</title>
<g id="a_Node000003"><a xlink:href="class_game_board.html#a903331f76329356e09fd6c76a4e87c62" target="_top" xlink:title=" ">
<polygon fill="white" stroke="#666666" points="278,-20 178,-20 178,0 278,0 278,-20"/>
<text xml:space="preserve" text-anchor="middle" x="228" y="-6.5" font-family="Helvetica,sans-Serif" font-size="10.00">GameBoard::Reset</text>
</a>
</g>
</g>
<!-- Node1&#45;&gt;Node3 -->
<g id="edge2_Node000001_Node000003" class="edge">
<title>Node1&#45;&gt;Node3</title>
<g id="a_edge2_Node000001_Node000003"><a xlink:title=" ">
<path fill="none" stroke="#63b8ff" d="M142.24,-20.39C150.32,-19.4 158.49,-18.4 166.42,-17.43"/>
<polygon fill="#63b8ff" stroke="#63b8ff" points="166.82,-20.9 176.32,-16.21 165.97,-13.95 166.82,-20.9"/>
</a>
</g>
</g>
</g>
</svg>
