<?xml version="1.0" encoding="UTF-8" standalone="no"?>
<!DOCTYPE svg PUBLIC "-//W3C//DTD SVG 1.1//EN"
 "http://www.w3.org/Graphics/SVG/1.1/DTD/svg11.dtd">
<!-- Generated by graphviz version 13.0.1 (20250615.1724)
 -->
<!-- Title: Graphical Class Hierarchy Pages: 1 -->
<svg width="163pt" height="66pt"
 viewBox="0.00 0.00 163.00 66.00" xmlns="http://www.w3.org/2000/svg" xmlns:xlink="http://www.w3.org/1999/xlink">
<g id="graph0" class="graph" transform="scale(1 1) rotate(0) translate(4 62)">
<title>Graphical Class Hierarchy</title>
<!-- Node0 -->
<g id="Node000000" class="node">
<title>Node0</title>
<g id="a_Node000000"><a xlink:href="class_player.html" target="_top" xlink:title=" ">
<polygon fill="white" stroke="#666666" points="43.75,-39 0,-39 0,-19 43.75,-19 43.75,-39"/>
<text xml:space="preserve" text-anchor="middle" x="21.88" y="-25.5" font-family="Helvetica,sans-Serif" font-size="10.00">Player</text>
</a>
</g>
</g>
<!-- Node1 -->
<g id="Node000001" class="node">
<title>Node1</title>
<g id="a_Node000001"><a xlink:href="class_a_i_player.html" target="_top" xlink:title=" ">
<polygon fill="white" stroke="#666666" points="144.12,-58 90.62,-58 90.62,-38 144.12,-38 144.12,-58"/>
<text xml:space="preserve" text-anchor="middle" x="117.38" y="-44.5" font-family="Helvetica,sans-Serif" font-size="10.00">AIPlayer</text>
</a>
</g>
</g>
<!-- Node0&#45;&gt;Node1 -->
<g id="edge1_Node000000_Node000001" class="edge">
<title>Node0&#45;&gt;Node1</title>
<g id="a_edge1_Node000000_Node000001"><a xlink:title=" ">
<path fill="none" stroke="#63b8ff" d="M55.03,-35.53C66.52,-37.87 79.31,-40.47 90.23,-42.69"/>
<polygon fill="#63b8ff" stroke="#63b8ff" points="56.07,-32.17 45.57,-33.61 54.68,-39.03 56.07,-32.17"/>
</a>
</g>
</g>
<!-- Node2 -->
<g id="Node000002" class="node">
<title>Node2</title>
<g id="a_Node000002"><a xlink:href="class_human_player.html" target="_top" xlink:title=" ">
<polygon fill="white" stroke="#666666" points="155,-20 79.75,-20 79.75,0 155,0 155,-20"/>
<text xml:space="preserve" text-anchor="middle" x="117.38" y="-6.5" font-family="Helvetica,sans-Serif" font-size="10.00">HumanPlayer</text>
</a>
</g>
</g>
<!-- Node0&#45;&gt;Node2 -->
<g id="edge2_Node000000_Node000002" class="edge">
<title>Node0&#45;&gt;Node2</title>
<g id="a_edge2_Node000000_Node000002"><a xlink:title=" ">
<path fill="none" stroke="#63b8ff" d="M55.33,-22.4C63.12,-20.82 71.49,-19.12 79.46,-17.5"/>
<polygon fill="#63b8ff" stroke="#63b8ff" points="54.68,-18.97 45.57,-24.39 56.07,-25.83 54.68,-18.97"/>
</a>
</g>
</g>
</g>
</svg>
