<?xml version="1.0" encoding="UTF-8" standalone="no"?>
<!DOCTYPE svg PUBLIC "-//W3C//DTD SVG 1.1//EN"
 "http://www.w3.org/Graphics/SVG/1.1/DTD/svg11.dtd">
<!-- Generated by graphviz version 13.0.1 (20250615.1724)
 -->
<!-- Title: main.cpp Pages: 1 -->
<svg width="674pt" height="308pt"
 viewBox="0.00 0.00 674.00 308.00" xmlns="http://www.w3.org/2000/svg" xmlns:xlink="http://www.w3.org/1999/xlink">
<g id="graph0" class="graph" transform="scale(1 1) rotate(0) translate(4 304)">
<title>main.cpp</title>
<!-- Node1 -->
<g id="Node000001" class="node">
<title>Node1</title>
<g id="a_Node000001"><a xlink:title=" ">
<polygon fill="#999999" stroke="#666666" points="170.88,-300 115.12,-300 115.12,-280 170.88,-280 170.88,-300"/>
<text xml:space="preserve" text-anchor="middle" x="143" y="-286.5" font-family="Helvetica,sans-Serif" font-size="10.00">main.cpp</text>
</a>
</g>
</g>
<!-- Node2 -->
<g id="Node000002" class="node">
<title>Node2</title>
<g id="a_Node000002"><a xlink:title=" ">
<polygon fill="#e0e0e0" stroke="#999999" points="99.75,-20 52.25,-20 52.25,0 99.75,0 99.75,-20"/>
<text xml:space="preserve" text-anchor="middle" x="76" y="-6.5" font-family="Helvetica,sans-Serif" font-size="10.00">raylib.h</text>
</a>
</g>
</g>
<!-- Node1&#45;&gt;Node2 -->
<g id="edge1_Node000001_Node000002" class="edge">
<title>Node1&#45;&gt;Node2</title>
<g id="a_edge1_Node000001_Node000002"><a xlink:title=" ">
<path fill="none" stroke="#63b8ff" d="M114.75,-281.25C73.07,-267.9 0,-236.32 0,-179 0,-179 0,-179 0,-121 0,-82.24 32.34,-47.24 54.83,-27.59"/>
<polygon fill="#63b8ff" stroke="#63b8ff" points="56.87,-30.44 62.29,-21.34 52.37,-25.08 56.87,-30.44"/>
</a>
</g>
</g>
<!-- Node3 -->
<g id="Node000003" class="node">
<title>Node3</title>
<g id="a_Node000003"><a xlink:href="_game_session_8h.html" target="_top" xlink:title=" ">
<polygon fill="white" stroke="#666666" points="337.88,-244 252.12,-244 252.12,-224 337.88,-224 337.88,-244"/>
<text xml:space="preserve" text-anchor="middle" x="295" y="-230.5" font-family="Helvetica,sans-Serif" font-size="10.00">GameSession.h</text>
</a>
</g>
</g>
<!-- Node1&#45;&gt;Node3 -->
<g id="edge2_Node000001_Node000003" class="edge">
<title>Node1&#45;&gt;Node3</title>
<g id="a_edge2_Node000001_Node000003"><a xlink:title=" ">
<path fill="none" stroke="#63b8ff" d="M169.48,-279.59C193.85,-270.94 230.25,-258 257.59,-248.29"/>
<polygon fill="#63b8ff" stroke="#63b8ff" points="258.64,-251.63 266.89,-244.99 256.3,-245.04 258.64,-251.63"/>
</a>
</g>
</g>
<!-- Node3&#45;&gt;Node2 -->
<g id="edge3_Node000003_Node000002" class="edge">
<title>Node3&#45;&gt;Node2</title>
<g id="a_edge3_Node000003_Node000002"><a xlink:title=" ">
<path fill="none" stroke="#63b8ff" d="M270.49,-223.52C223.8,-204 122.94,-154.45 80,-76 72.6,-62.47 71.95,-44.91 72.96,-31.45"/>
<polygon fill="#63b8ff" stroke="#63b8ff" points="76.43,-31.9 74.09,-21.57 69.47,-31.1 76.43,-31.9"/>
</a>
</g>
</g>
<!-- Node4 -->
<g id="Node000004" class="node">
<title>Node4</title>
<g id="a_Node000004"><a xlink:href="_game_board_8h.html" target="_top" xlink:title=" ">
<polygon fill="white" stroke="#666666" points="270,-132 194,-132 194,-112 270,-112 270,-132"/>
<text xml:space="preserve" text-anchor="middle" x="232" y="-118.5" font-family="Helvetica,sans-Serif" font-size="10.00">GameBoard.h</text>
</a>
</g>
</g>
<!-- Node3&#45;&gt;Node4 -->
<g id="edge4_Node000003_Node000004" class="edge">
<title>Node3&#45;&gt;Node4</title>
<g id="a_edge4_Node000003_Node000004"><a xlink:title=" ">
<path fill="none" stroke="#63b8ff" d="M286.45,-223.51C278.85,-214.74 267.76,-201.12 260,-188 251.48,-173.59 244.09,-156.1 239.05,-142.89"/>
<polygon fill="#63b8ff" stroke="#63b8ff" points="242.37,-141.78 235.64,-133.6 235.8,-144.2 242.37,-141.78"/>
</a>
</g>
</g>
<!-- Node7 -->
<g id="Node000007" class="node">
<title>Node7</title>
<g id="a_Node000007"><a xlink:title=" ">
<polygon fill="#e0e0e0" stroke="#999999" points="403.5,-20 360.5,-20 360.5,0 403.5,0 403.5,-20"/>
<text xml:space="preserve" text-anchor="middle" x="382" y="-6.5" font-family="Helvetica,sans-Serif" font-size="10.00">vector</text>
</a>
</g>
</g>
<!-- Node3&#45;&gt;Node7 -->
<g id="edge29_Node000003_Node000007" class="edge">
<title>Node3&#45;&gt;Node7</title>
<g id="a_edge29_Node000003_Node000007"><a xlink:title=" ">
<path fill="none" stroke="#63b8ff" d="M338.17,-231.94C402.33,-227.75 520.98,-209.32 574,-132 579.03,-124.67 578.59,-119.61 574,-112 556.03,-82.25 464.2,-42.91 414.33,-23.26"/>
<polygon fill="#63b8ff" stroke="#63b8ff" points="415.78,-20.07 405.19,-19.7 413.24,-26.59 415.78,-20.07"/>
</a>
</g>
</g>
<!-- Node10 -->
<g id="Node000010" class="node">
<title>Node10</title>
<g id="a_Node000010"><a xlink:href="_game_utils_8h.html" target="_top" xlink:title=" ">
<polygon fill="white" stroke="#666666" points="611.38,-76 540.62,-76 540.62,-56 611.38,-56 611.38,-76"/>
<text xml:space="preserve" text-anchor="middle" x="576" y="-62.5" font-family="Helvetica,sans-Serif" font-size="10.00">GameUtils.h</text>
</a>
</g>
</g>
<!-- Node3&#45;&gt;Node10 -->
<g id="edge27_Node000003_Node000010" class="edge">
<title>Node3&#45;&gt;Node10</title>
<g id="a_edge27_Node000003_Node000010"><a xlink:title=" ">
<path fill="none" stroke="#63b8ff" d="M338.21,-233.41C415.54,-233.13 572.74,-227.56 607,-188 629.11,-162.47 617.03,-144.25 607,-112 603.99,-102.32 598.09,-92.88 592.24,-85.16"/>
<polygon fill="#63b8ff" stroke="#63b8ff" points="595.08,-83.11 586.03,-77.6 589.67,-87.55 595.08,-83.11"/>
</a>
</g>
</g>
<!-- Node15 -->
<g id="Node000015" class="node">
<title>Node15</title>
<g id="a_Node000015"><a xlink:href="_player_8h.html" target="_top" xlink:title=" ">
<polygon fill="white" stroke="#666666" points="420,-188 368,-188 368,-168 420,-168 420,-188"/>
<text xml:space="preserve" text-anchor="middle" x="394" y="-174.5" font-family="Helvetica,sans-Serif" font-size="10.00">Player.h</text>
</a>
</g>
</g>
<!-- Node3&#45;&gt;Node15 -->
<g id="edge19_Node000003_Node000015" class="edge">
<title>Node3&#45;&gt;Node15</title>
<g id="a_edge19_Node000003_Node000015"><a xlink:title=" ">
<path fill="none" stroke="#63b8ff" d="M312.24,-223.59C327.34,-215.36 349.53,-203.26 366.98,-193.74"/>
<polygon fill="#63b8ff" stroke="#63b8ff" points="368.19,-197.07 375.29,-189.2 364.84,-190.92 368.19,-197.07"/>
</a>
</g>
</g>
<!-- Node20 -->
<g id="Node000020" class="node">
<title>Node20</title>
<g id="a_Node000020"><a xlink:title=" ">
<polygon fill="#e0e0e0" stroke="#999999" points="320.62,-188 269.38,-188 269.38,-168 320.62,-168 320.62,-188"/>
<text xml:space="preserve" text-anchor="middle" x="295" y="-174.5" font-family="Helvetica,sans-Serif" font-size="10.00">memory</text>
</a>
</g>
</g>
<!-- Node3&#45;&gt;Node20 -->
<g id="edge28_Node000003_Node000020" class="edge">
<title>Node3&#45;&gt;Node20</title>
<g id="a_edge28_Node000003_Node000020"><a xlink:title=" ">
<path fill="none" stroke="#63b8ff" d="M295,-223.59C295,-217.01 295,-207.96 295,-199.73"/>
<polygon fill="#63b8ff" stroke="#63b8ff" points="298.5,-199.81 295,-189.81 291.5,-199.81 298.5,-199.81"/>
</a>
</g>
</g>
<!-- Node4&#45;&gt;Node2 -->
<g id="edge5_Node000004_Node000002" class="edge">
<title>Node4&#45;&gt;Node2</title>
<g id="a_edge5_Node000004_Node000002"><a xlink:title=" ">
<path fill="none" stroke="#63b8ff" d="M193.8,-118.04C163.09,-113.65 120.94,-102.81 95,-76 83.49,-64.11 78.9,-45.64 77.09,-31.42"/>
<polygon fill="#63b8ff" stroke="#63b8ff" points="80.61,-31.46 76.25,-21.81 73.63,-32.07 80.61,-31.46"/>
</a>
</g>
</g>
<!-- Node5 -->
<g id="Node000005" class="node">
<title>Node5</title>
<g id="a_Node000005"><a xlink:href="_cell_8h.html" target="_top" xlink:title=" ">
<polygon fill="white" stroke="#666666" points="291.75,-76 250.25,-76 250.25,-56 291.75,-56 291.75,-76"/>
<text xml:space="preserve" text-anchor="middle" x="271" y="-62.5" font-family="Helvetica,sans-Serif" font-size="10.00">Cell.h</text>
</a>
</g>
</g>
<!-- Node4&#45;&gt;Node5 -->
<g id="edge6_Node000004_Node000005" class="edge">
<title>Node4&#45;&gt;Node5</title>
<g id="a_edge6_Node000004_Node000005"><a xlink:title=" ">
<path fill="none" stroke="#63b8ff" d="M238.79,-111.59C243.99,-104.39 251.33,-94.23 257.69,-85.43"/>
<polygon fill="#63b8ff" stroke="#63b8ff" points="260.38,-87.68 263.4,-77.53 254.71,-83.58 260.38,-87.68"/>
</a>
</g>
</g>
<!-- Node6 -->
<g id="Node000006" class="node">
<title>Node6</title>
<g id="a_Node000006"><a xlink:href="_ship_8h.html" target="_top" xlink:title=" ">
<polygon fill="white" stroke="#666666" points="353.88,-76 310.12,-76 310.12,-56 353.88,-56 353.88,-76"/>
<text xml:space="preserve" text-anchor="middle" x="332" y="-62.5" font-family="Helvetica,sans-Serif" font-size="10.00">Ship.h</text>
</a>
</g>
</g>
<!-- Node4&#45;&gt;Node6 -->
<g id="edge7_Node000004_Node000006" class="edge">
<title>Node4&#45;&gt;Node6</title>
<g id="a_edge7_Node000004_Node000006"><a xlink:title=" ">
<path fill="none" stroke="#63b8ff" d="M249.42,-111.59C264.67,-103.36 287.08,-91.26 304.71,-81.74"/>
<polygon fill="#63b8ff" stroke="#63b8ff" points="305.98,-85.03 313.11,-77.2 302.65,-78.87 305.98,-85.03"/>
</a>
</g>
</g>
<!-- Node4&#45;&gt;Node7 -->
<g id="edge10_Node000004_Node000007" class="edge">
<title>Node4&#45;&gt;Node7</title>
<g id="a_edge10_Node000004_Node000007"><a xlink:title=" ">
<path fill="none" stroke="#63b8ff" d="M270.42,-111.98C304.24,-103.31 350.05,-89.57 363,-76 374.43,-64.03 379.03,-45.57 380.86,-31.38"/>
<polygon fill="#63b8ff" stroke="#63b8ff" points="384.32,-32.05 381.72,-21.78 377.34,-31.43 384.32,-32.05"/>
</a>
</g>
</g>
<!-- Node8 -->
<g id="Node000008" class="node">
<title>Node8</title>
<g id="a_Node000008"><a xlink:title=" ">
<polygon fill="#e0e0e0" stroke="#999999" points="157.75,-76 104.25,-76 104.25,-56 157.75,-56 157.75,-76"/>
<text xml:space="preserve" text-anchor="middle" x="131" y="-62.5" font-family="Helvetica,sans-Serif" font-size="10.00">iostream</text>
</a>
</g>
</g>
<!-- Node4&#45;&gt;Node8 -->
<g id="edge11_Node000004_Node000008" class="edge">
<title>Node4&#45;&gt;Node8</title>
<g id="a_edge11_Node000004_Node000008"><a xlink:title=" ">
<path fill="none" stroke="#63b8ff" d="M214.41,-111.59C199.08,-103.4 176.58,-91.37 158.81,-81.87"/>
<polygon fill="#63b8ff" stroke="#63b8ff" points="160.53,-78.82 150.06,-77.19 157.23,-84.99 160.53,-78.82"/>
</a>
</g>
</g>
<!-- Node9 -->
<g id="Node000009" class="node">
<title>Node9</title>
<g id="a_Node000009"><a xlink:title=" ">
<polygon fill="#e0e0e0" stroke="#999999" points="231.88,-76 176.12,-76 176.12,-56 231.88,-56 231.88,-76"/>
<text xml:space="preserve" text-anchor="middle" x="204" y="-62.5" font-family="Helvetica,sans-Serif" font-size="10.00">algorithm</text>
</a>
</g>
</g>
<!-- Node4&#45;&gt;Node9 -->
<g id="edge12_Node000004_Node000009" class="edge">
<title>Node4&#45;&gt;Node9</title>
<g id="a_edge12_Node000004_Node000009"><a xlink:title=" ">
<path fill="none" stroke="#63b8ff" d="M227.12,-111.59C223.51,-104.63 218.46,-94.89 214,-86.29"/>
<polygon fill="#63b8ff" stroke="#63b8ff" points="217.23,-84.91 209.52,-77.64 211.01,-88.13 217.23,-84.91"/>
</a>
</g>
</g>
<!-- Node4&#45;&gt;Node10 -->
<g id="edge13_Node000004_Node000010" class="edge">
<title>Node4&#45;&gt;Node10</title>
<g id="a_edge13_Node000004_Node000010"><a xlink:title=" ">
<path fill="none" stroke="#63b8ff" d="M270.45,-113.51C273.34,-112.99 276.22,-112.48 279,-112 367.19,-96.88 470.56,-81.82 529.16,-73.52"/>
<polygon fill="#63b8ff" stroke="#63b8ff" points="529.36,-77.03 538.77,-72.17 528.38,-70.1 529.36,-77.03"/>
</a>
</g>
</g>
<!-- Node6&#45;&gt;Node2 -->
<g id="edge8_Node000006_Node000002" class="edge">
<title>Node6&#45;&gt;Node2</title>
<g id="a_edge8_Node000006_Node000002"><a xlink:title=" ">
<path fill="none" stroke="#63b8ff" d="M309.71,-58.28C306.79,-57.48 303.83,-56.69 301,-56 234.4,-39.7 155.65,-24.98 111.19,-17.08"/>
<polygon fill="#63b8ff" stroke="#63b8ff" points="112.07,-13.68 101.61,-15.39 110.85,-20.57 112.07,-13.68"/>
</a>
</g>
</g>
<!-- Node6&#45;&gt;Node7 -->
<g id="edge9_Node000006_Node000007" class="edge">
<title>Node6&#45;&gt;Node7</title>
<g id="a_edge9_Node000006_Node000007"><a xlink:title=" ">
<path fill="none" stroke="#63b8ff" d="M340.71,-55.59C347.59,-48.16 357.39,-37.58 365.72,-28.58"/>
<polygon fill="#63b8ff" stroke="#63b8ff" points="368.14,-31.12 372.36,-21.41 363,-26.37 368.14,-31.12"/>
</a>
</g>
</g>
<!-- Node10&#45;&gt;Node2 -->
<g id="edge14_Node000010_Node000002" class="edge">
<title>Node10&#45;&gt;Node2</title>
<g id="a_edge14_Node000010_Node000002"><a xlink:title=" ">
<path fill="none" stroke="#63b8ff" d="M540.44,-61.16C448.42,-51.22 203.23,-24.74 111.39,-14.82"/>
<polygon fill="#63b8ff" stroke="#63b8ff" points="111.8,-11.35 101.48,-13.75 111.05,-18.31 111.8,-11.35"/>
</a>
</g>
</g>
<!-- Node11 -->
<g id="Node000011" class="node">
<title>Node11</title>
<g id="a_Node000011"><a xlink:title=" ">
<polygon fill="#e0e0e0" stroke="#999999" points="666,-20 626,-20 626,0 666,0 666,-20"/>
<text xml:space="preserve" text-anchor="middle" x="646" y="-6.5" font-family="Helvetica,sans-Serif" font-size="10.00">string</text>
</a>
</g>
</g>
<!-- Node10&#45;&gt;Node11 -->
<g id="edge15_Node000010_Node000011" class="edge">
<title>Node10&#45;&gt;Node11</title>
<g id="a_edge15_Node000010_Node000011"><a xlink:title=" ">
<path fill="none" stroke="#63b8ff" d="M588.19,-55.59C598.33,-47.77 612.99,-36.46 625.01,-27.19"/>
<polygon fill="#63b8ff" stroke="#63b8ff" points="626.97,-30.1 632.75,-21.22 622.69,-24.56 626.97,-30.1"/>
</a>
</g>
</g>
<!-- Node12 -->
<g id="Node000012" class="node">
<title>Node12</title>
<g id="a_Node000012"><a xlink:title=" ">
<polygon fill="#e0e0e0" stroke="#999999" points="482.5,-20 421.5,-20 421.5,0 482.5,0 482.5,-20"/>
<text xml:space="preserve" text-anchor="middle" x="452" y="-6.5" font-family="Helvetica,sans-Serif" font-size="10.00">filesystem</text>
</a>
</g>
</g>
<!-- Node10&#45;&gt;Node12 -->
<g id="edge16_Node000010_Node000012" class="edge">
<title>Node10&#45;&gt;Node12</title>
<g id="a_edge16_Node000010_Node000012"><a xlink:title=" ">
<path fill="none" stroke="#63b8ff" d="M554.4,-55.59C535.05,-47.17 506.4,-34.69 484.32,-25.07"/>
<polygon fill="#63b8ff" stroke="#63b8ff" points="485.72,-21.87 475.16,-21.08 482.93,-28.29 485.72,-21.87"/>
</a>
</g>
</g>
<!-- Node13 -->
<g id="Node000013" class="node">
<title>Node13</title>
<g id="a_Node000013"><a xlink:title=" ">
<polygon fill="#e0e0e0" stroke="#999999" points="549.5,-20 500.5,-20 500.5,0 549.5,0 549.5,-20"/>
<text xml:space="preserve" text-anchor="middle" x="525" y="-6.5" font-family="Helvetica,sans-Serif" font-size="10.00">fstream</text>
</a>
</g>
</g>
<!-- Node10&#45;&gt;Node13 -->
<g id="edge17_Node000010_Node000013" class="edge">
<title>Node10&#45;&gt;Node13</title>
<g id="a_edge17_Node000010_Node000013"><a xlink:title=" ">
<path fill="none" stroke="#63b8ff" d="M567.12,-55.59C560.1,-48.16 550.1,-37.58 541.61,-28.58"/>
<polygon fill="#63b8ff" stroke="#63b8ff" points="544.23,-26.27 534.82,-21.4 539.14,-31.07 544.23,-26.27"/>
</a>
</g>
</g>
<!-- Node14 -->
<g id="Node000014" class="node">
<title>Node14</title>
<g id="a_Node000014"><a xlink:title=" ">
<polygon fill="#e0e0e0" stroke="#999999" points="608,-20 568,-20 568,0 608,0 608,-20"/>
<text xml:space="preserve" text-anchor="middle" x="588" y="-6.5" font-family="Helvetica,sans-Serif" font-size="10.00">regex</text>
</a>
</g>
</g>
<!-- Node10&#45;&gt;Node14 -->
<g id="edge18_Node000010_Node000014" class="edge">
<title>Node10&#45;&gt;Node14</title>
<g id="a_edge18_Node000010_Node000014"><a xlink:title=" ">
<path fill="none" stroke="#63b8ff" d="M578.09,-55.59C579.57,-48.93 581.61,-39.75 583.46,-31.44"/>
<polygon fill="#63b8ff" stroke="#63b8ff" points="586.85,-32.3 585.61,-21.78 580.02,-30.78 586.85,-32.3"/>
</a>
</g>
</g>
<!-- Node15&#45;&gt;Node4 -->
<g id="edge20_Node000015_Node000004" class="edge">
<title>Node15&#45;&gt;Node4</title>
<g id="a_edge20_Node000015_Node000004"><a xlink:title=" ">
<path fill="none" stroke="#63b8ff" d="M367.61,-168.2C341.46,-159.49 301.08,-146.03 271.18,-136.06"/>
<polygon fill="#63b8ff" stroke="#63b8ff" points="272.31,-132.75 261.72,-132.91 270.1,-139.39 272.31,-132.75"/>
</a>
</g>
</g>
<!-- Node15&#45;&gt;Node7 -->
<g id="edge22_Node000015_Node000007" class="edge">
<title>Node15&#45;&gt;Node7</title>
<g id="a_edge22_Node000015_Node000007"><a xlink:title=" ">
<path fill="none" stroke="#63b8ff" d="M395.87,-167.74C397.6,-158.68 400.04,-144.46 401,-132 403.76,-96.25 394.64,-55.11 388.1,-31.18"/>
<polygon fill="#63b8ff" stroke="#63b8ff" points="391.53,-30.45 385.4,-21.81 384.8,-32.39 391.53,-30.45"/>
</a>
</g>
</g>
<!-- Node15&#45;&gt;Node11 -->
<g id="edge21_Node000015_Node000011" class="edge">
<title>Node15&#45;&gt;Node11</title>
<g id="a_edge21_Node000015_Node000011"><a xlink:title=" ">
<path fill="none" stroke="#63b8ff" d="M420.45,-175.55C457.45,-172.43 525.54,-162.65 574,-132 610.89,-108.66 631.35,-59.01 640.35,-31.11"/>
<polygon fill="#63b8ff" stroke="#63b8ff" points="643.63,-32.34 643.17,-21.75 636.93,-30.32 643.63,-32.34"/>
</a>
</g>
</g>
<!-- Node16 -->
<g id="Node000016" class="node">
<title>Node16</title>
<g id="a_Node000016"><a xlink:title=" ">
<polygon fill="#e0e0e0" stroke="#999999" points="564.5,-132 521.5,-132 521.5,-112 564.5,-112 564.5,-132"/>
<text xml:space="preserve" text-anchor="middle" x="543" y="-118.5" font-family="Helvetica,sans-Serif" font-size="10.00">thread</text>
</a>
</g>
</g>
<!-- Node15&#45;&gt;Node16 -->
<g id="edge23_Node000015_Node000016" class="edge">
<title>Node15&#45;&gt;Node16</title>
<g id="a_edge23_Node000015_Node000016"><a xlink:title=" ">
<path fill="none" stroke="#63b8ff" d="M419.95,-167.59C445.16,-158.46 483.51,-144.56 510.68,-134.71"/>
<polygon fill="#63b8ff" stroke="#63b8ff" points="511.58,-138.11 519.79,-131.41 509.2,-131.53 511.58,-138.11"/>
</a>
</g>
</g>
<!-- Node17 -->
<g id="Node000017" class="node">
<title>Node17</title>
<g id="a_Node000017"><a xlink:title=" ">
<polygon fill="#e0e0e0" stroke="#999999" points="328.38,-132 287.62,-132 287.62,-112 328.38,-112 328.38,-132"/>
<text xml:space="preserve" text-anchor="middle" x="308" y="-118.5" font-family="Helvetica,sans-Serif" font-size="10.00">future</text>
</a>
</g>
</g>
<!-- Node15&#45;&gt;Node17 -->
<g id="edge24_Node000015_Node000017" class="edge">
<title>Node15&#45;&gt;Node17</title>
<g id="a_edge24_Node000015_Node000017"><a xlink:title=" ">
<path fill="none" stroke="#63b8ff" d="M379.02,-167.59C366.27,-159.59 347.71,-147.93 332.76,-138.54"/>
<polygon fill="#63b8ff" stroke="#63b8ff" points="334.71,-135.64 324.38,-133.28 330.99,-141.57 334.71,-135.64"/>
</a>
</g>
</g>
<!-- Node18 -->
<g id="Node000018" class="node">
<title>Node18</title>
<g id="a_Node000018"><a xlink:title=" ">
<polygon fill="#e0e0e0" stroke="#999999" points="391.62,-132 346.38,-132 346.38,-112 391.62,-112 391.62,-132"/>
<text xml:space="preserve" text-anchor="middle" x="369" y="-118.5" font-family="Helvetica,sans-Serif" font-size="10.00">chrono</text>
</a>
</g>
</g>
<!-- Node15&#45;&gt;Node18 -->
<g id="edge25_Node000015_Node000018" class="edge">
<title>Node15&#45;&gt;Node18</title>
<g id="a_edge25_Node000015_Node000018"><a xlink:title=" ">
<path fill="none" stroke="#63b8ff" d="M389.65,-167.59C386.45,-160.7 382.01,-151.1 378.06,-142.57"/>
<polygon fill="#63b8ff" stroke="#63b8ff" points="381.32,-141.28 373.94,-133.67 374.97,-144.22 381.32,-141.28"/>
</a>
</g>
</g>
<!-- Node19 -->
<g id="Node000019" class="node">
<title>Node19</title>
<g id="a_Node000019"><a xlink:title=" ">
<polygon fill="#e0e0e0" stroke="#999999" points="503.88,-132 448.12,-132 448.12,-112 503.88,-112 503.88,-132"/>
<text xml:space="preserve" text-anchor="middle" x="476" y="-118.5" font-family="Helvetica,sans-Serif" font-size="10.00">concepts</text>
</a>
</g>
</g>
<!-- Node15&#45;&gt;Node19 -->
<g id="edge26_Node000015_Node000019" class="edge">
<title>Node15&#45;&gt;Node19</title>
<g id="a_edge26_Node000015_Node000019"><a xlink:title=" ">
<path fill="none" stroke="#63b8ff" d="M408.28,-167.59C420.44,-159.59 438.14,-147.93 452.4,-138.54"/>
<polygon fill="#63b8ff" stroke="#63b8ff" points="453.91,-141.73 460.34,-133.31 450.06,-135.89 453.91,-141.73"/>
</a>
</g>
</g>
</g>
</svg>
